<svg width="742" height="512" viewBox="0 0 742 512" fill="none" xmlns="http://www.w3.org/2000/svg">
<g id="back-end">
<g id="desk">
<path id="Vector" fillRule="evenodd" clipRule="evenodd" d="M741.048 471.567C741.525 467.03 738.77 462.699 736.998 458.496C736.107 456.379 734.659 454.509 733.135 452.79C727.348 446.271 721.536 439.728 715.112 433.838C709.872 429.038 703.767 425.111 697.368 422.029C689.844 418.407 682.265 414.874 674.514 411.77C655.053 403.982 633.881 398.238 613.458 393.714C601.211 391.002 588.903 388.576 576.576 386.265C483.684 368.858 389.634 364.433 295.347 369.568C250.497 372.009 206.065 375.088 161.931 383.739C115.032 392.933 67.8892 407.528 29.0874 436.299C24.9056 439.4 21.0645 442.95 17.3084 446.554C10.5264 453.063 2.4271 461.84 0.57516 471.585C-1.84178 484.306 6.5426 492.438 15.934 499.189C19.0551 501.433 24.7841 504.703 28.4364 505.711C34.0428 507.259 39.7419 508.566 45.5098 509.31C58.3606 510.975 71.596 509.796 84.4513 508.91C115.342 506.789 145.794 500.952 176.638 498.121C200.465 495.94 224.387 494.623 248.256 492.981C295.413 489.737 341.752 488.613 388.86 493.296C397.624 494.168 406.407 494.947 415.12 496.269C429.25 498.405 442.904 502.066 456.944 504.572C466.239 506.227 479.037 507.882 487.958 508.845C508.056 511.011 528.419 511.346 548.62 511.725C574.323 512.206 599.955 512.211 625.608 510.45C658.617 508.176 693.585 505.878 722.777 488.457C725.749 486.683 728.888 485.049 731.389 482.654C733.09 481.024 733.556 478.419 735.099 476.643C736.811 474.678 740.775 474.159 741.048 471.567Z" fill="black"/>
<path id="Vector_2" fillRule="evenodd" clipRule="evenodd" d="M725.566 458.622C724.721 456.748 718.312 451.395 716.854 449.879C711.32 444.122 705.771 438.345 699.615 433.151C694.603 428.918 688.75 425.464 682.604 422.761C675.39 419.585 668.115 416.488 660.673 413.774C641.996 406.962 621.654 401.974 602.031 398.064C590.265 395.721 550.903 389.164 539.056 387.177C449.779 372.206 365.756 368.041 275.025 373.083C231.867 375.481 132.62 394.954 95.6828 410.02C47.0807 424.601 31.2719 446.17 27.6398 449.388C21.082 455.2 12.4608 463.086 10.6291 471.745C8.23846 483.047 24.9945 490.725 33.9941 496.669C36.9856 498.643 35.1626 499.595 38.6715 500.476C44.0567 501.817 49.5321 502.951 55.0773 503.584C67.4308 504.992 85.2916 501.048 97.6629 500.198C127.39 498.152 151.593 495.647 181.279 492.975C204.212 490.914 230.184 485.961 253.154 484.382C298.535 481.259 340.166 483.686 385.457 487.6C393.887 488.329 402.332 488.974 410.705 490.101C424.289 491.928 437.401 495.104 450.893 497.256C459.829 498.678 472.136 500.081 480.708 500.886C500.037 502.708 519.62 502.901 539.056 503.134C563.777 503.433 588.433 503.301 613.119 501.605C644.887 499.418 677.957 505.828 706.126 490.214C708.996 488.624 716.348 485.062 718.762 482.923C720.408 481.468 729.941 475.147 728.483 468.343C728.483 468.343 727.252 462.344 725.566 458.622Z" fill="white"/>
</g>
<path id="screen-bg" fillRule="evenodd" clipRule="evenodd" d="M86.2178 5.89673H666.045C666.146 5.89673 666.231 5.9749 666.231 6.07139V305.835C666.231 305.931 666.146 306.009 666.045 306.009H86.2178C86.115 306.009 86.0315 305.931 86.0315 305.835V6.07139C86.0315 5.9749 86.115 5.89673 86.2178 5.89673Z" fill="white"/>
<path id="laptop" fillRule="evenodd" clipRule="evenodd" d="M465.241 0.044106C447.36 0.191127 422.578 0.852774 390.895 2.02905C359.207 3.20532 332.307 3.79341 310.191 3.79341C288.074 3.79341 274.663 3.94048 269.957 4.23452C265.252 4.52856 250.9 4.60208 226.901 4.45506C202.902 4.30803 185.569 3.86691 174.902 3.13176C164.236 2.3966 150.668 1.95554 134.198 1.80851C117.729 1.66144 105.415 1.73495 97.2586 2.02905C89.1023 2.32309 84.7889 2.32309 84.3185 2.02905C84.0831 1.88203 83.8477 1.73495 83.6123 1.58793C83.0635 5.1167 82.5147 8.64547 81.9654 12.1743C80.8678 19.2318 80.0831 27.6125 79.6128 37.3166C79.1419 47.0206 78.907 60.9152 78.907 79.0003C78.907 97.0858 79.2989 112.082 80.0831 123.992C80.8678 135.901 80.8678 148.473 80.0831 161.705C79.2989 174.939 78.907 202.286 78.907 243.749C78.907 285.212 79.064 306.311 79.3774 307.047C79.6912 307.782 80.3185 308.444 81.2596 309.032C82.2008 309.619 83.2204 309.767 84.3185 309.472C85.4162 309.179 86.2009 308.149 86.6712 306.385C87.142 304.621 87.377 286.683 87.377 252.571C87.377 218.46 87.142 198.684 86.6712 193.244C86.2009 187.804 86.2009 177.953 86.6712 163.69C87.142 149.428 87.0636 135.681 86.4357 122.448C85.8085 109.215 85.5731 87.4545 85.73 57.1658C85.887 26.8774 85.8085 10.7774 85.4946 8.866C85.1812 6.95462 85.0243 5.70484 85.0243 5.1167C85.0243 4.82265 85.0243 4.52856 85.0243 4.23452C85.1812 4.23452 85.3382 4.23452 85.4946 4.23452C85.8085 4.23452 86.2789 4.45506 86.9066 4.89617C87.5339 5.33723 89.4162 5.70484 92.5531 5.99888C95.6905 6.29298 107.219 6.58702 127.14 6.88111C147.061 7.17515 165.491 7.76329 182.432 8.64546C199.372 9.52768 233.802 9.96879 285.721 9.96879C337.641 9.96879 378.972 9.74824 409.719 9.30712C440.46 8.866 467.049 8.71898 489.477 8.866C511.909 9.01307 540.453 9.82172 575.122 11.292C609.787 12.7623 632.139 13.424 642.178 13.277C652.212 13.13 658.723 12.8359 661.705 12.3948C663.193 12.1743 664.687 11.9537 666.176 11.7331C665.781 19.7464 665.391 27.7596 665.001 35.7728C664.216 51.7993 662.723 72.9721 660.531 99.2904C658.333 125.609 657.235 146.635 657.235 162.367C657.235 178.1 658.019 205.3 659.589 243.97C661.153 282.639 658.88 302.267 652.764 302.856C646.648 303.445 634.412 303.886 616.06 304.179C597.707 304.474 572.687 303.812 541.005 302.195C509.317 300.577 482.105 299.768 459.358 299.768C436.617 299.768 401.086 301.018 352.777 303.517C304.465 306.018 256.076 307.561 207.607 308.149C159.139 308.737 130.984 309.252 123.14 309.693C115.298 310.134 109.416 310.648 105.494 311.237C101.572 311.826 97.8865 312.045 94.4354 311.898C92.71 311.826 90.9846 311.752 89.2592 311.678C89.2592 311.826 89.2592 311.972 89.2592 312.119C89.2592 312.413 89.8865 312.707 91.1416 313.002C92.3966 313.295 97.8078 313.295 107.377 313.002C116.944 312.707 142.591 312.854 184.314 313.442C226.038 314.03 261.252 313.809 289.956 312.781C304.309 312.266 318.662 311.752 333.014 311.237C331.288 321.529 329.562 331.821 327.837 342.113C324.386 362.698 322.269 376.372 321.484 383.136C320.7 389.899 320.387 394.236 320.544 396.148C320.621 397.103 320.7 398.059 320.779 399.015C319.994 399.015 319.21 399.015 318.425 399.015C316.858 399.015 315.994 399.235 315.838 399.677C315.759 399.896 315.68 400.118 315.603 400.339C317.642 400.853 319.68 401.367 321.72 401.882C325.798 402.911 333.72 404.308 345.483 406.073C357.248 407.837 370.032 408.866 383.832 409.16C397.639 409.455 407.992 409.087 414.893 408.058C421.793 407.028 426.577 405.926 429.245 404.749C431.913 403.573 433.402 402.764 433.715 402.323C434.029 401.882 434.105 401.074 433.949 399.896C433.791 398.721 433.163 397.985 432.07 397.692C430.971 397.397 430.501 393.869 430.657 387.105C430.815 380.342 430.657 373.358 430.187 366.153C429.717 358.948 428.931 351.45 427.833 343.658C426.734 335.864 425.478 329.248 424.066 323.808C422.659 318.367 422.031 314.987 422.188 313.663C422.345 312.34 422.031 310.943 421.246 309.472C420.851 308.737 420.462 308.002 420.066 307.268C431.913 307.194 443.755 307.12 455.597 307.047C479.28 306.899 502.184 307.194 524.298 307.929C546.417 308.664 571.826 309.105 600.533 309.252C629.238 309.399 646.648 308.958 652.764 307.929C658.88 306.899 662.333 306.752 663.118 307.487C663.507 307.855 663.902 308.222 664.292 308.591C664.53 308.37 664.763 308.149 665.001 307.929C665.472 307.487 665.705 306.899 665.705 306.164C665.705 305.429 666.176 304.914 667.117 304.621C668.058 304.326 668.53 303.886 668.53 303.297C668.53 302.709 668.216 302.341 667.588 302.195C666.96 302.048 667.036 293.887 667.821 277.714C668.606 261.54 668.686 229.34 668.058 181.114C667.431 132.887 667.745 98.4816 669 77.8976C670.251 57.3131 670.565 41.0658 669.942 29.1564C669.314 17.2469 670.176 10.9244 672.529 10.1893C674.878 9.4541 676.134 8.64546 676.291 7.76329C676.448 6.88111 675.663 6.21946 673.942 5.77835C672.215 5.33723 668.762 4.96968 663.589 4.67563C658.409 4.38154 650.41 4.23452 639.586 4.23452C628.767 4.23452 615.118 3.79341 598.649 2.91123C582.18 2.02904 560.299 1.29389 533.006 0.705752C505.713 0.117617 483.122 -0.102915 465.241 0.044106Z" fill="black"/>
<g id="code">
<path id="Vector_3" fillRule="evenodd" clipRule="evenodd" d="M343.077 53.9909C301.512 54.9169 257.622 55.5661 211.435 55.9373C165.25 56.3071 140.531 56.2141 137.296 55.6592C135.687 55.3812 134.061 55.1031 132.45 54.8251C132.45 55.0099 132.45 55.1962 132.45 55.3812C132.45 55.751 133.839 56.2141 136.612 56.7701C139.383 57.3262 144.93 57.7893 153.234 58.1604C161.552 58.5304 182.574 58.9015 216.281 59.2714C250.003 59.6425 294.341 58.9945 349.308 57.3262C404.275 55.6592 432.69 54.7319 434.539 54.547C435.463 54.4538 436.389 54.362 437.296 54.269C437.072 53.9909 436.835 53.714 436.611 53.436C436.148 52.8799 430.841 52.6018 420.674 52.6018C410.506 52.6018 384.642 53.0649 343.077 53.9909Z" fill="black"/>
<path id="Vector_4" fillRule="evenodd" clipRule="evenodd" d="M167.099 69.2764C137.533 69.6475 122.746 70.0174 122.746 70.3885C122.746 70.7584 126.682 71.1296 134.523 71.4995C142.38 71.8707 159.703 72.0556 186.495 72.0556C213.284 72.0556 233.381 71.7775 246.768 71.2214C260.17 70.6666 266.865 70.1105 266.865 69.5544C266.865 69.2764 266.865 68.9983 266.865 68.7214C257.622 68.7214 248.395 68.7214 239.149 68.7214C220.678 68.7214 196.663 68.9064 167.099 69.2764Z" fill="black"/>
<path id="Vector_5" fillRule="evenodd" clipRule="evenodd" d="M437.296 93.4559C415.129 94.0119 386.952 94.29 352.78 94.29C318.598 94.29 274.946 94.66 221.826 95.401C168.708 96.1421 137.073 96.6046 126.906 96.7903C116.753 96.976 111.669 97.3463 111.669 97.9023C111.669 98.4583 125.294 99.0134 152.547 99.5703C179.8 100.125 231.295 100.125 307.042 99.5703C382.807 99.0134 434.539 98.1803 462.253 97.0683C489.952 95.9571 504.505 95.2161 505.891 94.8449C507.276 94.475 507.74 94.0119 507.276 93.4559C506.815 92.8998 500.583 92.6217 488.582 92.6217C476.565 92.6217 459.48 92.8998 437.296 93.4559Z" fill="black"/>
<path id="Vector_6" fillRule="evenodd" clipRule="evenodd" d="M228.06 114.3C214.209 115.041 200.12 115.411 185.793 115.411C171.482 115.411 163.862 115.595 162.94 115.967C162.477 116.152 162.016 116.338 161.552 116.523C175.641 116.523 189.729 116.523 203.818 116.523C231.995 116.523 252.076 116.152 264.092 115.411C270.1 115.041 276.109 114.67 282.102 114.3C281.879 114.115 281.639 113.928 281.415 113.744C280.954 113.372 275.407 113.188 264.793 113.188C254.162 113.188 241.923 113.558 228.06 114.3Z" fill="black"/>
<path id="Vector_7" fillRule="evenodd" clipRule="evenodd" d="M401.965 132.919C394.122 133.106 389.262 133.383 387.412 133.754C386.488 133.939 385.566 134.123 384.642 134.31C385.103 134.588 385.566 134.866 386.027 135.143C386.952 135.699 396.896 136.069 415.828 136.255C434.762 136.44 444.93 136.348 446.315 135.977C447.703 135.606 448.388 135.143 448.388 134.588C448.388 134.032 447.703 133.568 446.315 133.197C444.93 132.828 439.144 132.643 428.991 132.643C418.825 132.643 409.82 132.734 401.965 132.919Z" fill="black"/>
<path id="Vector_8" fillRule="evenodd" clipRule="evenodd" d="M271.709 135.143C242.609 135.329 218.368 136.069 198.972 137.366C189.265 138.016 179.562 138.663 169.87 139.312C171.943 139.405 174.015 139.497 176.102 139.589C180.26 139.775 189.729 139.405 204.502 138.478C219.293 137.552 248.395 137.274 291.805 137.644C335.219 138.016 357.403 138.107 358.313 137.922C359.238 137.738 359.476 137.274 359.012 136.533C358.551 135.792 351.157 135.329 336.846 135.143C322.516 134.957 300.811 134.957 271.709 135.143Z" fill="black"/>
<path id="Vector_9" fillRule="evenodd" clipRule="evenodd" d="M234.99 153.764C216.518 154.504 201.268 155.339 189.265 156.265C177.25 157.191 171.258 157.84 171.258 158.212C171.258 158.396 171.258 158.581 171.258 158.766C178.875 158.488 186.495 158.212 194.112 157.932C209.362 157.377 243.534 157.284 296.652 157.654C349.769 158.025 382.57 157.84 395.047 157.099C401.278 156.728 407.509 156.357 413.741 155.987C399.429 155.431 385.103 154.876 370.79 154.32C342.152 153.208 316.986 152.653 295.267 152.653C273.558 152.653 253.461 153.023 234.99 153.764Z" fill="black"/>
<path id="Vector_10" fillRule="evenodd" clipRule="evenodd" d="M162.239 189.893C154.158 190.078 146.077 190.263 137.997 190.449C140.307 190.726 142.62 191.004 144.93 191.282C149.536 191.838 158.317 192.301 171.258 192.672C184.182 193.043 219.515 193.321 277.256 193.506C334.996 193.691 380.497 193.599 413.741 193.228C447.002 192.857 463.624 192.486 463.624 192.116C463.624 191.746 462.476 191.468 460.166 191.282C457.856 191.097 435.925 190.726 394.345 190.171C352.78 189.615 307.744 189.337 259.246 189.337C210.751 189.337 178.414 189.523 162.239 189.893Z" fill="black"/>
<path id="Vector_11" fillRule="evenodd" clipRule="evenodd" d="M223.214 206.013C204.28 206.753 194.112 207.309 192.727 207.68C192.04 207.865 191.338 208.051 190.654 208.236C195.737 208.514 200.807 208.791 205.89 209.069C216.058 209.625 228.057 209.718 241.923 209.347C255.773 208.977 263.405 208.606 264.793 208.236C266.165 207.865 266.402 207.309 265.477 206.568C264.553 205.828 262.02 205.363 257.86 205.179C253.701 204.994 242.145 205.27 223.214 206.013Z" fill="black"/>
<path id="Vector_12" fillRule="evenodd" clipRule="evenodd" d="M536.152 112.308C522.302 113.049 508.213 113.419 493.886 113.419C479.575 113.419 471.955 113.604 471.033 113.975C470.57 114.16 470.108 114.346 469.644 114.531C483.733 114.531 497.822 114.531 511.91 114.531C540.088 114.531 560.168 114.16 572.184 113.419C578.192 113.049 584.2 112.678 590.195 112.308C589.971 112.123 589.731 111.937 589.508 111.752C589.047 111.381 583.499 111.196 572.886 111.196C562.255 111.196 550.016 111.565 536.152 112.308Z" fill="black"/>
<path id="Vector_13" fillRule="evenodd" clipRule="evenodd" d="M384.316 68.3201C355.882 68.4619 338.262 68.6728 331.559 68.9556C328.207 69.0965 324.865 69.2374 321.514 69.3793C323.184 69.5911 324.865 69.8029 326.536 70.0139C329.888 70.4376 365.938 70.7194 434.573 70.8612C503.218 71.0021 540.077 70.9321 545.1 70.6494C550.133 70.3666 552.614 70.0139 552.614 69.5911C552.614 69.1674 550.133 68.8146 545.1 68.5319C540.077 68.2501 519.106 68.1091 482.297 68.1091C445.437 68.1091 412.791 68.1791 384.316 68.3201Z" fill="black"/>
<path id="Vector_14" fillRule="evenodd" clipRule="evenodd" d="M375.264 242.545C351.076 242.736 336.087 243.019 330.385 243.399C327.534 243.589 324.691 243.779 321.84 243.969C323.261 244.254 324.691 244.539 326.113 244.822C328.964 245.391 359.63 245.77 418.015 245.961C476.409 246.15 507.763 246.056 512.036 245.676C516.317 245.296 518.427 244.822 518.427 244.254C518.427 243.684 516.317 243.21 512.036 242.83C507.763 242.451 489.923 242.262 458.612 242.262C427.257 242.262 399.486 242.356 375.264 242.545Z" fill="black"/>
<path id="Vector_15" fillRule="evenodd" clipRule="evenodd" d="M252.88 274.187C168.566 274.709 126.397 275.23 126.397 275.752C126.397 276.273 137.62 276.796 159.979 277.316C182.385 277.839 231.786 278.1 308.191 278.1C384.588 278.1 441.898 277.708 480.076 276.925C518.295 276.144 537.388 275.361 537.388 274.578C537.388 274.187 537.388 273.795 537.388 273.406C511.03 273.406 484.713 273.406 458.347 273.406C405.672 273.406 337.186 273.666 252.88 274.187Z" fill="black"/>
<path id="Vector_16" fillRule="evenodd" clipRule="evenodd" d="M182.927 243.89C153.361 244.262 138.573 244.631 138.573 245.002C138.573 245.373 142.509 245.743 150.35 246.113C158.207 246.485 175.53 246.669 202.322 246.669C229.111 246.669 249.208 246.391 262.595 245.835C275.998 245.28 282.692 244.724 282.692 244.168C282.692 243.89 282.692 243.612 282.692 243.335C273.45 243.335 264.221 243.335 254.976 243.335C236.505 243.335 212.489 243.52 182.927 243.89Z" fill="black"/>
<path id="Vector_17" fillRule="evenodd" clipRule="evenodd" d="M337.783 255.876C296.218 256.802 252.328 257.45 206.141 257.822C159.956 258.192 135.236 258.099 132.002 257.544C130.394 257.266 128.767 256.988 127.156 256.71C127.156 256.894 127.156 257.081 127.156 257.266C127.156 257.636 128.544 258.099 131.318 258.655C134.088 259.211 139.636 259.674 147.94 260.045C156.258 260.415 177.279 260.786 210.987 261.156C244.709 261.527 289.047 260.88 344.014 259.211C398.981 257.544 427.396 256.616 429.245 256.432C430.17 256.338 431.094 256.247 432.002 256.154C431.778 255.876 431.541 255.599 431.317 255.321C430.854 254.765 425.546 254.487 415.38 254.487C405.212 254.487 379.347 254.949 337.783 255.876Z" fill="black"/>
<path id="Vector_18" fillRule="evenodd" clipRule="evenodd" d="M197.716 231.061C183.865 231.802 169.776 232.172 155.45 232.172C141.138 232.172 133.519 232.357 132.596 232.728C132.133 232.913 131.672 233.099 131.208 233.284C145.297 233.284 159.386 233.284 173.475 233.284C201.652 233.284 221.732 232.913 233.748 232.172C239.756 231.802 245.764 231.431 251.758 231.061C251.535 230.876 251.294 230.69 251.072 230.505C250.61 230.133 245.064 229.948 234.45 229.948C223.819 229.948 211.579 230.319 197.716 231.061Z" fill="black"/>
<path id="Vector_19" fillRule="evenodd" clipRule="evenodd" d="M564.278 21.0336C531.792 21.4126 490.498 21.6021 440.418 21.6021C390.322 21.6021 326.349 21.8542 248.499 22.3593C170.654 22.8644 124.291 23.1799 109.391 23.306C94.511 23.4328 87.0608 23.685 87.0608 24.064C87.0608 24.443 107.029 24.8211 146.969 25.201C186.909 25.5792 262.376 25.5792 373.387 25.201C484.423 24.8211 560.238 24.2534 600.854 23.4954C641.448 22.7383 662.776 22.2332 664.805 21.9803C666.836 21.7282 667.515 21.4126 666.836 21.0336C666.16 20.6546 657.028 20.4651 639.439 20.4651C621.828 20.4651 596.788 20.6546 564.278 21.0336Z" fill="black"/>
</g>
</g>
</svg>
