<svg width="763" height="528" viewBox="0 0 763 528" fill="none" xmlns="http://www.w3.org/2000/svg">
<g id="front-end">
<g id="desk">
<path id="Vector" fillRule="evenodd" clipRule="evenodd" d="M762.927 485.817C763.417 481.15 760.583 476.694 758.76 472.37C757.844 470.192 756.354 468.268 754.786 466.5C748.833 459.793 742.854 453.062 736.245 447.003C730.854 442.065 724.573 438.025 717.99 434.854C710.25 431.128 702.453 427.493 694.479 424.3C674.458 416.288 652.677 410.379 631.667 405.725C619.068 402.935 606.406 400.439 593.724 398.062C498.161 380.154 401.406 375.602 304.407 380.884C258.267 383.396 212.557 386.563 167.153 395.463C118.906 404.921 70.4068 419.936 30.489 449.535C26.187 452.725 22.2354 456.377 18.3713 460.085C11.3942 466.781 3.06195 475.81 1.15674 485.836C-1.32971 498.922 7.29581 507.288 16.9573 514.234C20.1682 516.542 26.062 519.906 29.8193 520.943C35.587 522.536 41.45 523.88 47.3838 524.646C60.6042 526.359 74.2203 525.146 87.4453 524.234C119.224 522.052 150.552 516.047 182.283 513.135C206.796 510.891 231.406 509.536 255.961 507.847C304.475 504.51 352.146 503.353 400.609 508.171C409.625 509.068 418.661 509.87 427.625 511.229C442.161 513.427 456.208 517.193 470.651 519.771C480.214 521.474 493.38 523.177 502.557 524.167C523.234 526.396 544.182 526.74 564.964 527.13C591.406 527.625 617.776 527.63 644.167 525.818C678.125 523.479 714.099 521.115 744.13 503.193C747.188 501.368 750.417 499.687 752.99 497.223C754.74 495.546 755.219 492.866 756.807 491.039C758.568 489.017 762.646 488.484 762.927 485.817Z" fill="black"/>
<path id="Vector_2" fillRule="evenodd" clipRule="evenodd" d="M747 472.5C746.13 470.572 739.537 465.065 738.037 463.505C732.344 457.583 726.635 451.639 720.302 446.296C715.146 441.941 709.125 438.388 702.802 435.607C695.38 432.34 687.896 429.154 680.24 426.362C661.026 419.354 640.099 414.222 619.912 410.2C607.807 407.789 567.313 401.044 555.125 399C463.281 383.598 376.841 379.313 283.5 384.5C239.101 386.967 137 407 99 422.5C49 437.5 32.7365 459.689 29 463C22.2536 468.979 13.3844 477.092 11.5 486C9.04063 497.627 26.2786 505.526 35.537 511.641C38.6146 513.672 36.7391 514.651 40.349 515.557C45.8891 516.937 51.5219 518.104 57.2266 518.755C69.9354 520.203 88.3099 516.146 101.037 515.271C131.619 513.167 156.518 510.589 187.058 507.841C210.651 505.72 237.37 500.625 261 499C307.687 495.788 350.515 498.284 397.109 502.311C405.781 503.061 414.469 503.725 423.083 504.884C437.057 506.764 450.547 510.031 464.427 512.245C473.62 513.708 486.281 515.151 495.099 515.979C514.984 517.854 535.13 518.052 555.125 518.292C580.557 518.599 605.922 518.464 631.318 516.719C664 514.469 698.021 521.063 727 505C729.953 503.365 737.516 499.7 740 497.5C741.693 496.003 751.5 489.5 750 482.5C750 482.5 748.734 476.329 747 472.5Z" fill="white"/>
</g>
<path id="screen-bg" fillRule="evenodd" clipRule="evenodd" d="M89.2625 6.75323H685.766C685.87 6.75323 685.958 6.83365 685.958 6.93292V315.318C685.958 315.417 685.87 315.497 685.766 315.497H89.2625C89.1567 315.497 89.0708 315.417 89.0708 315.318V6.93292C89.0708 6.83365 89.1567 6.75323 89.2625 6.75323Z" fill="white"/>
<path id="laptop" fillRule="evenodd" clipRule="evenodd" d="M479.187 0.732264C460.792 0.883514 435.297 1.56419 402.703 2.7743C370.104 3.9844 342.43 4.5894 319.678 4.5894C296.925 4.5894 283.128 4.7407 278.287 5.0432C273.446 5.3457 258.681 5.42133 233.992 5.27008C209.303 5.11883 191.471 4.66502 180.498 3.90872C169.525 3.15242 155.567 2.69867 138.623 2.54742C121.68 2.39612 109.012 2.47174 100.621 2.7743C92.2302 3.0768 87.7927 3.0768 87.3088 2.7743C87.0666 2.62305 86.8244 2.47174 86.5823 2.32049C86.0177 5.95075 85.4531 9.58102 84.888 13.2113C83.7588 20.4718 82.9515 29.0936 82.4677 39.0768C81.9833 49.0599 81.7416 63.3541 81.7416 81.9594C81.7416 100.565 82.1448 115.993 82.9515 128.245C83.7588 140.497 83.7588 153.43 82.9515 167.043C82.1448 180.657 81.7416 208.791 81.7416 251.447C81.7416 294.102 81.9031 315.808 82.2255 316.565C82.5484 317.321 83.1937 318.002 84.1619 318.607C85.1302 319.211 86.1791 319.363 87.3088 319.06C88.438 318.758 89.2453 317.699 89.7291 315.884C90.2135 314.069 90.4552 295.615 90.4552 260.522C90.4552 225.43 90.2135 205.085 89.7291 199.489C89.2453 193.892 89.2453 183.758 89.7291 169.085C90.2135 154.413 90.1328 140.27 89.4869 126.657C88.8416 113.043 88.5994 90.6567 88.7609 59.4969C88.9224 28.3373 88.8416 11.7743 88.5187 9.80789C88.1963 7.84154 88.0349 6.55581 88.0349 5.95075C88.0349 5.64825 88.0349 5.3457 88.0349 5.0432C88.1963 5.0432 88.3578 5.0432 88.5187 5.0432C88.8416 5.0432 89.3255 5.27008 89.9713 5.72388C90.6166 6.17763 92.5531 6.55581 95.7802 6.85831C99.0078 7.16086 110.868 7.46336 131.362 7.76591C151.856 8.06841 170.816 8.67346 188.244 9.58101C205.671 10.4886 241.092 10.9424 294.504 10.9424C347.917 10.9424 390.437 10.7155 422.068 10.2617C453.693 9.80789 481.047 9.65664 504.12 9.80789C527.198 9.95919 556.562 10.7911 592.229 12.3037C627.891 13.8163 650.885 14.497 661.213 14.3458C671.536 14.1945 678.234 13.892 681.302 13.4382C682.833 13.2113 684.37 12.9844 685.901 12.7575C685.495 21.0012 685.094 29.2449 684.693 37.4886C683.885 53.976 682.349 75.7578 680.094 102.833C677.833 129.909 676.703 151.539 676.703 167.724C676.703 183.909 677.51 211.892 679.125 251.674C680.734 291.455 678.396 311.648 672.104 312.254C665.812 312.859 653.224 313.313 634.344 313.615C615.463 313.918 589.724 313.237 557.13 311.573C524.531 309.909 496.536 309.077 473.135 309.077C449.74 309.077 413.187 310.363 363.489 312.934C313.787 315.506 264.006 317.094 214.143 317.699C164.281 318.304 135.316 318.833 127.247 319.287C119.179 319.741 113.128 320.27 109.093 320.876C105.059 321.481 101.267 321.707 97.7166 321.556C95.9416 321.481 94.1666 321.405 92.3916 321.329C92.3916 321.481 92.3916 321.632 92.3916 321.783C92.3916 322.085 93.0369 322.388 94.3281 322.691C95.6192 322.993 101.186 322.993 111.03 322.691C120.873 322.388 147.257 322.539 190.18 323.144C233.104 323.749 269.331 323.522 298.861 322.464C313.627 321.934 328.392 321.405 343.157 320.876C341.381 331.464 339.606 342.052 337.831 352.64C334.281 373.817 332.103 387.884 331.296 394.842C330.489 401.8 330.167 406.262 330.328 408.229C330.408 409.211 330.489 410.195 330.57 411.178C329.763 411.178 328.956 411.178 328.149 411.178C326.536 411.178 325.648 411.405 325.487 411.859C325.406 412.085 325.325 412.313 325.245 412.54C327.343 413.069 329.44 413.598 331.538 414.128C335.734 415.186 343.883 416.623 355.985 418.439C368.088 420.254 381.24 421.313 395.437 421.615C409.641 421.918 420.292 421.54 427.391 420.481C434.49 419.422 439.411 418.288 442.156 417.077C444.901 415.867 446.432 415.035 446.755 414.581C447.078 414.128 447.156 413.296 446.995 412.085C446.833 410.876 446.187 410.119 445.062 409.817C443.932 409.514 443.448 405.884 443.609 398.926C443.771 391.968 443.609 384.783 443.125 377.371C442.641 369.959 441.833 362.245 440.703 354.229C439.573 346.211 438.281 339.405 436.828 333.808C435.38 328.211 434.734 324.733 434.896 323.371C435.057 322.01 434.734 320.573 433.927 319.06C433.521 318.304 433.12 317.548 432.713 316.792C444.901 316.716 457.083 316.64 469.266 316.565C493.63 316.413 517.193 316.716 539.943 317.472C562.698 318.229 588.838 318.682 618.37 318.833C647.901 318.985 665.812 318.531 672.104 317.472C678.396 316.413 681.948 316.262 682.755 317.018C683.156 317.396 683.562 317.774 683.963 318.153C684.208 317.926 684.448 317.699 684.693 317.472C685.177 317.018 685.417 316.413 685.417 315.657C685.417 314.901 685.901 314.371 686.87 314.069C687.838 313.766 688.323 313.313 688.323 312.707C688.323 312.102 688 311.724 687.354 311.573C686.708 311.422 686.786 303.027 687.594 286.388C688.401 269.749 688.484 236.623 687.838 187.01C687.193 137.396 687.516 102.001 688.807 80.825C690.094 59.6484 690.417 42.9338 689.776 30.6819C689.13 18.4298 690.016 11.9255 692.437 11.1692C694.854 10.4129 696.146 9.58101 696.307 8.67346C696.469 7.76591 695.661 7.08523 693.891 6.63143C692.114 6.17763 688.562 5.7995 683.24 5.497C677.911 5.19445 669.682 5.0432 658.547 5.0432C647.417 5.0432 633.375 4.5894 616.432 3.68185C599.49 2.77429 576.979 2.01799 548.901 1.41294C520.823 0.807889 497.583 0.581014 479.187 0.732264Z" fill="black"/>
<g id="header">
<path id="Vector_3" fillRule="evenodd" clipRule="evenodd" d="M244.4 19.5642C236.331 19.8667 217.613 20.018 188.244 20.018C158.875 20.018 141.851 20.0936 137.171 20.2448C132.492 20.3961 127.247 21.0012 121.438 22.06C115.629 23.1188 111.917 23.6482 110.304 23.6482C108.69 23.6482 107.802 23.3457 107.641 22.7407C107.48 22.1356 107.076 21.8331 106.431 21.8331C105.785 21.8331 105.382 22.1356 105.22 22.7407C105.059 23.3457 104.736 23.6482 104.252 23.6482C104.01 23.6482 103.768 23.6482 103.526 23.6482C103.688 23.7995 103.849 23.9507 104.01 24.102C104.333 24.4045 104.414 30.6819 104.252 42.9338C104.091 55.1859 103.93 62.6734 103.768 65.3963C103.607 68.1187 103.284 69.4802 102.8 69.4802C102.558 69.4802 102.316 69.4802 102.074 69.4802C102.074 69.6317 102.074 69.7828 102.074 69.9338C102.074 70.2364 102.396 70.4635 103.042 70.6145C103.688 70.7661 104.171 71.3708 104.494 72.4296C104.817 73.4885 105.301 73.9427 105.946 73.7911C106.592 73.6401 106.995 73.1104 107.157 72.2031C107.318 71.2953 108.367 70.8416 110.304 70.8416C112.24 70.8416 114.418 70.9927 116.839 71.2953C119.259 71.5979 141.932 72.0515 184.855 72.6567C227.779 73.2619 276.27 73.564 330.328 73.564C384.385 73.564 435.219 74.0182 482.818 74.9255C530.422 75.8333 564.229 75.7578 584.24 74.6989C604.25 73.6401 621.516 72.9593 636.037 72.6567C650.563 72.3541 658.063 72.4296 658.547 72.8838C659.031 73.3374 659.599 73.564 660.245 73.564C660.891 73.564 661.859 73.2619 663.146 72.6567C663.792 72.3541 664.438 72.0515 665.083 71.7489C664.844 71.5979 664.599 71.4468 664.359 71.2953C663.875 70.9927 663.792 66.1525 664.115 56.7744C664.438 47.3963 664.521 40.2869 664.359 35.4466C664.198 30.6062 663.953 28.0348 663.63 27.7323C663.307 27.4297 662.339 27.5054 660.729 27.9592C659.115 28.413 657.177 28.4886 654.917 28.186C652.662 27.8835 641.12 27.5054 620.307 27.0516C599.49 26.5978 584.802 26.0684 576.25 25.4634C567.698 24.8583 530.344 24.3289 464.182 23.8751C398.021 23.4213 357.68 22.9675 343.157 22.5138C328.633 22.06 315.966 21.3793 305.155 20.4718C294.343 19.5642 283.531 19.1104 272.72 19.1104C261.908 19.1104 252.468 19.2617 244.4 19.5642Z" fill="black"/>
<path id="Vector_4" fillRule="evenodd" clipRule="evenodd" d="M119.985 24.5558C116.112 25.1608 113.208 25.3877 111.272 25.2365C110.304 25.1608 109.335 25.0852 108.367 25.0096C108.448 31.2112 108.529 37.413 108.609 43.6145C108.77 56.0182 108.69 63.3541 108.367 65.6229C108.206 66.7578 108.044 67.8921 107.883 69.0265C109.255 68.8749 110.626 68.7239 111.998 68.5729C114.741 68.2703 122.245 68.1187 134.509 68.1187C146.772 68.1187 167.831 68.4213 197.684 69.0265C227.537 69.6317 272.235 69.9338 331.78 69.9338C391.323 69.9338 444.172 70.2364 490.323 70.8416C536.474 71.4468 567.375 71.2953 583.031 70.388C598.682 69.4802 613.286 69.0265 626.839 69.0265C640.396 69.0265 648.787 69.1776 652.016 69.4802C653.625 69.6317 655.24 69.7828 656.854 69.9338C656.937 69.2531 657.016 68.5729 657.099 67.8921C657.26 66.5307 657.578 60.2531 658.062 49.0598C658.307 43.4635 658.547 37.8667 658.792 32.2701C654.271 32.4214 649.755 32.5726 645.234 32.7239C636.198 33.0264 620.307 32.6482 597.552 31.5894C574.797 30.5306 530.422 29.7743 464.422 29.3205C398.427 28.8667 358.002 28.413 343.157 27.9592C328.311 27.5054 315.643 26.8247 305.155 25.9171C294.666 25.0096 276.593 24.7071 250.935 25.0096C225.278 25.3121 198.007 25.1608 169.122 24.5558C140.237 23.9507 123.858 23.9507 119.985 24.5558Z" fill="white"/>
</g>
<g id="top-center">
<path id="Vector_5" fillRule="evenodd" clipRule="evenodd" d="M471.687 84.2282C471.203 84.6818 470.151 84.7578 468.536 84.4552C466.927 84.1526 462.651 84.2281 455.708 84.6818C448.771 85.136 429.568 85.136 398.104 84.6818C366.635 84.2281 343.56 84.6818 328.875 86.0433C314.191 87.4047 306.365 93.9844 305.396 105.783C304.428 117.581 303.864 129.38 303.702 141.178C303.541 152.976 303.702 162.581 304.186 169.993C304.67 177.405 305.155 181.867 305.638 183.38C306.123 184.892 306.768 185.724 307.575 185.876C308.382 186.027 308.947 185.951 309.269 185.648C309.592 185.346 309.915 180.052 310.237 169.766C310.56 159.48 310.722 148.59 310.722 137.094C310.722 125.598 310.399 114.858 309.754 104.875C309.431 99.8839 311.016 101.722 310.693 96.7308C311.661 96.8823 313.553 93.4511 314.521 93.6026C316.458 93.9052 317.58 90.8078 323.55 90.8078C329.521 90.8078 336.137 90.5813 343.398 90.1271C350.66 89.6735 358.325 89.4469 366.393 89.4469C374.464 89.4469 382.37 89.6735 390.115 90.1271C397.859 90.5813 408.672 90.8078 422.547 90.8078C436.427 90.8078 447.802 90.2031 456.677 88.9927C461.115 88.388 465.552 87.7828 469.99 87.1776C469.344 95.6485 468.698 104.119 468.057 112.59C466.766 129.531 466.198 143.673 466.359 155.018C466.521 166.363 466.927 174.077 467.573 178.161C467.896 180.203 468.219 182.245 468.536 184.287C465.875 184.06 463.214 183.833 460.552 183.606C455.224 183.153 449.177 182.926 442.396 182.926C435.62 182.926 428.115 183.153 419.885 183.606C411.656 184.06 395.115 184.363 370.266 184.514C345.416 184.665 330.167 185.043 324.519 185.648C318.871 186.254 315.321 186.783 313.868 187.236C312.416 187.691 311.286 187.842 310.48 187.691C309.673 187.539 308.866 187.842 308.059 188.598C307.656 188.976 307.252 189.354 306.849 189.732C307.817 189.959 308.785 190.186 309.754 190.413C311.69 190.867 328.875 191.245 361.31 191.547C393.745 191.85 417.87 191.775 433.682 191.321C449.5 190.867 460.713 190.262 467.328 189.506C473.943 188.75 477.255 187.993 477.255 187.236C477.255 186.48 476.365 185.876 474.588 185.421C472.818 184.968 472.573 174.077 473.865 152.75C475.156 131.421 475.719 114.934 475.557 103.287C475.396 91.6401 475.156 85.5141 474.833 84.9089C474.51 84.3037 474.026 83.9255 473.38 83.7745C472.734 83.6229 472.172 83.7745 471.687 84.2282Z" fill="black"/>
<g id="top-center-content">
<path id="Vector_6" fillRule="evenodd" clipRule="evenodd" d="M326.455 111.228C326.374 111.531 326.294 111.833 326.213 112.136C327.181 112.362 328.149 112.59 329.118 112.817C331.054 113.27 337.186 113.573 347.514 113.724C357.841 113.875 366.716 114.254 374.141 114.858C381.562 115.463 394.714 115.766 413.594 115.766C432.474 115.766 445.542 115.388 452.807 114.632C460.068 113.875 463.698 113.27 463.698 112.817C463.698 112.59 463.698 112.362 463.698 112.136C440.865 111.833 418.031 111.531 395.198 111.228C349.531 110.623 326.616 110.623 326.455 111.228Z" fill="black"/>
<path id="Vector_7" fillRule="evenodd" clipRule="evenodd" d="M345.335 119.85C340.01 120.455 335.734 120.758 332.506 120.758C330.893 120.758 329.279 120.758 327.665 120.758C327.665 120.984 327.665 121.211 327.665 121.438C327.665 121.665 327.665 121.892 327.665 122.119C336.218 122.119 344.77 122.119 353.323 122.119C370.427 122.119 379.786 122.346 381.401 122.799C383.016 123.254 384.224 123.405 385.031 123.254C385.432 123.178 385.838 123.102 386.24 123.026C386.078 122.573 385.917 122.119 385.755 121.665C385.432 120.758 384.307 120.077 382.37 119.623C380.432 119.169 375.109 118.943 366.393 118.943C357.68 118.943 350.66 119.245 345.335 119.85Z" fill="black"/>
<path id="Vector_8" fillRule="evenodd" clipRule="evenodd" d="M401.974 137.094C398.99 137.396 396.005 137.699 393.021 138.002C393.099 138.228 393.182 138.455 393.26 138.682C393.422 139.136 395.76 139.59 400.281 140.043C404.797 140.497 413.995 140.799 427.875 140.951C441.75 141.102 449.5 140.875 451.109 140.27C452.724 139.665 453.531 139.06 453.531 138.455C453.531 137.85 452.969 137.321 451.839 136.867C450.708 136.413 443.609 136.186 430.537 136.186C417.469 136.186 407.948 136.488 401.974 137.094Z" fill="black"/>
<path id="Vector_9" fillRule="evenodd" clipRule="evenodd" d="M340.01 137.774C333.394 138.228 329.924 138.606 329.602 138.909C329.44 139.06 329.279 139.211 329.118 139.363C329.44 139.439 329.763 139.514 330.086 139.59C330.731 139.741 338.799 139.892 354.291 140.043C369.782 140.195 377.771 140.043 378.255 139.59C378.495 139.363 378.74 139.136 378.979 138.909C378.656 138.606 378.333 138.304 378.01 138.002C377.365 137.396 372.526 137.094 363.489 137.094C354.452 137.094 346.626 137.321 340.01 137.774Z" fill="black"/>
<path id="Vector_10" fillRule="evenodd" clipRule="evenodd" d="M364.699 151.161C358.083 151.464 352.355 152.069 347.514 152.976C342.672 153.884 339.284 154.262 337.347 154.11C336.379 154.035 335.411 153.959 334.443 153.884C334.443 154.11 334.443 154.337 334.443 154.565C334.443 155.018 335.249 155.321 336.863 155.472C338.477 155.623 341.462 155.472 345.819 155.018C350.176 154.565 356.711 154.337 365.425 154.337C374.141 154.337 380.432 154.565 384.307 155.018C388.177 155.472 395.922 155.774 407.542 155.926C419.161 156.077 426.344 156.077 429.083 155.926C431.828 155.774 433.604 155.396 434.411 154.791C435.219 154.186 435.62 153.581 435.62 152.976C435.62 152.371 435.297 151.842 434.651 151.388C434.005 150.934 423.839 150.707 404.151 150.707C384.469 150.707 371.318 150.858 364.699 151.161Z" fill="black"/>
<path id="Vector_11" fillRule="evenodd" clipRule="evenodd" d="M365.183 162.279C361.794 162.43 360.1 162.657 360.1 162.959C360.1 163.11 360.1 163.262 360.1 163.413C364.618 163.337 369.137 163.262 373.656 163.186C382.693 163.035 387.208 162.808 387.208 162.506C387.208 162.354 387.208 162.203 387.208 162.052C384.385 162.052 381.563 162.052 378.74 162.052C373.089 162.052 368.572 162.128 365.183 162.279Z" fill="black"/>
<path id="Vector_12" fillRule="evenodd" clipRule="evenodd" d="M352.839 171.581C343.802 172.488 338.396 173.169 336.621 173.623C334.846 174.077 333.958 174.531 333.958 174.984C333.958 175.211 333.958 175.438 333.958 175.665C335.895 175.287 337.831 174.909 339.768 174.531C343.641 173.774 349.127 173.321 356.227 173.169C363.328 173.018 368.895 173.018 372.927 173.169C376.964 173.321 381.24 173.774 385.755 174.531C390.276 175.287 397.859 175.741 408.51 175.892C419.161 176.043 427.229 175.665 432.714 174.758C435.458 174.304 438.203 173.85 440.943 173.396C440.781 173.169 440.62 172.943 440.464 172.716C440.141 172.262 439.333 171.959 438.042 171.808C436.75 171.657 429.167 171.581 415.286 171.581C401.411 171.581 389.792 171.354 380.432 170.9C371.073 170.447 361.875 170.673 352.839 171.581Z" fill="black"/>
</g>
</g>
<g id="right">
<path id="Vector_13" fillRule="evenodd" clipRule="evenodd" d="M606.75 85.8166C585.609 87.0265 572.38 87.9338 567.052 88.539C561.729 89.1442 552.37 89.5223 538.974 89.6734C525.583 89.8249 516.141 89.6734 510.656 89.2197C505.172 88.7661 502.266 88.69 501.943 88.9926C501.781 89.1442 501.62 89.2952 501.458 89.4468C504.526 90.2786 507.589 91.1104 510.656 91.9426C516.787 93.6062 526.068 94.5895 538.49 94.8921C550.917 95.1947 569.557 94.665 594.406 93.3036C619.255 91.9426 636.281 90.5812 645.479 89.2197C650.078 88.539 654.677 87.8583 659.276 87.1775C659.031 92.0937 658.792 97.0098 658.547 101.925C658.063 111.758 657.823 127.186 657.823 148.211C657.823 169.236 657.578 189.506 657.099 209.018C656.615 228.531 657.099 246.153 658.547 261.884C660 277.615 660.807 286.161 660.969 287.522C661.13 288.884 661.375 289.565 661.698 289.565C661.859 289.565 662.021 289.565 662.177 289.565C662.099 286.085 662.021 282.606 661.938 279.128C661.776 272.169 662.177 264.909 663.146 257.346C664.115 249.783 664.359 223.236 663.875 177.707C663.391 132.178 662.745 105.707 661.938 98.2952C661.13 90.8838 660.969 86.7994 661.453 86.0432C661.938 85.2869 661.938 84.7577 661.453 84.4551C660.969 84.1525 657.016 84.001 649.594 84.001C642.172 84.001 627.891 84.6062 606.75 85.8166Z" fill="black"/>
<path id="Vector_14" fillRule="evenodd" clipRule="evenodd" d="M498.797 96.2536C498.312 103.514 498.151 108.506 498.313 111.228C498.474 113.951 498.068 121.438 497.099 133.691C496.13 145.943 495.651 154.716 495.651 160.01C495.651 165.304 495.328 170.22 494.682 174.758C494.036 179.295 494.036 189.581 494.682 205.615C495.328 221.648 495.729 239.875 495.891 260.295C496.052 280.716 496.615 291.985 497.583 294.102C498.068 295.161 498.552 296.22 499.036 297.279C499.604 296.447 500.167 295.615 500.729 294.783C501.859 293.119 502.589 288.203 502.911 280.035C503.234 271.867 503.396 261.279 503.396 248.27C503.396 235.262 503.073 222.556 502.427 210.153C501.781 197.749 501.698 187.312 502.182 178.842C502.667 170.371 502.828 159.556 502.667 146.396C502.505 133.236 502.589 124.01 502.911 118.716C503.234 113.421 503.151 107.749 502.667 101.699C502.182 95.6484 501.698 91.4129 501.214 88.9926C500.729 86.5728 500.328 85.3624 500.005 85.3624C499.682 85.3624 499.281 88.9926 498.797 96.2536Z" fill="black"/>
<g id="right-content">
<path id="Vector_15" fillRule="evenodd" clipRule="evenodd" d="M592.469 106.917C577.948 107.673 562.615 108.203 546.479 108.506C530.344 108.808 521.708 108.732 520.578 108.279C520.016 108.052 519.448 107.825 518.885 107.598C518.885 107.749 518.885 107.901 518.885 108.052C518.885 108.354 519.37 108.732 520.339 109.186C521.307 109.64 523.245 110.018 526.146 110.321C529.052 110.623 536.396 110.926 548.172 111.228C559.953 111.531 575.443 111.002 594.646 109.64C613.849 108.279 623.776 107.522 624.422 107.371C624.745 107.295 625.068 107.22 625.385 107.144C625.307 106.917 625.224 106.691 625.146 106.464C624.984 106.01 623.13 105.783 619.578 105.783C616.026 105.783 606.99 106.161 592.469 106.917Z" fill="black"/>
<path id="Vector_16" fillRule="evenodd" clipRule="evenodd" d="M530.99 119.396C520.661 119.699 515.495 120.001 515.495 120.304C515.495 120.606 516.87 120.909 519.609 121.211C522.354 121.514 528.406 121.665 537.766 121.665C547.125 121.665 554.146 121.438 558.823 120.984C563.505 120.531 565.844 120.077 565.844 119.623C565.844 119.396 565.844 119.169 565.844 118.943C562.615 118.943 559.391 118.943 556.161 118.943C549.708 118.943 541.318 119.094 530.99 119.396Z" fill="black"/>
<path id="Vector_17" fillRule="evenodd" clipRule="evenodd" d="M625.385 139.136C617.641 139.59 607.797 139.817 595.859 139.817C583.917 139.817 568.667 140.119 550.109 140.724C531.552 141.329 520.5 141.707 516.948 141.858C513.401 142.01 511.625 142.312 511.625 142.766C511.625 143.22 516.385 143.673 525.906 144.128C535.427 144.581 553.417 144.581 579.88 144.128C606.349 143.673 624.422 142.993 634.104 142.085C643.781 141.178 648.865 140.573 649.349 140.27C649.833 139.968 649.995 139.59 649.833 139.136C649.672 138.682 647.495 138.455 643.302 138.455C639.104 138.455 633.135 138.682 625.385 139.136Z" fill="black"/>
<path id="Vector_18" fillRule="evenodd" clipRule="evenodd" d="M552.287 156.153C547.448 156.758 542.526 157.06 537.521 157.06C532.521 157.06 529.859 157.211 529.537 157.514C529.375 157.665 529.214 157.817 529.052 157.968C533.974 157.968 538.896 157.968 543.818 157.968C553.662 157.968 560.677 157.665 564.875 157.06C566.974 156.758 569.073 156.455 571.167 156.153C571.089 156.002 571.005 155.85 570.927 155.699C570.766 155.396 568.828 155.245 565.12 155.245C561.406 155.245 557.13 155.547 552.287 156.153Z" fill="black"/>
<path id="Vector_19" fillRule="evenodd" clipRule="evenodd" d="M613.042 171.354C610.302 171.506 608.604 171.732 607.958 172.035C607.635 172.186 607.313 172.337 606.99 172.489C607.151 172.716 607.313 172.943 607.474 173.169C607.797 173.623 611.271 173.925 617.885 174.077C624.5 174.228 628.052 174.153 628.536 173.85C629.021 173.547 629.26 173.169 629.26 172.716C629.26 172.262 629.021 171.884 628.536 171.581C628.052 171.279 626.031 171.128 622.484 171.128C618.932 171.128 615.786 171.203 613.042 171.354Z" fill="black"/>
<path id="Vector_20" fillRule="evenodd" clipRule="evenodd" d="M567.536 173.169C557.37 173.321 548.901 173.925 542.125 174.984C538.734 175.514 535.344 176.043 531.958 176.573C532.682 176.648 533.406 176.724 534.135 176.799C535.588 176.951 538.896 176.648 544.057 175.892C549.224 175.136 559.391 174.909 574.557 175.211C589.724 175.514 597.474 175.589 597.792 175.438C598.115 175.287 598.198 174.909 598.036 174.304C597.875 173.699 595.292 173.321 590.292 173.169C585.286 173.018 577.703 173.018 567.536 173.169Z" fill="black"/>
<path id="Vector_21" fillRule="evenodd" clipRule="evenodd" d="M554.708 188.371C548.255 188.976 542.927 189.657 538.734 190.413C534.536 191.169 532.443 191.699 532.443 192.002C532.443 192.153 532.443 192.304 532.443 192.455C535.104 192.228 537.766 192.002 540.427 191.774C545.755 191.321 557.693 191.245 576.25 191.547C594.807 191.85 606.266 191.699 610.625 191.094C612.802 190.791 614.979 190.488 617.156 190.186C612.156 189.732 607.151 189.279 602.151 188.825C592.146 187.917 583.354 187.464 575.766 187.464C568.182 187.464 561.161 187.766 554.708 188.371Z" fill="black"/>
<path id="Vector_22" fillRule="evenodd" clipRule="evenodd" d="M529.292 217.867C526.469 218.018 523.646 218.169 520.823 218.321C521.63 218.547 522.438 218.774 523.245 219.001C524.854 219.455 527.922 219.833 532.443 220.136C536.958 220.438 549.302 220.665 569.474 220.817C589.646 220.968 605.542 220.892 617.156 220.59C628.776 220.287 634.583 219.984 634.583 219.682C634.583 219.38 634.182 219.153 633.375 219.001C632.568 218.85 624.906 218.547 610.38 218.094C595.859 217.64 580.125 217.413 563.182 217.413C546.24 217.413 534.943 217.565 529.292 217.867Z" fill="black"/>
<path id="Vector_23" fillRule="evenodd" clipRule="evenodd" d="M550.594 231.027C543.979 231.632 540.427 232.085 539.943 232.388C539.703 232.539 539.458 232.691 539.219 232.842C540.995 233.069 542.766 233.295 544.542 233.522C548.094 233.976 552.286 234.052 557.13 233.749C561.969 233.447 564.635 233.144 565.12 232.842C565.599 232.539 565.682 232.085 565.359 231.48C565.036 230.876 564.151 230.497 562.698 230.346C561.245 230.195 557.208 230.421 550.594 231.027Z" fill="black"/>
<path id="Vector_24" fillRule="evenodd" clipRule="evenodd" d="M562.453 244.413C555.031 244.867 548.172 245.623 541.88 246.682C535.589 247.741 530.505 248.346 526.63 248.497C522.76 248.648 520.5 249.934 519.854 252.354C519.208 254.774 518.885 259.691 518.885 267.102C518.885 274.514 519.047 278.674 519.37 279.581C519.693 280.489 520.177 281.17 520.823 281.623C521.469 282.077 533.651 282.077 557.37 281.623C581.094 281.17 597.63 281.245 606.99 281.85C616.349 282.455 622.969 282.682 626.839 282.531C630.714 282.38 633.052 282.455 633.859 282.758C634.667 283.06 635.313 282.985 635.797 282.531C636.281 282.077 637.089 281.85 638.219 281.85C639.344 281.85 640.719 281.548 642.333 280.943C643.943 280.338 644.672 279.581 644.51 278.674C644.349 277.766 643.464 277.161 641.849 276.859C641.042 276.707 640.234 276.556 639.427 276.405C639.589 275.876 639.75 275.346 639.912 274.817C640.234 273.758 640.396 271.413 640.396 267.783C640.396 264.153 640.151 260.447 639.667 256.665C639.182 252.884 638.542 250.01 637.734 248.043C636.927 246.077 634.344 244.867 629.984 244.413C625.63 243.959 615.141 243.732 598.521 243.732C581.901 243.732 569.875 243.959 562.453 244.413Z" fill="black"/>
</g>
<path id="Vector_25" fillRule="evenodd" clipRule="evenodd" d="M543.333 291.607C528.969 292.06 519.771 292.665 515.74 293.422C511.703 294.178 508.88 294.934 507.266 295.691C505.651 296.447 504.042 296.9 502.427 297.052C501.62 297.128 500.813 297.203 500.005 297.279C500.089 297.43 500.167 297.581 500.25 297.733C500.411 298.035 502.505 297.884 506.542 297.279C510.573 296.674 515.333 296.296 520.823 296.144C526.307 295.993 539.943 296.069 561.729 296.371C583.516 296.674 600.135 297.203 611.589 297.959C623.047 298.716 631.682 299.094 637.49 299.094C643.302 299.094 648.224 298.943 652.255 298.64C656.292 298.337 658.708 297.808 659.516 297.052C660.323 296.296 660.729 295.766 660.729 295.464C660.729 295.161 660.245 294.783 659.276 294.329C658.307 293.876 653.063 293.573 643.542 293.422C634.021 293.27 623.776 292.817 612.802 292.06C601.828 291.304 591.099 290.926 580.609 290.926C570.12 290.926 557.693 291.153 543.333 291.607Z" fill="black"/>
</g>
<g id="bottom-center">
<g id="bottom-center-content">
<path id="Vector_26" fillRule="evenodd" clipRule="evenodd" d="M335.169 230.119C332.103 230.724 329.359 231.783 326.939 233.295C324.519 234.808 323.147 235.867 322.824 236.472C322.502 237.077 322.502 237.833 322.824 238.741C323.147 239.648 322.502 241.388 320.888 243.959C319.274 246.531 317.983 249.556 317.015 253.035C316.047 256.514 315.482 260.295 315.321 264.38C315.159 268.464 315.482 271.413 316.289 273.228C317.096 275.043 318.467 276.783 320.404 278.447C322.34 280.111 324.599 281.396 327.181 282.304C329.763 283.211 333.636 283.665 338.799 283.665C343.964 283.665 348.482 282.909 352.355 281.396C356.227 279.884 359.697 277.766 362.763 275.043C365.829 272.321 368.007 269.901 369.298 267.783C370.589 265.665 371.474 263.775 371.958 262.111C372.443 260.447 372.526 257.119 372.203 252.128C371.88 247.136 371.318 243.884 370.51 242.371C369.702 240.858 368.491 239.195 366.878 237.38C365.264 235.565 363.569 234.128 361.794 233.069C360.019 232.01 358.164 231.178 356.227 230.573C354.291 229.968 351.064 229.59 346.545 229.439C342.027 229.287 338.235 229.514 335.169 230.119Z" fill="black"/>
<path id="Vector_27" fillRule="evenodd" clipRule="evenodd" d="M411.172 231.48C404.88 232.085 399.474 233.069 394.953 234.43C390.437 235.791 387.208 236.547 385.271 236.699C383.339 236.85 382.286 237.077 382.125 237.38C382.047 237.531 381.964 237.682 381.885 237.833C394.229 237.304 406.573 236.774 418.917 236.245C443.609 235.186 456.599 234.506 457.891 234.203C459.177 233.9 459.823 233.522 459.823 233.069C459.823 232.615 458.776 232.161 456.677 231.707C454.578 231.254 448.047 230.951 437.073 230.799C426.099 230.648 417.469 230.875 411.172 231.48Z" fill="black"/>
<path id="Vector_28" fillRule="evenodd" clipRule="evenodd" d="M410.932 244.187C396.729 245.699 389.307 246.531 388.661 246.682C388.016 246.833 387.693 247.06 387.693 247.363C387.693 247.665 388.661 247.968 390.599 248.27C392.536 248.573 397.214 248.724 404.635 248.724C412.062 248.724 418.755 248.421 424.729 247.817C430.698 247.212 436.427 246.909 441.911 246.909C447.401 246.909 450.948 246.606 452.563 246.002C454.177 245.396 454.984 244.791 454.984 244.187C454.984 243.581 454.578 243.052 453.776 242.598C452.969 242.144 449.177 241.917 442.396 241.917C435.62 241.917 425.13 242.674 410.932 244.187Z" fill="black"/>
<path id="Vector_29" fillRule="evenodd" clipRule="evenodd" d="M414.562 263.245C400.198 264.153 392.615 264.682 391.807 264.833C391 264.985 390.599 265.211 390.599 265.514C390.599 265.817 395.922 266.119 406.573 266.422C417.224 266.724 427.714 266.648 438.042 266.195C448.37 265.741 454.099 265.287 455.224 264.833C455.792 264.606 456.354 264.38 456.922 264.153C456.599 263.85 456.276 263.548 455.953 263.245C455.307 262.64 451.839 262.262 445.542 262.111C439.25 261.959 428.922 262.337 414.562 263.245Z" fill="black"/>
<path id="Vector_30" fillRule="evenodd" clipRule="evenodd" d="M408.51 270.959C402.703 271.867 399.797 272.472 399.797 272.774C399.797 272.926 399.797 273.077 399.797 273.228C402.219 272.926 404.635 272.623 407.057 272.321C411.901 271.716 417.385 271.413 423.516 271.413C429.651 271.413 432.797 271.186 432.958 270.732C433.12 270.279 433.036 269.976 432.714 269.825C432.391 269.674 429.729 269.598 424.729 269.598C419.724 269.598 414.318 270.052 408.51 270.959Z" fill="black"/>
<path id="Vector_31" fillRule="evenodd" clipRule="evenodd" d="M400.766 277.313C393.021 278.22 389.068 278.901 388.906 279.354C388.823 279.581 388.745 279.808 388.661 280.035C395.036 280.035 401.411 280.035 407.786 280.035C420.531 280.035 430.536 280.413 437.797 281.17C445.063 281.926 449.74 282.304 451.839 282.304C453.938 282.304 455.547 282.077 456.677 281.623C457.807 281.17 458.375 280.565 458.375 279.808C458.375 279.052 457.891 278.447 456.922 277.993C455.953 277.539 454.016 277.313 451.109 277.313C448.208 277.313 445.542 277.085 443.125 276.632C440.703 276.178 434.974 275.951 425.938 275.951C416.901 275.951 408.51 276.405 400.766 277.313Z" fill="black"/>
</g>
<path id="Vector_32" fillRule="evenodd" clipRule="evenodd" d="M337.105 293.422C324.68 293.876 316.692 294.405 313.142 295.01C311.367 295.313 309.592 295.615 307.817 295.917C314.998 295.993 322.179 296.069 329.359 296.144C343.721 296.296 357.76 296.75 371.474 297.506C385.193 298.262 401.49 298.64 420.37 298.64C439.25 298.64 452 298.338 458.615 297.733C461.922 297.43 465.229 297.128 468.536 296.825C468.458 296.371 468.375 295.917 468.297 295.464C468.135 294.556 466.443 293.951 463.213 293.648C459.984 293.346 441.266 293.119 407.057 292.968C372.849 292.817 349.531 292.968 337.105 293.422Z" fill="black"/>
<path id="Vector_33" fillRule="evenodd" clipRule="evenodd" d="M425.698 209.018C411.333 210.077 395.599 210.682 378.495 210.833C361.391 210.984 347.352 210.833 336.379 210.38C325.406 209.926 317.096 210.002 311.448 210.606C305.8 211.211 302.895 211.741 302.734 212.195C302.653 212.421 302.572 212.648 302.492 212.876C302.734 212.876 302.976 212.876 303.218 212.876C303.46 212.876 303.702 212.876 303.944 212.876C303.944 213.027 303.944 213.178 303.944 213.329C303.944 213.632 303.702 215.522 303.218 219.002C302.734 222.48 302.089 232.161 301.282 248.043C300.475 263.926 300.071 276.254 300.071 285.027C300.071 293.8 300.314 299.321 300.797 301.59C301.282 303.859 302.008 305.144 302.976 305.447C303.944 305.749 304.751 305.22 305.396 303.859C306.042 302.497 306.688 291.002 307.333 269.371C307.979 247.741 308.059 233.295 307.575 226.035C307.091 218.774 306.687 214.766 306.365 214.01C306.204 213.632 306.042 213.254 305.881 212.876C313.061 213.254 320.242 213.632 327.423 214.01C341.785 214.766 357.599 215.22 374.865 215.371C392.13 215.522 412.385 214.691 435.62 212.876C447.24 211.968 458.859 211.06 470.474 210.153C470.234 214.236 469.99 218.321 469.75 222.405C469.266 230.573 469.021 242.522 469.021 258.254C469.021 273.985 469.344 283.439 469.99 286.615C470.635 289.791 471.281 291.833 471.927 292.741C472.573 293.648 473.297 294.102 474.104 294.102C474.51 294.102 474.911 294.102 475.318 294.102C475.234 283.741 475.156 273.38 475.073 263.018C474.911 242.295 474.51 228.002 473.865 220.136C473.219 212.27 468.62 208.186 460.068 207.884C451.516 207.581 440.057 207.959 425.698 209.018Z" fill="black"/>
</g>
<g id="left">
<path id="Vector_34" fillRule="evenodd" clipRule="evenodd" d="M248.515 85.3624C230.926 86.2703 207.205 86.5729 177.352 86.2703C147.498 85.9676 128.134 86.4213 119.259 87.6317C110.384 88.8416 105.14 89.2953 103.526 88.9927C102.719 88.8416 101.912 88.69 101.106 88.539C101.106 88.69 101.106 88.8416 101.106 88.9927C101.106 89.2953 102.155 89.6734 104.252 90.127C106.35 90.5812 109.819 90.6567 114.66 90.3541C119.502 90.0515 130.636 89.9005 148.064 89.9005C165.491 89.9005 184.048 90.127 203.735 90.5812C223.422 91.0348 241.092 90.8078 256.744 89.9005C264.571 89.4468 272.397 88.9927 280.223 88.539C280.062 89.2197 279.901 89.9005 279.739 90.5812C279.417 91.9427 279.094 97.7661 278.771 108.052C278.448 118.337 277.641 129.833 276.351 142.539C275.059 155.245 274.495 183.606 274.656 227.623C274.818 271.64 275.059 295.01 275.382 297.733C275.705 300.455 276.351 302.044 277.319 302.497C278.287 302.951 279.094 302.951 279.739 302.497C280.385 302.044 280.949 300.38 281.433 297.506C281.918 294.632 282.241 271.716 282.402 228.758C282.563 185.799 283.047 158.573 283.854 147.077C284.661 135.581 285.064 126.279 285.064 119.169C285.064 112.06 284.903 104.648 284.58 96.9338C284.257 89.2197 282.563 85.1359 279.497 84.6817C276.431 84.2281 266.104 84.4552 248.515 85.3624Z" fill="black"/>
<path id="Vector_35" fillRule="evenodd" clipRule="evenodd" d="M103.768 93.3036C103.284 94.0598 102.961 95.1187 102.8 96.4801C102.638 97.8416 102.396 102.304 102.074 109.867C101.751 117.43 101.59 125.598 101.59 134.371C101.59 143.144 101.912 154.035 102.558 167.043C103.203 180.051 103.445 202.817 103.284 235.337C103.123 267.859 103.203 285.405 103.526 287.976C103.687 289.262 103.849 290.548 104.01 291.833C104.252 291.758 104.494 291.682 104.736 291.607C105.22 291.455 106.027 288.959 107.157 284.119C108.286 279.279 109.578 271.413 111.03 260.522C112.482 249.632 113.208 238.211 113.208 226.262C113.208 214.312 112.482 196.917 111.03 174.077C109.578 151.236 108.69 133.691 108.367 121.438C108.044 109.186 107.722 101.472 107.399 98.2952C107.076 95.1187 106.511 93.3036 105.705 92.8499C105.301 92.6228 104.898 92.3963 104.494 92.1692C104.252 92.5473 104.01 92.9254 103.768 93.3036Z" fill="black"/>
<g id="left-content">
<path id="Vector_36" fillRule="evenodd" clipRule="evenodd" d="M205.671 100.791C194.053 101.094 183.08 101.623 172.753 102.38C162.425 103.136 154.921 103.892 150.242 104.648C147.902 105.027 145.562 105.405 143.222 105.783C143.384 105.934 143.545 106.085 143.707 106.236C144.029 106.539 144.11 106.917 143.948 107.371C143.868 107.598 143.787 107.825 143.707 108.052C143.465 107.598 143.222 107.144 142.98 106.691C142.496 105.783 142.012 105.405 141.528 105.556C141.044 105.707 140.56 111.002 140.076 121.439C139.592 131.876 139.43 143.447 139.592 156.153C139.753 168.858 139.995 175.968 140.318 177.48C140.641 178.993 141.205 180.203 142.012 181.11C142.416 181.565 142.819 182.018 143.222 182.472C142.658 182.623 142.093 182.774 141.528 182.926C140.398 183.228 139.834 183.531 139.834 183.833C139.834 183.984 139.834 184.136 139.834 184.287C155.729 184.363 171.623 184.439 187.518 184.514C219.307 184.665 235.928 184.439 237.38 183.833C238.833 183.228 239.72 171.279 240.043 147.984C240.366 124.691 240.285 111.758 239.8 109.186C239.317 106.615 239.317 105.254 239.8 105.102C240.285 104.951 240.608 104.573 240.769 103.968C240.93 103.363 240.527 102.758 239.559 102.153C238.591 101.547 235.605 101.094 230.603 100.791C225.6 100.489 217.29 100.489 205.671 100.791Z" fill="black"/>
<path id="Vector_37" fillRule="evenodd" clipRule="evenodd" d="M232.539 197.673C224.955 198.43 209.867 199.413 187.276 200.623C164.684 201.833 150.161 203.043 143.707 204.254C137.252 205.464 134.024 206.22 134.024 206.522C134.024 206.673 134.024 206.825 134.024 206.976C143.222 206.901 152.42 206.825 161.618 206.75C180.014 206.598 197.442 205.993 213.902 204.934C230.361 203.876 239.962 202.968 242.705 202.211C245.448 201.455 246.82 200.547 246.82 199.489C246.82 198.43 246.336 197.673 245.368 197.22C244.4 196.766 240.123 196.917 232.539 197.673Z" fill="black"/>
<path id="Vector_38" fillRule="evenodd" clipRule="evenodd" d="M195.99 212.421C179.207 213.027 168.154 213.632 162.829 214.236C157.504 214.842 153.066 215.144 149.516 215.144C147.741 215.144 145.966 215.144 144.191 215.144C144.191 215.295 144.191 215.447 144.191 215.598C144.191 215.9 149.758 216.43 160.892 217.186C172.027 217.943 184.048 218.094 196.958 217.64C209.867 217.186 218.42 216.657 222.615 216.052C226.811 215.447 229.634 214.842 231.087 214.236C232.539 213.632 233.266 213.102 233.266 212.648C233.266 212.195 232.943 211.892 232.297 211.741C231.652 211.59 229.634 211.514 226.246 211.514C222.857 211.514 212.772 211.817 195.99 212.421Z" fill="black"/>
<path id="Vector_39" fillRule="evenodd" clipRule="evenodd" d="M159.682 226.035C150.968 227.245 145.482 227.774 143.222 227.623C142.093 227.547 140.964 227.472 139.834 227.396C139.834 227.547 139.834 227.699 139.834 227.85C139.834 228.153 140.883 228.455 142.98 228.758C145.078 229.06 154.76 229.136 172.027 228.984C189.293 228.833 200.427 229.06 205.43 229.665C210.432 230.27 215.515 230.573 220.679 230.573C225.843 230.573 228.667 230.346 229.15 229.892C229.634 229.438 229.877 228.984 229.877 228.531C229.877 228.077 229.554 227.623 228.908 227.169C228.263 226.716 221.97 226.11 210.029 225.354C198.087 224.598 188.89 224.22 182.435 224.22C175.98 224.22 168.396 224.825 159.682 226.035Z" fill="black"/>
<path id="Vector_40" fillRule="evenodd" clipRule="evenodd" d="M154.599 243.279C150.484 243.581 146.369 243.884 142.254 244.186C142.739 244.413 143.222 244.64 143.707 244.867C144.675 245.321 150.968 245.85 162.586 246.455C174.205 247.06 181.547 247.363 184.613 247.363C187.679 247.363 189.858 247.136 191.148 246.682C192.44 246.228 193.085 245.699 193.085 245.094C193.085 244.489 192.601 243.959 191.633 243.506C190.665 243.052 186.307 242.749 178.562 242.598C170.816 242.447 162.829 242.674 154.599 243.279Z" fill="black"/>
<path id="Vector_41" fillRule="evenodd" clipRule="evenodd" d="M209.544 268.917C188.567 269.069 172.43 269.522 161.134 270.279C149.839 271.035 143.707 271.489 142.739 271.64C141.77 271.791 141.286 272.094 141.286 272.548C141.286 273.001 143.465 273.455 147.821 273.909C152.178 274.363 168.073 274.59 195.505 274.59C222.938 274.59 238.026 274.136 240.769 273.228C243.512 272.321 244.884 271.413 244.884 270.506C244.884 269.598 244.239 269.069 242.947 268.917C241.656 268.766 230.522 268.766 209.544 268.917Z" fill="black"/>
<path id="Vector_42" fillRule="evenodd" clipRule="evenodd" d="M159.682 279.354C150.645 279.808 146.127 280.262 146.127 280.716C146.127 281.17 150.968 281.548 160.65 281.85C170.332 282.153 175.577 282.228 176.383 282.077C177.19 281.926 177.755 281.548 178.078 280.943C178.4 280.338 178.239 279.808 177.594 279.354C176.948 278.901 176.061 278.674 174.931 278.674C173.802 278.674 168.718 278.901 159.682 279.354Z" fill="black"/>
</g>
<path id="Vector_43" fillRule="evenodd" clipRule="evenodd" d="M148.79 293.422C137.332 293.876 127.408 294.556 119.017 295.464C110.626 296.371 106.027 296.674 105.22 296.371C104.817 296.22 104.414 296.069 104.01 295.917C104.494 296.371 104.979 296.825 105.462 297.279C106.431 298.186 110.626 299.018 118.049 299.774C125.472 300.531 147.579 301.136 184.371 301.59C221.163 302.044 245.126 301.817 256.26 300.909C267.395 300.002 273.123 299.321 273.446 298.867C273.769 298.413 273.769 297.657 273.446 296.598C273.123 295.539 269.896 294.707 263.764 294.102C257.632 293.497 244.319 293.27 223.826 293.422C203.332 293.573 188.567 293.497 179.53 293.195C170.494 292.892 160.247 292.968 148.79 293.422Z" fill="black"/>
</g>
</g>
</svg>
