<svg width="783" height="521" viewBox="0 0 783 521" fill="none" xmlns="http://www.w3.org/2000/svg">
<g id="front-end">
<g id="desk">
<path id="Vector" fill-rule="evenodd" clip-rule="evenodd" d="M781.971 479.203C782.474 474.593 779.567 470.191 777.696 465.92C776.756 463.769 775.228 461.868 773.619 460.122C767.512 453.497 761.378 446.848 754.597 440.863C749.066 435.986 742.623 431.995 735.869 428.863C727.928 425.182 719.929 421.592 711.748 418.438C691.208 410.523 668.862 404.687 647.307 400.09C634.381 397.334 621.391 394.868 608.38 392.52C510.338 374.831 411.074 370.335 311.559 375.552C264.222 378.033 217.327 381.162 170.745 389.953C121.247 399.295 71.4899 414.127 30.5368 443.364C26.1233 446.515 22.0692 450.123 18.1048 453.785C10.9468 460.4 2.39843 469.318 0.44381 479.222C-2.10713 492.148 6.7421 500.412 16.6542 507.273C19.9483 509.553 25.995 512.876 29.8498 513.9C35.767 515.473 41.7821 516.801 47.8698 517.558C61.4331 519.25 75.4023 518.051 88.9703 517.151C121.573 514.995 153.714 509.064 186.268 506.187C211.417 503.971 236.665 502.632 261.857 500.964C311.629 497.668 360.536 496.525 410.256 501.284C419.506 502.17 428.776 502.962 437.973 504.305C452.886 506.476 467.297 510.196 482.115 512.742C491.926 514.424 505.433 516.107 514.848 517.084C536.062 519.286 557.553 519.626 578.874 520.011C606.002 520.5 633.056 520.505 660.131 518.715C694.97 516.405 731.877 514.07 762.687 496.367C765.824 494.564 769.137 492.904 771.777 490.47C773.572 488.813 774.063 486.166 775.693 484.361C777.499 482.364 781.683 481.837 781.971 479.203Z" fill="black"/>
<path id="Vector_2" fill-rule="evenodd" clip-rule="evenodd" d="M765.631 466.049C764.739 464.144 757.975 458.704 756.436 457.164C750.595 451.314 744.738 445.442 738.241 440.165C732.951 435.863 726.774 432.353 720.287 429.606C712.673 426.379 704.994 423.232 697.14 420.474C677.428 413.552 655.958 408.483 635.247 404.51C622.828 402.128 581.284 395.466 568.78 393.447C474.554 378.233 385.872 374 290.11 379.124C244.559 381.561 139.81 401.349 100.825 416.659C49.528 431.476 32.8427 453.394 29.0093 456.665C22.088 462.571 12.9887 470.584 11.0555 479.384C8.5323 490.869 26.2173 498.671 35.7159 504.711C38.8733 506.718 36.9491 507.685 40.6527 508.58C46.3365 509.943 52.1154 511.095 57.968 511.738C71.0064 513.169 89.8575 509.161 102.915 508.297C134.29 506.219 159.835 503.672 191.167 500.958C215.372 498.863 242.784 493.83 267.026 492.225C314.924 489.052 358.863 491.518 406.666 495.495C415.562 496.236 424.476 496.892 433.313 498.037C447.65 499.894 461.49 503.121 475.73 505.308C485.161 506.753 498.15 508.179 507.197 508.996C527.598 510.848 548.266 511.044 568.78 511.281C594.871 511.584 620.894 511.451 646.949 509.727C680.479 507.505 715.382 514.018 745.113 498.152C748.142 496.537 755.901 492.916 758.45 490.743C760.187 489.264 770.248 482.841 768.709 475.926C768.709 475.926 767.41 469.831 765.631 466.049Z" fill="white"/>
</g>
<path id="screen-bg" fill-rule="evenodd" clip-rule="evenodd" d="M90.8346 5.99225H702.809C702.916 5.99225 703.006 6.07169 703.006 6.16974V310.787C703.006 310.885 702.916 310.964 702.809 310.964H90.8346C90.7261 310.964 90.6379 310.885 90.6379 310.787V6.16974C90.6379 6.07169 90.7261 5.99225 90.8346 5.99225Z" fill="white"/>
<path id="laptop" fill-rule="evenodd" clip-rule="evenodd" d="M490.872 0.0448202C472 0.194222 445.844 0.866582 412.404 2.06191C378.96 3.25722 350.568 3.85483 327.226 3.85483C303.883 3.85483 289.728 4.00428 284.762 4.30309C279.795 4.60189 264.647 4.6766 239.318 4.5272C213.988 4.37779 195.694 3.92953 184.436 3.18247C173.179 2.43541 158.859 1.9872 141.475 1.8378C124.093 1.68835 111.096 1.76304 102.488 2.06191C93.8793 2.36071 89.3267 2.36071 88.8302 2.06191C88.5818 1.91251 88.3333 1.76304 88.0849 1.61364C87.5057 5.19955 86.9264 8.78547 86.3467 12.3714C85.1882 19.5432 84.3599 28.0597 83.8636 37.9209C83.3666 47.782 83.1187 61.9016 83.1187 80.2796C83.1187 98.6578 83.5323 113.897 84.3599 126C85.1882 138.102 85.1882 150.877 84.3599 164.324C83.5323 177.771 83.1187 205.562 83.1187 247.696C83.1187 289.83 83.2843 311.271 83.6151 312.019C83.9464 312.766 84.6084 313.438 85.6017 314.036C86.5951 314.633 87.6712 314.783 88.8302 314.483C89.9887 314.185 90.817 313.139 91.3133 311.346C91.8103 309.553 92.0582 291.325 92.0582 256.661C92.0582 221.997 91.8103 201.901 91.3133 196.373C90.817 190.845 90.817 180.834 91.3133 166.341C91.8103 151.848 91.7275 137.878 91.0648 124.431C90.4028 110.983 90.1543 88.8706 90.32 58.0915C90.4857 27.3126 90.4028 10.9519 90.0715 9.00956C89.7408 7.06724 89.5752 5.79722 89.5752 5.19955C89.5752 4.90075 89.5752 4.60189 89.5752 4.30309C89.7408 4.30309 89.9064 4.30309 90.0715 4.30309C90.4028 4.30309 90.8992 4.5272 91.5618 4.97545C92.2238 5.42366 94.2106 5.79722 97.5214 6.09602C100.833 6.39488 113 6.69368 134.026 6.99253C155.052 7.29134 174.503 7.88899 192.383 8.78546C210.262 9.68196 246.602 10.1302 301.399 10.1302C356.198 10.1302 399.82 9.90609 432.272 9.45783C464.717 9.00956 492.78 8.86016 516.452 9.00956C540.128 9.15902 570.254 9.98076 606.846 11.4749C643.433 12.969 667.023 13.6414 677.619 13.492C688.21 13.3426 695.082 13.0438 698.229 12.5955C699.8 12.3714 701.377 12.1473 702.947 11.9231C702.531 20.0661 702.119 28.2091 701.708 36.3521C700.879 52.6381 699.303 74.1537 696.99 100.898C694.67 127.643 693.511 149.009 693.511 164.996C693.511 180.984 694.339 208.625 695.996 247.921C697.646 287.216 695.248 307.162 688.793 307.761C682.337 308.358 669.423 308.807 650.053 309.105C630.683 309.404 604.276 308.732 570.837 307.088C537.392 305.444 508.671 304.622 484.663 304.622C460.661 304.622 423.16 305.893 372.173 308.432C321.182 310.973 270.11 312.541 218.954 313.139C167.799 313.737 138.083 314.259 129.804 314.708C121.527 315.156 115.319 315.679 111.179 316.277C107.041 316.875 103.15 317.098 99.508 316.949C97.6869 316.875 95.8659 316.8 94.0449 316.725C94.0449 316.875 94.0449 317.024 94.0449 317.173C94.0449 317.471 94.7069 317.771 96.0316 318.07C97.3562 318.368 103.067 318.368 113.167 318.07C123.265 317.771 150.333 317.92 194.369 318.517C238.407 319.115 275.573 318.891 305.869 317.846C321.018 317.322 336.166 316.8 351.314 316.277C349.492 326.736 347.671 337.194 345.85 347.653C342.208 368.571 339.973 382.467 339.145 389.34C338.317 396.213 337.987 400.62 338.152 402.563C338.234 403.533 338.318 404.505 338.401 405.476C337.573 405.476 336.745 405.476 335.917 405.476C334.262 405.476 333.351 405.7 333.186 406.149C333.103 406.372 333.02 406.597 332.937 406.821C335.09 407.344 337.241 407.866 339.394 408.39C343.699 409.435 352.059 410.854 364.475 412.648C376.892 414.441 390.385 415.487 404.95 415.785C419.522 416.085 430.45 415.711 437.733 414.665C445.016 413.619 450.064 412.499 452.881 411.303C455.697 410.108 457.268 409.286 457.599 408.837C457.93 408.39 458.01 407.568 457.845 406.372C457.679 405.178 457.016 404.43 455.862 404.132C454.703 403.832 454.206 400.247 454.371 393.374C454.538 386.501 454.371 379.403 453.875 372.082C453.378 364.761 452.549 357.141 451.39 349.223C450.231 341.303 448.905 334.58 447.414 329.051C445.929 323.523 445.266 320.087 445.432 318.742C445.598 317.397 445.266 315.978 444.438 314.483C444.022 313.737 443.61 312.99 443.193 312.243C455.697 312.168 468.195 312.093 480.694 312.019C505.69 311.869 529.864 312.168 553.204 312.915C576.549 313.663 603.367 314.11 633.665 314.259C663.962 314.409 682.337 313.961 688.793 312.915C695.248 311.869 698.892 311.72 699.72 312.466C700.131 312.84 700.548 313.213 700.959 313.587C701.211 313.363 701.457 313.139 701.708 312.915C702.205 312.466 702.451 311.869 702.451 311.122C702.451 310.375 702.947 309.852 703.942 309.553C704.935 309.254 705.432 308.807 705.432 308.208C705.432 307.61 705.101 307.237 704.438 307.088C703.775 306.939 703.855 298.646 704.684 282.211C705.512 265.775 705.597 233.054 704.935 184.047C704.273 135.039 704.604 100.076 705.929 79.159C707.249 58.2411 707.581 41.7308 706.923 29.6285C706.26 17.5261 707.169 11.1013 709.653 10.3542C712.133 9.60718 713.458 8.78546 713.623 7.88899C713.79 6.99253 712.961 6.32017 711.145 5.87191C709.322 5.42366 705.677 5.05015 700.217 4.75134C694.75 4.45249 686.308 4.30309 674.884 4.30309C663.465 4.30309 649.059 3.85483 631.677 2.95837C614.295 2.0619 591.2 1.31484 562.394 0.71718C533.588 0.119521 509.745 -0.104582 490.872 0.0448202Z" fill="black"/>
<g id="front-end_2">
<g id="Group">
<path id="Vector_3" fill-rule="evenodd" clip-rule="evenodd" d="M249.996 18.6467C241.718 18.9455 222.514 19.0949 192.383 19.0949C162.253 19.0949 144.787 19.1696 139.986 19.319C135.185 19.4684 129.804 20.0661 123.845 21.112C117.885 22.1579 114.077 22.6808 112.422 22.6808C110.766 22.6808 109.855 22.382 109.69 21.7844C109.525 21.1867 109.11 20.8879 108.449 20.8879C107.786 20.8879 107.372 21.1867 107.206 21.7844C107.041 22.382 106.71 22.6808 106.213 22.6808C105.965 22.6808 105.716 22.6808 105.468 22.6808C105.634 22.8302 105.8 22.9796 105.965 23.129C106.296 23.4278 106.379 29.6286 106.213 41.7308C106.048 53.8332 105.883 61.2292 105.716 63.9188C105.551 66.608 105.22 67.9528 104.723 67.9528C104.475 67.9528 104.227 67.9528 103.979 67.9528C103.979 68.1025 103.979 68.2517 103.979 68.4009C103.979 68.6998 104.309 68.9241 104.972 69.0733C105.634 69.223 106.13 69.8203 106.461 70.8662C106.793 71.9122 107.289 72.3608 107.951 72.2111C108.614 72.0619 109.027 71.5387 109.193 70.6425C109.359 69.7458 110.435 69.2976 112.422 69.2976C114.408 69.2976 116.643 69.4469 119.126 69.7458C121.609 70.0447 144.87 70.4927 188.907 71.0905C232.944 71.6883 282.692 71.9867 338.152 71.9867C393.611 71.9867 445.764 72.4354 494.597 73.3316C543.436 74.2283 578.12 74.1537 598.65 73.1078C619.179 72.0619 636.893 71.3894 651.79 71.0905C666.693 70.7916 674.388 70.8662 674.884 71.3149C675.381 71.7629 675.963 71.9867 676.626 71.9867C677.289 71.9867 678.282 71.6883 679.602 71.0905C680.265 70.7916 680.928 70.4927 681.59 70.1938C681.344 70.0447 681.093 69.8954 680.847 69.7458C680.35 69.4469 680.265 64.6658 680.597 55.4023C680.928 46.1387 681.013 39.1162 680.847 34.335C680.682 29.5538 680.43 27.0138 680.099 26.715C679.768 26.4161 678.775 26.4909 677.123 26.9391C675.467 27.3874 673.479 27.462 671.16 27.1631C668.847 26.8643 657.005 26.4909 635.652 26.0426C614.295 25.5943 599.226 25.0714 590.453 24.4738C581.679 23.8761 543.356 23.3532 475.478 22.9049C407.601 22.4567 366.214 22.0084 351.314 21.5602C336.414 21.112 323.418 20.4396 312.327 19.5432C301.234 18.6467 290.142 18.1984 279.05 18.1984C267.958 18.1984 258.273 18.3479 249.996 18.6467Z" fill="#C9C9C9"/>
<path id="Vector_4" fill-rule="evenodd" clip-rule="evenodd" d="M122.354 23.5773C118.38 24.1749 115.401 24.399 113.415 24.2497C112.422 24.1749 111.428 24.1002 110.435 24.0256C110.518 30.1514 110.601 36.2774 110.683 42.4032C110.848 54.6553 110.766 61.9016 110.435 64.1427C110.269 65.2637 110.103 66.3841 109.938 67.5047C111.346 67.3549 112.752 67.2058 114.16 67.0566C116.974 66.7577 124.672 66.608 137.255 66.608C149.836 66.608 171.441 66.9069 202.068 67.5047C232.695 68.1025 278.553 68.4009 339.642 68.4009C400.729 68.4009 454.949 68.6998 502.297 69.2976C549.645 69.8954 581.347 69.7458 597.409 68.8496C613.466 67.9528 628.449 67.5047 642.354 67.5047C656.262 67.5047 664.871 67.6539 668.183 67.9528C669.834 68.1025 671.491 68.2517 673.147 68.4009C673.232 67.7285 673.313 67.0566 673.398 66.3841C673.564 65.0394 673.89 58.8385 674.386 47.7819C674.638 42.254 674.884 36.7256 675.135 31.1974C670.497 31.3468 665.864 31.4962 661.226 31.6456C651.955 31.9444 635.652 31.5708 612.307 30.525C588.962 29.4791 543.436 28.7321 475.724 28.2838C408.017 27.8355 366.544 27.3874 351.314 26.9391C336.083 26.4909 323.086 25.8185 312.326 24.922C301.565 24.0256 283.024 23.7268 256.7 24.0256C230.378 24.3244 202.399 24.1749 172.765 23.5773C143.131 22.9796 126.327 22.9796 122.354 23.5773Z" fill="white"/>
</g>
<g id="Group_2">
<path id="Vector_5" fill-rule="evenodd" clip-rule="evenodd" d="M483.178 82.5207C482.681 82.9687 481.602 83.0438 479.945 82.7449C478.294 82.446 473.907 82.5206 466.784 82.9687C459.667 83.4174 439.966 83.4174 407.686 82.9687C375.401 82.5206 351.728 82.9687 336.662 84.3136C321.597 85.6584 313.568 92.1577 312.574 103.812C311.581 115.466 311.002 127.121 310.836 138.775C310.671 150.429 310.836 159.916 311.332 167.238C311.829 174.559 312.327 178.967 312.822 180.461C313.32 181.955 313.981 182.776 314.809 182.927C315.637 183.076 316.217 183.001 316.547 182.701C316.879 182.403 317.21 177.174 317.54 167.013C317.872 156.853 318.038 146.096 318.038 134.741C318.038 123.385 317.707 112.776 317.045 102.915C316.713 97.9851 318.34 99.8008 318.008 94.8705C319.001 95.0202 320.942 91.6309 321.935 91.7806C323.923 92.0795 325.074 89.0199 331.199 89.0199C337.324 89.0199 344.112 88.7962 351.561 88.3475C359.012 87.8995 366.876 87.6756 375.153 87.6756C383.433 87.6756 391.544 87.8995 399.49 88.3475C407.435 88.7962 418.528 89.0199 432.763 89.0199C447.003 89.0199 458.673 88.4226 467.778 87.227C472.332 86.6297 476.884 86.0319 481.437 85.4341C480.774 93.8015 480.111 102.168 479.454 110.536C478.129 127.27 477.546 141.239 477.712 152.446C477.878 163.652 478.294 171.272 478.957 175.306C479.288 177.323 479.62 179.34 479.945 181.357C477.215 181.133 474.485 180.909 471.754 180.684C466.288 180.237 460.084 180.013 453.127 180.013C446.175 180.013 438.476 180.237 430.032 180.684C421.59 181.133 404.62 181.432 379.126 181.581C353.632 181.73 337.987 182.104 332.193 182.701C326.398 183.3 322.756 183.823 321.266 184.27C319.776 184.719 318.617 184.869 317.79 184.719C316.962 184.569 316.134 184.869 315.306 185.615C314.892 185.989 314.478 186.362 314.064 186.735C315.058 186.96 316.051 187.184 317.045 187.408C319.031 187.857 336.662 188.23 369.938 188.528C403.214 188.828 427.965 188.754 444.187 188.305C460.415 187.857 471.919 187.259 478.706 186.512C485.492 185.765 488.89 185.018 488.89 184.27C488.89 183.523 487.977 182.927 486.154 182.477C484.338 182.03 484.087 171.272 485.412 150.205C486.737 129.137 487.314 112.851 487.148 101.347C486.983 89.842 486.737 83.7909 486.405 83.1931C486.074 82.5953 485.577 82.2217 484.915 82.0725C484.252 81.9228 483.675 82.0725 483.178 82.5207Z" fill="#C9C9C9"/>
</g>
<g id="Group_3">
<path id="Vector_6" fill-rule="evenodd" clip-rule="evenodd" d="M621.744 84.0897C600.054 85.2848 586.482 86.181 581.016 86.7788C575.555 87.3766 565.953 87.7501 552.21 87.8994C538.472 88.049 528.785 87.8994 523.158 87.4512C517.531 87.0032 514.55 86.928 514.219 87.2269C514.052 87.3766 513.887 87.5258 513.721 87.6755C516.869 88.4972 520.011 89.3188 523.158 90.1408C529.448 91.7841 538.969 92.7554 551.713 93.0543C564.463 93.3532 583.586 92.83 609.08 91.4852C634.573 90.1408 652.041 88.7961 661.477 87.4512C666.196 86.7788 670.914 86.1064 675.632 85.434C675.381 90.2901 675.136 95.1461 674.884 100.001C674.388 109.714 674.141 124.954 674.141 145.722C674.141 166.49 673.89 186.512 673.399 205.786C672.902 225.06 673.399 242.467 674.884 258.006C676.375 273.545 677.203 281.986 677.369 283.331C677.534 284.676 677.786 285.349 678.117 285.349C678.282 285.349 678.448 285.349 678.608 285.349C678.528 281.911 678.448 278.475 678.363 275.039C678.197 268.165 678.608 260.994 679.602 253.523C680.597 246.053 680.847 219.83 680.35 174.857C679.854 129.885 679.191 103.737 678.363 96.4158C677.534 89.095 677.369 85.0605 677.866 84.3135C678.363 83.5665 678.363 83.0437 677.866 82.7448C677.369 82.4459 673.313 82.2963 665.699 82.2963C658.084 82.2963 643.433 82.8941 621.744 84.0897Z" fill="#C9C9C9"/>
<path id="Vector_7" fill-rule="evenodd" clip-rule="evenodd" d="M510.991 94.399C510.493 101.571 510.328 106.502 510.494 109.19C510.659 111.88 510.243 119.276 509.249 131.379C508.255 143.481 507.763 152.147 507.763 157.376C507.763 162.606 507.432 167.462 506.769 171.944C506.106 176.426 506.106 186.586 506.769 202.424C507.432 218.261 507.843 236.266 508.009 256.436C508.175 276.608 508.752 287.739 509.745 289.83C510.243 290.876 510.739 291.922 511.236 292.968C511.819 292.147 512.396 291.325 512.973 290.503C514.132 288.859 514.881 284.003 515.211 275.935C515.543 267.867 515.709 257.408 515.709 244.558C515.709 231.709 515.378 219.158 514.715 206.907C514.052 194.654 513.967 184.345 514.464 175.978C514.961 167.611 515.126 156.928 514.961 143.929C514.795 130.93 514.881 121.816 515.211 116.587C515.543 111.357 515.458 105.754 514.961 99.7779C514.464 93.8012 513.967 89.6175 513.47 87.2267C512.973 84.8365 512.561 83.6409 512.23 83.6409C511.899 83.6409 511.487 87.2267 510.991 94.399Z" fill="#C9C9C9"/>
<path id="Vector_8" fill-rule="evenodd" clip-rule="evenodd" d="M556.682 287.366C541.945 287.813 532.509 288.411 528.373 289.159C524.231 289.906 521.335 290.652 519.679 291.4C518.022 292.147 516.372 292.594 514.715 292.744C513.887 292.819 513.059 292.894 512.23 292.969C512.316 293.118 512.396 293.267 512.481 293.417C512.647 293.715 514.795 293.566 518.937 292.969C523.072 292.371 527.956 291.998 533.588 291.848C539.214 291.698 553.204 291.773 575.555 292.072C597.907 292.371 614.957 292.894 626.708 293.64C638.463 294.388 647.322 294.761 653.281 294.761C659.244 294.761 664.293 294.612 668.429 294.313C672.57 294.014 675.049 293.491 675.878 292.744C676.706 291.998 677.122 291.474 677.122 291.176C677.122 290.876 676.626 290.503 675.632 290.055C674.638 289.607 669.258 289.308 659.49 289.159C649.722 289.009 639.211 288.561 627.952 287.813C616.694 287.067 605.687 286.693 594.925 286.693C584.163 286.693 571.414 286.917 556.682 287.366Z" fill="#C9C9C9"/>
</g>
<g id="Group_4">
<path id="Vector_9" fill-rule="evenodd" clip-rule="evenodd" d="M345.105 289.159C332.358 289.607 324.163 290.13 320.521 290.727C318.7 291.027 316.879 291.325 315.058 291.623C322.425 291.698 329.792 291.773 337.158 291.847C351.893 291.998 366.296 292.446 380.366 293.193C394.44 293.94 411.16 294.313 430.53 294.313C449.899 294.313 462.98 294.015 469.767 293.417C473.159 293.118 476.552 292.819 479.945 292.52C479.865 292.072 479.78 291.623 479.7 291.176C479.534 290.279 477.798 289.681 474.484 289.382C471.171 289.084 451.968 288.859 416.872 288.71C381.776 288.561 357.854 288.71 345.105 289.159Z" fill="#C9C9C9"/>
<path id="Vector_10" fill-rule="evenodd" clip-rule="evenodd" d="M435.996 205.786C421.259 206.832 405.116 207.43 387.569 207.579C370.021 207.728 355.618 207.579 344.361 207.131C333.103 206.683 324.577 206.758 318.783 207.355C312.988 207.952 310.008 208.476 309.843 208.924C309.76 209.147 309.677 209.372 309.595 209.597C309.843 209.597 310.091 209.597 310.339 209.597C310.588 209.597 310.836 209.597 311.084 209.597C311.084 209.746 311.084 209.895 311.084 210.044C311.084 210.344 310.836 212.21 310.339 215.648C309.843 219.083 309.181 228.646 308.353 244.334C307.525 260.023 307.111 272.2 307.111 280.866C307.111 289.532 307.36 294.986 307.856 297.227C308.353 299.468 309.098 300.738 310.091 301.037C311.084 301.335 311.912 300.813 312.574 299.468C313.237 298.123 313.899 286.768 314.561 265.402C315.224 244.036 315.306 229.766 314.809 222.595C314.313 215.423 313.898 211.464 313.568 210.717C313.403 210.344 313.237 209.97 313.072 209.597C320.438 209.97 327.805 210.344 335.172 210.717C349.907 211.464 366.131 211.912 383.845 212.061C401.557 212.21 422.338 211.39 446.175 209.597C458.097 208.7 470.017 207.803 481.933 206.907C481.687 210.94 481.437 214.975 481.191 219.009C480.694 227.078 480.443 238.881 480.443 254.42C480.443 269.959 480.774 279.298 481.437 282.435C482.099 285.572 482.761 287.589 483.424 288.486C484.087 289.382 484.83 289.83 485.658 289.83C486.074 289.83 486.485 289.83 486.903 289.83C486.817 279.596 486.737 269.362 486.652 259.126C486.485 238.656 486.074 224.538 485.412 216.768C484.75 208.998 480.031 204.964 471.257 204.666C462.484 204.366 450.727 204.74 435.996 205.786Z" fill="#C9C9C9"/>
</g>
<g id="Group_5">
<path id="Vector_11" fill-rule="evenodd" clip-rule="evenodd" d="M254.218 83.641C236.172 84.5378 211.836 84.8367 181.209 84.5378C150.581 84.2388 130.714 84.6869 121.609 85.8825C112.504 87.0777 107.124 87.5258 105.468 87.2269C104.64 87.0777 103.812 86.9279 102.985 86.7788C102.985 86.9279 102.985 87.0777 102.985 87.2269C102.985 87.5258 104.062 87.8993 106.213 88.3474C108.365 88.796 111.924 88.8706 116.891 88.5717C121.858 88.2728 133.281 88.1236 151.161 88.1236C169.04 88.1236 188.079 88.3474 208.276 88.796C228.474 89.2441 246.602 89.0198 262.66 88.1236C270.69 87.6755 278.719 87.2269 286.748 86.7788C286.583 87.4511 286.418 88.1236 286.251 88.796C285.921 90.1409 285.59 95.8931 285.258 106.053C284.927 116.213 284.099 127.568 282.775 140.119C281.45 152.67 280.871 180.684 281.037 224.164C281.203 267.643 281.45 290.727 281.781 293.417C282.113 296.106 282.775 297.675 283.769 298.123C284.762 298.571 285.59 298.571 286.251 298.123C286.914 297.675 287.493 296.032 287.989 293.193C288.487 290.354 288.818 267.718 288.983 225.285C289.149 182.85 289.645 155.957 290.473 144.602C291.301 133.246 291.714 124.058 291.714 117.035C291.714 110.012 291.549 102.691 291.218 95.071C290.886 87.4511 289.149 83.4172 286.003 82.9686C282.858 82.5205 272.263 82.7448 254.218 83.641Z" fill="#C9C9C9"/>
<path id="Vector_12" fill-rule="evenodd" clip-rule="evenodd" d="M105.716 91.4852C105.22 92.2321 104.888 93.2781 104.723 94.6229C104.557 95.9677 104.309 100.376 103.978 107.846C103.647 115.317 103.482 123.385 103.482 132.051C103.482 140.717 103.812 151.475 104.475 164.324C105.137 177.173 105.385 199.661 105.22 231.783C105.054 263.908 105.137 281.24 105.468 283.779C105.633 285.049 105.799 286.32 105.964 287.589C106.213 287.515 106.461 287.44 106.709 287.366C107.206 287.216 108.034 284.75 109.193 279.969C110.351 275.188 111.677 267.419 113.167 256.661C114.656 245.904 115.401 234.622 115.401 222.819C115.401 211.015 114.656 193.833 113.167 171.272C111.677 148.71 110.766 131.379 110.434 119.276C110.103 107.174 109.773 99.5538 109.441 96.4158C109.11 93.2781 108.53 91.4852 107.703 91.037C107.289 90.8127 106.875 90.5889 106.461 90.3646C106.213 90.7381 105.964 91.1116 105.716 91.4852Z" fill="#C9C9C9"/>
<path id="Vector_13" fill-rule="evenodd" clip-rule="evenodd" d="M151.906 289.159C140.151 289.607 129.969 290.279 121.361 291.176C112.752 292.071 108.034 292.371 107.206 292.071C106.792 291.922 106.379 291.773 105.964 291.623C106.461 292.071 106.958 292.52 107.454 292.968C108.448 293.864 112.752 294.686 120.367 295.433C127.983 296.181 150.663 296.778 188.41 297.227C226.156 297.675 250.74 297.451 262.163 296.554C273.587 295.658 279.463 294.985 279.795 294.537C280.126 294.089 280.126 293.342 279.795 292.296C279.463 291.25 276.153 290.428 269.862 289.83C263.571 289.233 249.912 289.008 228.888 289.159C207.862 289.308 192.714 289.233 183.443 288.934C174.173 288.635 163.66 288.71 151.906 289.159Z" fill="#C9C9C9"/>
</g>
</g>
<g id="code">
<path id="Vector_14" fill-rule="evenodd" clip-rule="evenodd" d="M361.935 54.865C318.065 55.8061 271.742 56.4657 222.994 56.843C174.249 57.2188 148.159 57.1243 144.745 56.5604C143.047 56.2779 141.331 55.9953 139.631 55.7127C139.631 55.9006 139.631 56.0899 139.631 56.2779C139.631 56.6537 141.096 57.1243 144.023 57.6893C146.948 58.2544 152.803 58.725 161.566 59.1021C170.346 59.4781 192.533 59.8552 228.109 60.2311C263.701 60.6082 310.497 59.9497 368.512 58.2544C426.526 56.5604 456.517 55.6181 458.468 55.4301C459.444 55.3355 460.42 55.2422 461.377 55.1476C461.141 54.865 460.891 54.5837 460.655 54.3012C460.166 53.7361 454.565 53.4535 443.834 53.4535C433.103 53.4535 405.805 53.9241 361.935 54.865Z" fill="black"/>
<path id="Vector_15" fill-rule="evenodd" clip-rule="evenodd" d="M176.2 70.3983C144.995 70.7754 129.389 71.1513 129.389 71.5284C129.389 71.9043 133.543 72.2815 141.818 72.6574C150.111 73.0346 168.394 73.2225 196.672 73.2225C224.947 73.2225 246.158 72.9399 260.287 72.3748C274.432 71.811 281.498 71.2459 281.498 70.6808C281.498 70.3983 281.498 70.1157 281.498 69.8344C271.743 69.8344 262.003 69.8344 252.245 69.8344C232.75 69.8344 207.403 70.0223 176.2 70.3983Z" fill="black"/>
<path id="Vector_16" fill-rule="evenodd" clip-rule="evenodd" d="M461.378 94.9691C437.982 95.5341 408.242 95.8167 372.177 95.8167C336.099 95.8167 290.027 96.1926 233.961 96.9456C177.898 97.6987 144.509 98.1688 133.779 98.3574C123.063 98.5461 117.697 98.9224 117.697 99.4875C117.697 100.052 132.078 100.617 160.842 101.182C189.605 101.747 243.955 101.747 323.902 101.182C403.868 100.617 458.468 99.77 487.718 98.6399C516.954 97.5107 532.313 96.7577 533.776 96.3805C535.238 96.0046 535.727 95.5341 535.238 94.9691C534.752 94.4039 528.174 94.1213 515.507 94.1213C502.824 94.1213 484.791 94.4039 461.378 94.9691Z" fill="black"/>
<path id="Vector_17" fill-rule="evenodd" clip-rule="evenodd" d="M240.541 116.151C225.922 116.904 211.052 117.28 195.931 117.28C180.826 117.28 172.784 117.467 171.811 117.845C171.322 118.033 170.836 118.222 170.346 118.41C185.216 118.41 200.085 118.41 214.955 118.41C244.695 118.41 265.889 118.033 278.571 117.28C284.912 116.904 291.254 116.527 297.58 116.151C297.344 115.963 297.09 115.773 296.854 115.586C296.368 115.208 290.513 115.021 279.311 115.021C268.09 115.021 255.173 115.397 240.541 116.151Z" fill="black"/>
<path id="Vector_18" fill-rule="evenodd" clip-rule="evenodd" d="M424.088 135.071C415.81 135.261 410.681 135.543 408.728 135.92C407.753 136.108 406.78 136.295 405.804 136.485C406.291 136.767 406.78 137.05 407.266 137.331C408.242 137.896 418.737 138.272 438.72 138.461C458.704 138.649 469.435 138.556 470.897 138.179C472.362 137.802 473.084 137.331 473.084 136.767C473.084 136.202 472.362 135.731 470.897 135.354C469.435 134.979 463.329 134.791 452.613 134.791C441.883 134.791 432.378 134.884 424.088 135.071Z" fill="black"/>
<path id="Vector_19" fill-rule="evenodd" clip-rule="evenodd" d="M286.611 137.332C255.897 137.52 230.313 138.272 209.841 139.591C199.596 140.25 189.355 140.908 179.125 141.568C181.313 141.662 183.5 141.756 185.703 141.85C190.092 142.038 200.085 141.662 215.678 140.721C231.288 139.779 262.004 139.497 307.821 139.873C353.642 140.25 377.056 140.343 378.016 140.156C378.992 139.968 379.244 139.497 378.754 138.744C378.268 137.99 370.464 137.52 355.359 137.332C340.234 137.143 317.326 137.143 286.611 137.332Z" fill="black"/>
<path id="Vector_20" fill-rule="evenodd" clip-rule="evenodd" d="M247.856 156.253C228.36 157.006 212.264 157.855 199.596 158.795C186.914 159.736 180.59 160.396 180.59 160.774C180.59 160.961 180.59 161.149 180.59 161.337C188.63 161.054 196.672 160.774 204.711 160.489C220.807 159.925 256.874 159.831 312.936 160.207C368.998 160.584 403.618 160.396 416.786 159.643C423.364 159.266 429.94 158.889 436.517 158.512C421.411 157.947 406.291 157.383 391.185 156.818C360.959 155.688 334.398 155.124 311.474 155.124C288.562 155.124 267.351 155.501 247.856 156.253Z" fill="black"/>
<path id="Vector_21" fill-rule="evenodd" clip-rule="evenodd" d="M171.071 192.968C162.542 193.156 154.013 193.344 145.485 193.533C147.924 193.815 150.364 194.097 152.803 194.38C157.664 194.945 166.932 195.415 180.59 195.792C194.231 196.169 231.523 196.451 292.465 196.64C353.406 196.828 401.43 196.734 436.517 196.357C471.623 195.98 489.166 195.603 489.166 195.227C489.166 194.851 487.955 194.569 485.516 194.38C483.078 194.191 459.931 193.815 416.046 193.251C372.177 192.686 324.643 192.403 273.456 192.403C222.273 192.403 188.143 192.592 171.071 192.968Z" fill="black"/>
<path id="Vector_22" fill-rule="evenodd" clip-rule="evenodd" d="M235.427 209.349C215.442 210.101 204.711 210.665 203.249 211.043C202.524 211.23 201.783 211.42 201.062 211.608C206.426 211.89 211.778 212.172 217.142 212.454C227.874 213.019 240.538 213.114 255.173 212.737C269.791 212.36 277.846 211.984 279.311 211.608C280.759 211.23 281.009 210.665 280.033 209.913C279.058 209.161 276.384 208.689 271.994 208.501C267.604 208.314 255.408 208.594 235.427 209.349Z" fill="black"/>
<path id="Vector_23" fill-rule="evenodd" clip-rule="evenodd" d="M565.715 114.126C551.097 114.879 536.227 115.256 521.106 115.256C506.001 115.256 497.958 115.443 496.986 115.821C496.496 116.008 496.009 116.198 495.52 116.386C510.39 116.386 525.26 116.386 540.129 116.386C569.869 116.386 591.062 116.008 603.745 115.256C610.086 114.879 616.427 114.503 622.754 114.126C622.518 113.939 622.265 113.749 622.029 113.561C621.543 113.184 615.688 112.996 604.485 112.996C593.265 112.996 580.347 113.372 565.715 114.126Z" fill="black"/>
<path id="Vector_24" fill-rule="evenodd" clip-rule="evenodd" d="M405.461 69.4265C375.45 69.5706 356.853 69.785 349.778 70.0723C346.241 70.2156 342.714 70.3587 339.176 70.5029C340.939 70.7181 342.714 70.9334 344.477 71.1477C348.015 71.5783 386.064 71.8647 458.504 72.0088C530.954 72.152 569.858 72.0809 575.159 71.7935C580.471 71.5062 583.089 71.1477 583.089 70.7181C583.089 70.2876 580.471 69.9291 575.159 69.6418C569.858 69.3554 547.723 69.2122 508.874 69.2122C469.971 69.2122 435.515 69.2833 405.461 69.4265Z" fill="black"/>
<path id="Vector_25" fill-rule="evenodd" clip-rule="evenodd" d="M395.906 246.473C370.378 246.666 354.558 246.955 348.54 247.341C345.531 247.534 342.53 247.726 339.521 247.92C341.021 248.209 342.53 248.499 344.031 248.786C347.04 249.365 379.406 249.75 441.028 249.944C502.659 250.136 535.752 250.04 540.262 249.654C544.78 249.268 547.007 248.786 547.007 248.209C547.007 247.63 544.78 247.148 540.262 246.762C535.752 246.377 516.923 246.185 483.876 246.185C450.783 246.185 421.472 246.28 395.906 246.473Z" fill="black"/>
<path id="Vector_26" fill-rule="evenodd" clip-rule="evenodd" d="M266.737 278.627C177.748 279.157 133.241 279.687 133.241 280.217C133.241 280.747 145.087 281.278 168.685 281.807C192.334 282.338 244.474 282.603 325.115 282.603C405.747 282.603 466.235 282.205 506.53 281.409C546.868 280.615 567.019 279.82 567.019 279.024C567.019 278.627 567.019 278.229 567.019 277.833C539.2 277.833 511.424 277.833 483.596 277.833C428.001 277.833 355.717 278.097 266.737 278.627Z" fill="black"/>
<path id="Vector_27" fill-rule="evenodd" clip-rule="evenodd" d="M192.905 247.84C161.701 248.217 146.093 248.592 146.093 248.97C146.093 249.346 150.247 249.722 158.522 250.099C166.815 250.476 185.099 250.664 213.376 250.664C241.651 250.664 262.862 250.381 276.991 249.816C291.137 249.252 298.202 248.687 298.202 248.122C298.202 247.84 298.202 247.557 298.202 247.276C288.448 247.276 278.708 247.276 268.95 247.276C249.454 247.276 224.107 247.463 192.905 247.84Z" fill="black"/>
<path id="Vector_28" fill-rule="evenodd" clip-rule="evenodd" d="M356.347 260.019C312.478 260.96 266.155 261.619 217.407 261.997C168.662 262.373 142.571 262.278 139.158 261.714C137.46 261.432 135.743 261.149 134.042 260.867C134.042 261.054 134.042 261.244 134.042 261.432C134.042 261.808 135.508 262.278 138.436 262.843C141.359 263.408 147.214 263.879 155.979 264.256C164.758 264.632 186.945 265.009 222.521 265.385C258.113 265.762 304.91 265.104 362.925 263.408C420.938 261.714 450.929 260.772 452.881 260.584C453.856 260.489 454.832 260.396 455.79 260.302C455.554 260.019 455.304 259.738 455.068 259.455C454.579 258.89 448.977 258.608 438.247 258.608C427.516 258.608 400.216 259.078 356.347 260.019Z" fill="black"/>
<path id="Vector_29" fill-rule="evenodd" clip-rule="evenodd" d="M208.515 234.802C193.896 235.556 179.026 235.931 163.905 235.931C148.8 235.931 140.758 236.12 139.785 236.496C139.295 236.685 138.809 236.873 138.32 237.061C153.189 237.061 168.059 237.061 182.929 237.061C212.669 237.061 233.862 236.685 246.545 235.931C252.886 235.556 259.227 235.178 265.553 234.802C265.318 234.614 265.064 234.426 264.829 234.237C264.341 233.86 258.487 233.672 247.285 233.672C236.065 233.672 223.146 234.048 208.515 234.802Z" fill="black"/>
<path id="Vector_30" fill-rule="evenodd" clip-rule="evenodd" d="M595.4 21.3742C561.113 21.7593 517.529 21.9519 464.673 21.9519C411.799 21.9519 344.279 22.2081 262.113 22.7213C179.952 23.2346 131.019 23.5552 115.293 23.6833C99.5879 23.8122 91.7246 24.0685 91.7246 24.4536C91.7246 24.8388 112.8 25.223 154.954 25.609C197.109 25.9934 276.76 25.9934 393.926 25.609C511.118 25.223 591.136 24.6461 634.004 23.8759C676.849 23.1065 699.359 22.5932 701.501 22.3362C703.644 22.08 704.361 21.7593 703.644 21.3742C702.931 20.9891 693.293 20.7964 674.728 20.7964C656.141 20.7964 629.713 20.9891 595.4 21.3742Z" fill="black"/>
</g>
</g>
</svg>
