<svg width="937" height="533" viewBox="0 0 937 533" fill="none" xmlns="http://www.w3.org/2000/svg">
<path fillRule="evenodd" clipRule="evenodd" d="M15.1578 384.459C14.2266 385.491 16.025 387.488 17.3031 388.036C19.5792 389.011 22.2391 388.465 24.7135 388.556C29.9568 388.748 35.2063 388.556 40.4526 388.556C52.9531 388.556 67.075 387.136 78.1667 394.406C88.7724 401.358 89.5214 416.008 94.4255 426.533C97.838 433.856 101.501 441.074 104.957 448.379C106.168 450.939 107.058 453.677 108.598 456.053C113.788 464.056 126.466 474.644 135.132 478.682C151.508 486.313 171.619 490.192 189.362 492.727C205.667 495.056 221.784 498.404 238.133 500.529C250.679 502.16 263.196 504.377 275.847 504.953C287.74 505.495 299.616 505.245 311.486 506.385C319.408 507.146 327.242 508.547 335.156 509.375C352.245 511.172 370.136 511.661 387.306 510.677C411.544 509.281 435.61 501.741 459.227 496.759C469.98 494.491 480.771 492.699 491.604 490.909C504.365 488.8 516.943 485.603 529.708 483.492C547.708 480.518 565.87 478.688 584.073 477.642C597.328 476.881 610.651 477.284 623.87 475.953C635.656 474.766 647.323 472.606 658.99 470.617C670.891 468.589 682.938 467.343 694.88 465.544C712.703 462.858 730.656 460.547 748.333 456.965C767.776 453.022 785.87 445.797 804.385 439.016C815.563 434.922 827.375 433.395 837.547 426.661C842.359 423.477 845.662 419.066 849.646 415.084C858.229 406.496 867.411 398.007 876.953 390.508C887.792 381.992 897.87 372.619 908.297 363.583C920.719 352.821 932.042 340.87 935.219 324.051C936.609 316.696 936.589 308.345 936.651 300.902C936.693 295.627 935.927 290.222 934.047 285.292C922.87 255.919 894.896 261.336 869.932 256.549C856.505 253.974 842.771 250.291 829.094 249.395C818.354 248.692 807.583 249.38 796.839 249.009C773.573 248.207 750.276 248.861 727.005 248.226C710.615 247.779 694.417 245.888 677.969 245.888C617.255 245.888 556.703 242.999 496.031 246.666C486.245 247.257 476.417 246.866 466.638 247.578C427.198 250.446 402.225 261.284 362.821 264.769C359.361 265.076 360.177 211.006 348.525 176.89C344.268 164.429 327.672 178.267 325.847 178.386C317.929 178.901 318.595 262.358 313.02 262.408C298.417 262.539 288.791 261.498 268.077 261.498C255.659 261.498 222.37 266.063 211.766 274.02C195.748 286.038 215.579 297.381 225.29 311.476C228.317 315.869 214.405 315.927 218.105 319.627C219.602 321.124 222.693 321.803 222.786 323.917C222.878 326 220.294 327.415 218.496 328.47C207.381 334.993 188.588 334.124 176.358 332.894C156.257 330.872 135.223 327.466 114.974 329.119C95.5641 330.703 78.3391 339.889 60.8729 347.587C54.2526 350.505 47.6526 352.561 42.013 357.213C32.099 365.389 23.726 374.964 15.1578 384.459Z" fill="white"/>
<path fillRule="evenodd" clipRule="evenodd" d="M793.448 1.70833C793.276 2.40276 791.714 3.01042 788.76 3.53125C785.807 4.05208 781.38 4.39932 775.479 4.57292C769.578 4.74651 763.151 5.26734 756.208 6.13542C749.266 7.00349 736.849 9.08682 718.969 12.3854C701.089 15.684 686.938 17.941 676.521 19.1563C666.104 20.3715 658.901 21.5 654.906 22.5417C650.912 23.5833 648.396 23.9306 647.354 23.5833C646.833 23.4097 646.313 23.2361 645.792 23.0625C645.792 23.3229 645.792 23.5833 645.792 23.8438C645.792 24.1042 645.792 24.3646 645.792 24.625C645.531 24.625 645.271 24.625 645.01 24.625C644.75 24.625 644.49 24.625 644.229 24.625C644.229 24.7986 644.229 24.9722 644.229 25.1458C644.229 25.3194 644.229 25.4931 644.229 25.6667C644.49 25.6667 644.75 25.6667 645.01 25.6667C645.271 25.6667 645.531 25.6667 645.792 25.6667C645.62 29.8333 645.443 34 645.271 38.1667C644.922 46.5 644.839 61.4307 645.01 82.9583C645.182 104.486 645.01 119.243 644.49 127.229C643.969 135.215 643.797 149.712 643.969 170.719C644.141 191.726 644.49 202.577 645.01 203.271C645.531 203.965 647.182 204.313 649.958 204.313C652.734 204.313 656.99 203.618 662.719 202.229C668.448 200.84 676.609 199.538 687.198 198.323C692.495 197.715 697.787 197.108 703.083 196.5C702.651 205.962 702.214 215.423 701.781 224.885C701.417 232.814 702.13 246.271 698.448 250.909C693.339 257.34 682.292 253.43 670.792 253.531C651 253.705 640.495 253.097 639.281 251.708C638.068 250.319 636.068 248.844 633.292 247.281C630.516 245.719 628.604 244.764 627.563 244.417C626.521 244.069 624.349 243.896 621.052 243.896C617.755 243.896 615.412 243.983 614.021 244.156C612.63 244.33 611.677 244.677 611.156 245.198C610.635 245.719 608.901 244.938 605.948 242.854C602.995 240.771 601 239.642 599.958 239.469C598.917 239.295 597.005 238.427 594.229 236.865C591.453 235.302 589.37 234.434 587.979 234.26C586.589 234.087 582.422 236.257 575.479 240.771C568.537 245.285 564.453 248.149 563.24 249.365C562.026 250.58 552.042 251.621 533.292 252.49C523.917 252.923 514.542 253.358 505.167 253.792C507.078 251.621 508.984 249.452 510.896 247.281C514.714 242.941 516.974 239.99 517.667 238.427C518.359 236.865 518.797 235.215 518.969 233.479C519.141 231.743 517.927 227.923 515.323 222.021C512.719 216.118 509.594 210.302 505.948 204.573C502.302 198.844 499.438 193.809 497.354 189.469C495.271 185.129 494.49 181.396 495.01 178.271C495.531 175.146 495.62 168.202 495.271 157.438C494.922 146.673 494.229 140.337 493.188 138.427C492.146 136.517 491.365 135.649 490.844 135.823C490.323 135.996 489.63 135.563 488.76 134.521C487.891 133.479 486.677 132.785 485.115 132.438C483.552 132.09 481.818 132.09 479.906 132.438C478.953 132.611 477.995 132.785 477.042 132.958C477.995 130.875 478.953 128.792 479.906 126.708C481.818 122.542 483.984 119.417 486.417 117.333C488.849 115.25 490.583 113.427 491.625 111.865C492.667 110.302 493.016 109.173 492.667 108.479C492.318 107.785 491.536 107.438 490.323 107.438C489.714 107.438 489.109 107.438 488.5 107.438C489.109 105.615 489.714 103.792 490.323 101.969C491.536 98.3229 492.146 94.9375 492.146 91.8125C492.146 88.6875 491.885 86.1703 491.365 84.2604C490.844 82.3505 490.151 81.3958 489.281 81.3958C488.411 81.3958 487.63 81.6563 486.938 82.1771C486.245 82.6979 485.464 84.087 484.594 86.3438C483.724 88.6005 483.12 90.9443 482.771 93.375C482.599 94.5901 482.422 95.8057 482.25 97.0208C482.078 95.0245 481.901 93.0276 481.729 91.0313C481.38 87.038 481.901 83.1318 483.292 79.3125C484.682 75.4932 484.943 71.2396 484.073 66.5521C483.203 61.8646 483.292 59.2604 484.333 58.7396C485.375 58.2188 485.984 57.4375 486.156 56.3958C486.328 55.3542 485.547 53.8786 483.813 51.9688C482.078 50.0589 480.948 48.4964 480.427 47.2813C479.906 46.0661 478.255 44.3297 475.479 42.0729C472.703 39.8161 468.621 38.6005 463.24 38.4271C457.858 38.2536 453.083 37.4724 448.917 36.0833C444.75 34.6944 440.844 33.9132 437.198 33.7396C433.552 33.566 430.688 33.9132 428.604 34.7813C426.521 35.6493 424.611 36.8646 422.875 38.4271C421.139 39.9896 418.014 40.5974 413.5 40.25C408.986 39.9026 405.167 40.337 402.042 41.5521C398.917 42.7672 396.139 44.7641 393.708 47.5417C391.278 50.3193 389.368 53.0974 387.979 55.875C386.59 58.6526 385.722 63.4271 385.375 70.1979C385.028 76.9688 385.635 82.6109 387.198 87.125C388.76 91.6391 389.542 94.8505 389.542 96.7604C389.542 98.6703 387.806 101.795 384.333 106.135C380.861 110.476 378.257 114.903 376.521 119.417C374.785 123.931 373.656 131.396 373.135 141.813C372.615 152.229 372.528 157.698 372.875 158.219C373.222 158.74 373.656 158.913 374.177 158.74C374.698 158.566 375.132 158.653 375.479 159C375.827 159.347 377.736 159.347 381.208 159C384.681 158.653 387.632 159.26 390.063 160.823C392.493 162.385 394.75 163.514 396.833 164.208C398.917 164.903 400.045 165.51 400.219 166.031C400.392 166.552 398.309 170.111 393.969 176.708C389.629 183.306 386.156 189.295 383.552 194.677C380.948 200.059 378.952 204.746 377.563 208.74C376.173 212.733 375.045 216.552 374.177 220.198C373.309 223.844 372.528 231.309 371.833 242.594C371.139 253.879 369.229 259.608 366.104 259.781C364.542 259.868 362.979 259.955 361.417 260.042C361.417 252.142 361.417 244.243 361.417 236.344C361.417 220.545 361.069 210.215 360.375 205.354C359.681 200.493 358.726 196.066 357.51 192.073C356.295 188.08 354.038 183.566 350.74 178.531C347.441 173.496 345.097 170.719 343.708 170.198C342.319 169.677 340.41 169.417 337.979 169.417C335.548 169.417 333.205 169.677 330.948 170.198C328.691 170.719 326.868 171.327 325.479 172.021C324.09 172.715 322.354 174.365 320.271 176.969C318.188 179.573 317.319 182.004 317.667 184.26C318.014 186.517 317.667 193.896 316.625 206.396C315.583 218.896 314.976 231.309 314.802 243.635C314.715 249.798 314.629 255.962 314.542 262.125C313.5 261.865 312.458 261.604 311.417 261.344C309.333 260.823 297.962 260.563 277.302 260.563C256.642 260.563 244.142 261.083 239.802 262.125C235.462 263.167 231.035 264.556 226.521 266.292C222.007 268.028 218.188 269.677 215.063 271.24C211.938 272.802 209.42 274.538 207.51 276.448C205.601 278.358 204.472 279.66 204.125 280.354C203.778 281.048 203.604 282.785 203.604 285.563C203.604 288.34 203.865 290.25 204.385 291.292C204.906 292.333 208.292 296.153 214.542 302.75C220.792 309.347 224.264 313.254 224.958 314.469C225.653 315.684 226.087 317.16 226.26 318.896C226.434 320.632 226 322.108 224.958 323.323C223.917 324.538 222.354 325.667 220.271 326.708C218.188 327.75 215.149 328.792 211.156 329.833C207.163 330.875 192.667 332.177 167.667 333.74C142.667 335.302 125.045 336.778 114.802 338.167C104.559 339.556 95.7917 341.118 88.5 342.854C81.2083 344.59 73.4828 347.021 65.3229 350.146C57.163 353.271 50.6526 356.135 45.7917 358.74C40.9307 361.344 34.2464 365.51 25.7396 371.24C17.2328 376.969 11.1563 381.309 7.51042 384.26C3.86458 387.212 1.78125 389.208 1.26042 390.25C1 390.771 0.739585 391.292 0.479168 391.813C3.77761 389.469 7.07656 387.125 10.375 384.781C16.9724 380.094 23.7432 375.667 30.6875 371.5C37.6318 367.333 45.2708 363.34 53.6042 359.521C61.9375 355.702 68.4479 353.01 73.1354 351.448C77.8229 349.885 84.0729 348.236 91.8854 346.5C99.6979 344.764 106.816 343.462 113.24 342.594C119.663 341.726 129.819 340.684 143.708 339.469C157.597 338.254 170.705 337.385 183.031 336.865C195.358 336.344 204.559 335.389 210.635 334C216.712 332.611 220.705 331.396 222.615 330.354C224.524 329.313 226.26 328.01 227.823 326.448C229.385 324.885 230.254 322.802 230.427 320.198C230.601 317.594 229.906 314.99 228.344 312.385C226.781 309.781 223.569 306.135 218.708 301.448C213.847 296.76 210.809 293.462 209.594 291.552C208.379 289.642 207.771 287.733 207.771 285.823C207.771 283.913 208.552 282.004 210.115 280.094C211.677 278.184 215.496 275.84 221.573 273.063C227.649 270.285 233.292 268.202 238.5 266.813C243.708 265.423 256.382 264.729 276.521 264.729C296.66 264.729 307.858 264.642 310.115 264.469C312.371 264.295 313.673 264.035 314.021 263.688C314.194 263.514 314.368 263.34 314.542 263.167C314.715 270.285 314.889 277.403 315.063 284.521C315.41 298.757 315.41 308.306 315.063 313.167C314.715 318.028 314.542 331.83 314.542 354.573C314.542 377.316 314.889 396.066 315.583 410.823C316.278 425.58 316.798 433.74 317.146 435.302C317.493 436.865 318.014 437.733 318.708 437.906C319.403 438.08 319.923 437.819 320.271 437.125C320.618 436.431 320.792 430.267 320.792 418.635C320.792 407.004 320.531 383.74 320.01 348.844C319.49 313.948 319.316 286.865 319.49 267.594C319.663 248.323 320.097 231.743 320.792 217.854C321.486 203.965 321.746 194.504 321.573 189.469C321.4 184.434 322.875 180.788 326 178.531C329.125 176.274 332.423 174.972 335.896 174.625C339.368 174.278 341.885 174.712 343.448 175.927C345.01 177.142 346.486 178.965 347.875 181.396C349.264 183.827 350.827 188.514 352.563 195.458C354.298 202.403 355.514 209.521 356.208 216.813C356.903 224.104 357.25 235.563 357.25 251.188C357.25 266.813 356.556 285.215 355.167 306.396C353.778 327.577 353.083 344.764 353.083 357.958C353.083 371.153 352.736 381.309 352.042 388.427C351.347 395.545 351.087 401.969 351.26 407.698C351.434 413.427 349.525 416.986 345.531 418.375C341.538 419.764 339.194 420.371 338.5 420.198C337.806 420.025 337.198 420.371 336.677 421.24C336.417 421.673 336.156 422.108 335.896 422.542C337.111 422.542 338.327 422.542 339.542 422.542C341.972 422.542 351.434 420.545 367.927 416.552C384.42 412.559 399.004 409.608 411.677 407.698C424.351 405.788 436.504 404.4 448.135 403.531C459.767 402.663 469.49 402.229 477.302 402.229C485.115 402.229 493.016 402.663 501 403.531C508.984 404.4 515.323 405.528 520.01 406.917C524.698 408.306 528.344 410.042 530.948 412.125C533.552 414.208 535.896 417.246 537.979 421.24C540.063 425.233 540.583 429.4 539.542 433.74C538.5 438.08 529.214 440.077 511.677 439.729C494.141 439.382 478.432 439.642 464.542 440.51C450.653 441.379 428.083 441.813 396.833 441.813C365.583 441.813 348.569 441.9 345.792 442.073C343.014 442.246 341.538 442.681 341.365 443.375C341.278 443.722 341.191 444.069 341.104 444.417C354.385 444.677 367.667 444.938 380.948 445.198C394.229 445.458 407.51 445.719 420.792 445.979C420.618 460.129 420.444 474.278 420.271 488.427C419.923 516.724 419.837 531.135 420.01 531.656C420.184 532.177 420.531 532.438 421.052 532.438C421.573 532.438 422.181 529.401 422.875 523.323C423.569 517.245 423.917 502.837 423.917 480.094C423.917 457.351 428.083 445.892 436.417 445.719C440.583 445.632 444.75 445.545 448.917 445.458C448.569 454.833 448.222 464.208 447.875 473.583C447.181 492.333 446.92 502.837 447.094 505.094C447.267 507.349 447.615 508.911 448.135 509.781C448.656 510.651 449.177 511.083 449.698 511.083C450.219 511.083 450.74 505.094 451.26 493.115C451.781 481.135 451.955 470.198 451.781 460.302C451.694 455.354 451.608 450.406 451.521 445.458C460.288 445.371 469.056 445.285 477.823 445.198C495.359 445.025 506.557 444.677 511.417 444.156C516.276 443.635 521.745 443.462 527.823 443.635C533.901 443.809 536.938 447.542 536.938 454.833C536.938 462.125 538.589 475.927 541.885 496.24C545.182 516.552 547.266 527.141 548.135 528.01C549.005 528.88 550.391 529.573 552.302 530.094C554.214 530.615 555.948 530.875 557.51 530.875C559.073 530.875 560.984 530.526 563.24 529.833C565.495 529.141 568.276 527.661 571.573 525.406C574.87 523.151 576.432 521.411 576.26 520.198C576.089 518.984 576.87 514.818 578.604 507.698C580.339 500.58 583.38 485.65 587.719 462.906C592.057 440.163 594.75 423.41 595.792 412.646C596.833 401.882 597.787 394.156 598.656 389.469C599.526 384.781 599.87 381.222 599.698 378.792C599.526 376.361 599.177 374.452 598.656 373.063C598.135 371.673 596.745 369.069 594.49 365.25C592.234 361.431 589.714 358.132 586.938 355.354C584.162 352.577 580.255 349.452 575.219 345.979C570.182 342.507 565.323 339.816 560.635 337.906C555.948 335.996 538.328 335.302 507.771 335.823C477.214 336.344 461.677 335.389 461.156 332.958C460.635 330.528 460.462 324.625 460.635 315.25C460.722 310.563 460.809 305.875 460.896 301.188C462.632 303.358 464.368 305.528 466.104 307.698C469.577 312.038 471.66 314.382 472.354 314.729C473.047 315.077 473.396 315.51 473.396 316.031C473.396 316.552 473.917 316.899 474.958 317.073C476 317.246 485.724 312.472 504.125 302.75C522.526 293.028 534.245 286.691 539.281 283.74C544.318 280.788 548.224 278.184 551 275.927C553.776 273.67 559.245 271.066 567.406 268.115C575.568 265.163 580.255 263.688 581.469 263.688C582.682 263.688 583.38 263.948 583.552 264.469C583.724 264.99 584.245 265.423 585.115 265.771C585.984 266.118 588.672 266.552 593.188 267.073C597.703 267.594 604.385 267.854 613.24 267.854C622.094 267.854 627.823 267.681 630.427 267.333C633.031 266.986 635.807 266.379 638.76 265.51C641.714 264.642 643.448 263.254 643.969 261.344C644.49 259.434 644.401 257.871 643.708 256.656C643.359 256.048 643.016 255.441 642.667 254.833C652.302 255.181 661.938 255.528 671.573 255.875C678.391 256.121 684.021 256.486 688.469 256.97C696.599 257.856 700.776 259.14 701 260.823C701.172 262.125 701.349 263.427 701.521 264.729C699.609 264.903 697.703 265.077 695.792 265.25C693.88 265.423 691.974 265.597 690.063 265.771C690.234 266.118 690.412 266.465 690.583 266.813C690.932 267.507 692.146 268.028 694.229 268.375C696.313 268.722 704.646 268.809 719.229 268.635C733.813 268.462 741.276 268.115 741.625 267.594C741.974 267.073 741.974 266.465 741.625 265.771C741.276 265.077 739.37 264.642 735.896 264.469C732.422 264.295 730.688 262.993 730.688 260.563C730.688 258.132 735.375 256.83 744.75 256.656C749.438 256.569 754.125 256.483 758.813 256.396C758.641 256.656 758.464 256.917 758.292 257.177C757.943 257.698 757.859 259.608 758.031 262.906C758.203 266.205 769.318 268.202 791.365 268.896C813.412 269.59 825.568 269.851 827.823 269.677C830.078 269.504 831.38 269.243 831.729 268.896C832.078 268.548 832.078 266.465 831.729 262.646C831.557 260.736 831.38 258.827 831.208 256.917C839.109 257.438 847.005 257.958 854.906 258.479C870.703 259.521 882.859 260.042 891.365 260.042C899.87 260.042 904.995 259.868 906.729 259.521C907.599 259.347 908.464 259.173 909.333 259C909.073 258.653 908.813 258.306 908.552 257.958C908.031 257.264 906.557 256.83 904.125 256.656C901.693 256.483 893.62 256.135 879.906 255.615C866.193 255.094 854.214 254.92 843.969 255.094C833.724 255.267 824.349 255.007 815.844 254.313C807.339 253.618 802.995 246.587 802.823 233.219C802.651 219.851 806.641 211.17 814.802 207.177C822.964 203.184 828.865 199.712 832.51 196.76C836.156 193.809 837.891 191.726 837.719 190.51C837.547 189.295 837.109 188.514 836.417 188.167C835.724 187.819 835.635 184.521 836.156 178.271C836.677 172.021 836.938 160.302 836.938 143.115C836.938 125.927 836.677 112.125 836.156 101.708C835.896 96.5 835.635 91.2917 835.375 86.0833C834.682 86.1703 833.984 86.2568 833.292 86.3438C831.901 86.5172 831.037 87.125 830.688 88.1667C830.339 89.2083 830.167 94.9375 830.167 105.354C830.167 115.771 829.818 127.49 829.125 140.51C828.432 153.531 828.172 164.295 828.344 172.802C828.516 181.309 827.912 185.736 826.521 186.083C825.13 186.431 819.401 189.208 809.333 194.417C799.266 199.625 786.677 206.656 771.573 215.51C756.469 224.365 748.047 229.486 746.313 230.875C744.578 232.264 742.667 233.132 740.583 233.479C738.5 233.827 737.547 234.781 737.719 236.344C737.891 237.906 739.109 239.642 741.365 241.552C743.62 243.462 745.182 244.504 746.052 244.677C746.922 244.851 749.266 243.896 753.083 241.813C756.901 239.729 760.896 237.212 765.063 234.26C769.229 231.309 772.787 229.139 775.74 227.75C777.214 227.056 778.693 226.361 780.167 225.667C780.078 230.267 779.995 234.868 779.906 239.469C779.734 248.67 771.484 253.271 755.167 253.271C747.005 253.271 738.849 253.271 730.688 253.271C730.688 246.066 730.688 238.861 730.688 231.656C730.688 217.246 730.339 207.264 729.646 201.708C728.953 196.153 737.807 191.813 756.208 188.688C774.609 185.563 784.245 183.479 785.115 182.438C785.984 181.396 787.63 178.271 790.063 173.063C792.495 167.854 793.969 156.83 794.49 139.99C795.01 123.149 795.531 112.819 796.052 109C796.573 105.181 796.833 99.4516 796.833 91.8125C796.833 84.1734 797.094 78.8787 797.615 75.9271C798.135 72.9755 799.005 62.2984 800.219 43.8958C801.432 25.4931 801.87 14.9028 801.521 12.125C801.172 9.34724 800.391 6.82984 799.177 4.57292C797.964 2.31599 796.745 1.10068 795.531 0.927083C794.318 0.753489 793.62 1.01391 793.448 1.70833Z" fill="black"/>
<path fillRule="evenodd" clipRule="evenodd" d="M766.104 7.95833C748.745 10.3889 732.25 12.9931 716.625 15.7708C701 18.5486 670.172 24.4348 654.896 26.1709C647.828 26.9743 648.505 34.7349 648.281 46.9693C648.021 61.1755 647.521 81.9724 647.615 113.688C647.703 143.202 647.787 172.715 647.875 202.229C651.953 201.448 656.037 200.667 660.115 199.885C668.276 198.323 672.005 184.868 671.313 159.521C670.62 134.173 670.271 111.865 670.271 92.5938C670.271 73.3229 670.703 57.7849 671.573 45.9792C672.005 40.0766 672.443 34.1736 672.875 28.2708C669.401 28.7917 665.932 29.3125 662.458 29.8333C655.516 30.875 651.609 31.2222 650.74 30.875C650.307 30.7014 649.87 30.5278 649.438 30.3542C653.172 29.8333 651.333 29.1645 655.068 28.6437C662.531 27.602 677.734 26.0139 689.542 23.5833C701.349 21.1528 721.484 18.2014 749.958 14.7292C778.432 11.2569 792.755 8.73958 792.927 7.17708C793.099 5.61458 793.016 4.74651 792.667 4.57292C792.318 4.39932 783.464 5.52776 766.104 7.95833Z" fill="white"/>
<path fillRule="evenodd" clipRule="evenodd" d="M788.24 11.6042C785.635 12.2986 782.682 12.7327 779.385 12.9063C776.089 13.0798 769.922 13.9479 760.896 15.5104C751.87 17.0729 741.016 18.5486 728.344 19.9375C715.672 21.3264 703.432 23.0625 691.625 25.1458C679.818 27.2292 674.005 32.9583 674.177 42.3333C674.349 51.7083 674.177 67.9412 673.656 91.0313C673.135 114.121 673.135 129.746 673.656 137.906C674.177 146.066 674.438 155.528 674.438 166.292C674.438 177.056 674.177 184.955 673.656 189.99C673.396 192.507 673.135 195.024 672.875 197.542C686.505 195.806 700.13 194.069 713.76 192.333C741.016 188.861 759.073 186.257 767.927 184.521C776.781 182.785 781.557 178.792 782.25 172.542C782.943 166.292 783.292 160.649 783.292 155.615C783.292 150.58 784.766 125.146 787.719 79.3125C789.193 56.3958 790.672 33.4792 792.146 10.5625C790.844 10.9097 789.542 11.2569 788.24 11.6042Z" fill="white"/>
<path fillRule="evenodd" clipRule="evenodd" d="M477.302 66.0313C476.089 67.9412 473.917 70.1979 470.792 72.8021C467.667 75.4063 462.979 78.5313 456.729 82.1771C450.479 85.8229 446.052 88.0797 443.448 88.9479C442.146 89.3818 440.844 89.8162 439.542 90.25C444.403 91.0313 449.264 91.8125 454.125 92.5938C457.25 93.0958 459.918 93.3469 462.128 93.3469C466.794 93.3469 469.421 92.2276 470.01 89.9896C470.879 86.6912 471.746 84.6943 472.615 84C473.484 83.3057 474.698 83.0453 476.26 83.2188C477.823 83.3922 479.214 82.0901 480.427 79.3125C481.641 76.5349 482.25 74.4516 482.25 73.0625C482.25 71.6734 481.729 69.6771 480.688 67.0729C480.167 65.7708 479.646 64.4688 479.125 63.1667C478.516 64.1214 477.911 65.0766 477.302 66.0313Z" fill="white"/>
<path fillRule="evenodd" clipRule="evenodd" d="M422.094 76.9688C420.879 77.4896 419.923 78.4443 419.229 79.8333C418.535 81.2224 418.101 82.6979 417.927 84.2604C417.754 85.8229 417.927 87.2984 418.448 88.6875C418.969 90.0766 420.01 91.7255 421.573 93.6354C423.135 95.5453 425.827 97.3682 429.646 99.1042C431.556 99.9724 433.465 100.84 435.375 101.708C434.073 102.923 432.771 104.139 431.469 105.354C428.865 107.785 426.955 110.042 425.74 112.125C424.524 114.208 423.743 116.031 423.396 117.594C423.048 119.156 422.875 121.5 422.875 124.625C422.875 127.75 424.004 131.743 426.26 136.604C428.517 141.465 429.906 145.806 430.427 149.625C430.948 153.444 431.469 155.615 431.99 156.135C432.51 156.656 432.423 157.698 431.729 159.26C431.035 160.823 430.08 162.125 428.865 163.167C428.257 163.688 427.649 164.208 427.042 164.729C427.91 164.99 428.778 165.25 429.646 165.51C431.382 166.031 434.073 166.379 437.719 166.552C441.365 166.726 443.535 166.726 444.229 166.552C444.577 166.465 444.923 166.379 445.271 166.292C445.097 165.597 444.923 164.903 444.75 164.208C444.403 162.819 444.403 160.389 444.75 156.917C445.097 153.444 445.618 150.754 446.313 148.844C447.007 146.934 447.962 145.198 449.177 143.635C449.785 142.854 450.392 142.073 451 141.292C449.351 140.25 447.702 139.208 446.052 138.167C442.754 136.083 440.149 134 438.24 131.917C437.285 130.875 436.33 129.833 435.375 128.792C436.069 128.965 436.764 129.139 437.458 129.313C438.847 129.66 439.802 130.181 440.323 130.875C440.844 131.569 443.448 133.306 448.135 136.083C452.823 138.861 456.729 140.684 459.854 141.552C462.979 142.42 466.278 140.684 469.75 136.344C473.224 132.004 476 127.75 478.083 123.583C480.167 119.417 481.729 117.073 482.771 116.552C483.813 116.031 485.115 114.816 486.677 112.906C487.458 111.952 488.24 110.996 489.021 110.042C488.151 109.781 487.286 109.521 486.417 109.26C484.682 108.74 483.38 108.045 482.51 107.177C482.078 106.743 481.641 106.309 481.208 105.875C480.859 106.917 480.516 107.958 480.167 109C479.474 111.083 478.604 112.385 477.563 112.906C476.521 113.427 475.307 113.514 473.917 113.167C472.526 112.819 471.313 112.038 470.271 110.823C469.229 109.608 468.621 106.917 468.448 102.75C468.345 100.285 469.171 97.1052 467.307 95.8552C466.019 94.9922 462.503 95.7422 460.375 95.4583C455.167 94.7641 450.566 93.8089 446.573 92.5938C442.58 91.3786 439.368 90.9443 436.938 91.2917C435.722 91.4651 434.507 91.6391 433.292 91.8125C433.205 90.5104 433.118 89.2083 433.031 87.9063C432.858 85.3021 432.423 83.1318 431.729 81.3958C431.035 79.6599 430.08 78.3578 428.865 77.4896C427.649 76.6214 426.521 76.1875 425.479 76.1875C424.438 76.1875 423.309 76.4479 422.094 76.9688Z" fill="white"/>
<path fillRule="evenodd" clipRule="evenodd" d="M469.75 79.3125C467.667 81.0484 466.452 82.3505 466.104 83.2188C465.931 83.6526 465.757 84.087 465.583 84.5208C466.798 83.7396 468.014 82.9583 469.229 82.1771C471.66 80.6146 473.568 79.6599 474.958 79.3125C476.349 78.9651 477.042 78.4443 477.042 77.75C477.042 77.4026 477.042 77.0557 477.042 76.7083C476.349 76.7083 475.651 76.7083 474.958 76.7083C473.568 76.7083 471.833 77.5766 469.75 79.3125Z" fill="black"/>
<path fillRule="evenodd" clipRule="evenodd" d="M486.938 87.9063C486.417 89.5557 485.896 91.2047 485.375 92.8542C486.068 92.5068 486.766 92.1599 487.458 91.8125C488.849 91.1182 489.37 89.4688 489.021 86.8646C488.849 85.5625 488.672 84.2604 488.5 82.9583C487.979 84.6078 487.458 86.2568 486.938 87.9063Z" fill="white"/>
<path fillRule="evenodd" clipRule="evenodd" d="M474.177 86.8646C472.964 88.0797 472.094 89.9896 471.573 92.5938C471.052 95.1979 470.879 96.8474 471.052 97.5417C471.139 97.8891 471.226 98.2359 471.313 98.5833C471.486 97.6287 471.66 96.6734 471.833 95.7188C472.182 93.8089 473.396 92.5068 475.479 91.8125C476.521 91.4651 477.563 91.1182 478.604 90.7708C478.604 91.0313 478.604 91.2917 478.604 91.5521C478.604 92.0729 478.172 92.6807 477.302 93.375C476.432 94.0693 475.912 95.3714 475.74 97.2813C475.568 99.1912 475.219 100.319 474.698 100.667C474.177 101.014 473.396 101.014 472.354 100.667C471.833 100.493 471.313 100.319 470.792 100.146C470.879 101.448 470.965 102.75 471.052 104.052C471.226 106.656 471.66 108.392 472.354 109.26C473.047 110.129 474.089 110.389 475.479 110.042C476.87 109.694 477.912 107.785 478.604 104.313C479.297 100.84 479.646 97.5417 479.646 94.4167C479.646 91.2917 479.385 89.1214 478.865 87.9063C478.344 86.6912 477.734 85.9099 477.042 85.5625C476.349 85.2151 475.391 85.6495 474.177 86.8646Z" fill="white"/>
<path fillRule="evenodd" clipRule="evenodd" d="M831.99 87.3854C831.469 87.5589 831.469 92.2464 831.99 101.448C832.51 110.649 832.422 123.41 831.729 139.729C831.037 156.048 830.776 168.288 830.948 176.448C831.037 180.528 831.12 184.608 831.208 188.688C831.641 188.514 832.078 188.34 832.51 188.167C833.38 187.819 833.984 180.181 834.333 165.25C834.682 150.319 834.682 138.514 834.333 129.833C833.984 121.153 833.901 111.865 834.073 101.969C834.162 97.0208 834.245 92.0729 834.333 87.125C834.073 87.125 833.813 87.125 833.552 87.125C833.031 87.125 832.51 87.212 831.99 87.3854Z" fill="white"/>
<path fillRule="evenodd" clipRule="evenodd" d="M488.24 94.1563C487.719 94.6771 487.109 94.9375 486.417 94.9375C486.068 94.9375 485.724 94.9375 485.375 94.9375C485.464 96.8474 485.547 98.7568 485.635 100.667C485.724 102.577 485.807 104.486 485.896 106.396C486.156 106.135 486.417 105.875 486.677 105.615C487.198 105.094 487.807 103.531 488.5 100.927C489.193 98.3229 489.453 96.413 489.281 95.1979C489.193 94.5901 489.109 93.9828 489.021 93.375C488.76 93.6354 488.5 93.8958 488.24 94.1563Z" fill="white"/>
<path fillRule="evenodd" clipRule="evenodd" d="M481.99 101.188C481.818 102.577 481.99 103.531 482.51 104.052C482.771 104.313 483.031 104.573 483.292 104.833C483.12 103.879 482.943 102.923 482.771 101.969C482.599 101.014 482.422 100.059 482.25 99.1042C482.161 99.7985 482.078 100.493 481.99 101.188Z" fill="white"/>
<path fillRule="evenodd" clipRule="evenodd" d="M476 136.604C473.917 137.298 471.922 139.035 470.01 141.813C468.101 144.59 465.583 145.806 462.458 145.458C460.896 145.285 459.333 145.111 457.771 144.938C457.771 146.066 457.771 147.194 457.771 148.323C457.771 150.58 458.465 153.097 459.854 155.875C461.243 158.653 462.719 160.129 464.281 160.302C465.844 160.476 467.58 159.868 469.49 158.479C471.399 157.09 474.349 156.222 478.344 155.875C482.339 155.528 484.682 155.094 485.375 154.573C486.068 154.052 486.938 152.577 487.979 150.146C489.021 147.715 489.542 145.458 489.542 143.375C489.542 141.292 488.76 139.469 487.198 137.906C485.635 136.344 483.901 135.563 481.99 135.563C480.078 135.563 478.083 135.91 476 136.604Z" fill="white"/>
<path fillRule="evenodd" clipRule="evenodd" d="M451 148.062C449.264 151.535 448.309 155.181 448.135 159C447.962 162.819 448.917 166.205 451 169.156C453.083 172.108 457.077 178.879 462.979 189.469C468.882 200.059 472.615 208.479 474.177 214.729C475.74 220.979 477.823 225.493 480.427 228.271C481.729 229.66 483.031 231.048 484.333 232.438C483.12 227.577 481.901 222.715 480.688 217.854C478.255 208.132 476.87 200.319 476.521 194.417C476.172 188.514 474.349 183.74 471.052 180.094C467.754 176.448 465.41 173.496 464.021 171.24C462.632 168.983 461.851 167.16 461.677 165.771C461.504 164.382 460.809 163.167 459.594 162.125C458.379 161.083 457.423 159.434 456.729 157.177C456.035 154.92 455.775 152.229 455.948 149.104C456.121 145.979 455.775 144.156 454.906 143.635C454.472 143.375 454.038 143.115 453.604 142.854C452.736 144.59 451.868 146.327 451 148.062Z" fill="white"/>
<path fillRule="evenodd" clipRule="evenodd" d="M491.365 151.188C490.844 152.923 489.891 154.573 488.5 156.135C487.109 157.698 484.505 158.653 480.688 159C476.87 159.347 474.005 160.215 472.094 161.604C470.184 162.993 468.275 163.774 466.365 163.948C464.455 164.121 463.5 164.382 463.5 164.729C463.5 165.077 466.104 168.375 471.313 174.625C476.521 180.875 479.037 185.563 478.865 188.688C478.693 191.813 479.818 198.583 482.25 209C484.682 219.417 487.719 229.399 491.365 238.948C495.01 248.496 497.182 253.444 497.875 253.792C498.568 254.139 499.526 253.965 500.74 253.271C501.953 252.577 504.297 250.319 507.771 246.5C511.245 242.681 513.5 239.816 514.542 237.906C515.583 235.996 516.193 234.173 516.365 232.438C516.537 230.702 515.234 227.142 512.458 221.76C509.682 216.379 506.38 210.649 502.563 204.573C498.745 198.496 496.052 193.462 494.49 189.469C492.927 185.476 492.146 177.663 492.146 166.031C492.146 160.215 492.146 154.399 492.146 148.583C491.885 149.452 491.625 150.319 491.365 151.188Z" fill="white"/>
<path fillRule="evenodd" clipRule="evenodd" d="M719.49 34C706.208 35.9097 692.927 37.8193 679.646 39.7292C685.286 39.3818 690.932 39.0349 696.573 38.6875C707.859 37.9932 716.625 37.212 722.875 36.3438C729.125 35.4757 737.547 34.1736 748.135 32.4375C758.724 30.7014 764.281 29.5729 764.802 29.0521C765.063 28.7917 765.323 28.5313 765.583 28.2708C764.542 28.2708 763.5 28.2708 762.458 28.2708C760.375 28.2708 746.052 30.1806 719.49 34Z" fill="black"/>
<path fillRule="evenodd" clipRule="evenodd" d="M711.417 45.9792C703.083 47.1943 694.75 48.4099 686.417 49.625C692.057 49.1911 697.703 48.7568 703.344 48.3229C714.63 47.4547 723.917 46.413 731.208 45.1979C738.5 43.9828 742.234 43.2016 742.406 42.8542C742.495 42.6807 742.578 42.5068 742.667 42.3333C741.625 42.3333 740.583 42.3333 739.542 42.3333C737.458 42.3333 728.083 43.5484 711.417 45.9792Z" fill="black"/>
<path fillRule="evenodd" clipRule="evenodd" d="M726.781 57.1771C719.662 57.6979 711.766 58.5661 703.083 59.7813C694.401 60.9964 688.849 61.9516 686.417 62.6458C685.203 62.9932 683.984 63.3401 682.771 63.6875C691.974 62.8193 701.172 61.9516 710.375 61.0833C728.776 59.3474 738.589 58.2188 739.802 57.6979C740.412 57.4375 741.016 57.1771 741.625 56.9167C740.932 56.8297 740.234 56.7432 739.542 56.6563C738.151 56.4828 733.901 56.6563 726.781 57.1771Z" fill="black"/>
<path fillRule="evenodd" clipRule="evenodd" d="M722.615 78.2708C715.495 79.6599 707.599 80.788 698.917 81.6563C694.578 82.0901 690.234 82.5245 685.896 82.9583C686.328 83.1318 686.766 83.3057 687.198 83.4792C688.068 83.8266 692.406 83.8266 700.219 83.4792C708.031 83.1318 716.104 82.2641 724.438 80.875C732.771 79.4859 736.938 78.3578 736.938 77.4896C736.938 77.0557 736.938 76.6214 736.938 76.1875C736.328 76.1875 735.724 76.1875 735.115 76.1875C733.901 76.1875 729.734 76.8818 722.615 78.2708Z" fill="black"/>
<path fillRule="evenodd" clipRule="evenodd" d="M716.365 106.917C706.208 108.479 696.052 110.042 685.896 111.604C687.719 111.691 689.542 111.778 691.365 111.865C695.01 112.038 701.693 111.604 711.417 110.563C721.141 109.521 730.427 108.219 739.281 106.656C748.135 105.094 752.651 103.965 752.823 103.271C752.911 102.923 752.995 102.577 753.083 102.229C752.042 102.229 751 102.229 749.958 102.229C747.875 102.229 736.677 103.792 716.365 106.917Z" fill="black"/>
<path fillRule="evenodd" clipRule="evenodd" d="M706.729 120.198C699.089 120.719 693.62 121.413 690.323 122.281C688.672 122.715 687.026 123.149 685.375 123.583C690.932 123.236 696.484 122.889 702.042 122.542C713.151 121.847 719.318 121.153 720.531 120.458C721.141 120.111 721.745 119.764 722.354 119.417C721.662 119.417 720.964 119.417 720.271 119.417C718.88 119.417 714.37 119.677 706.729 120.198Z" fill="black"/>
<path fillRule="evenodd" clipRule="evenodd" d="M697.875 135.563C694.401 136.083 690.932 136.604 687.458 137.125C689.021 137.298 690.583 137.472 692.146 137.646C695.271 137.993 699.349 137.906 704.385 137.385C709.422 136.865 712.37 136.517 713.24 136.344C714.109 136.17 714.63 135.736 714.802 135.042C714.891 134.694 714.974 134.347 715.063 134C713.932 134 712.807 134 711.677 134C709.422 134 704.818 134.521 697.875 135.563Z" fill="black"/>
<path fillRule="evenodd" clipRule="evenodd" d="M724.958 157.437C716.974 158.132 708.292 159.347 698.917 161.083C694.229 161.952 689.542 162.819 684.854 163.687C686.068 163.774 687.287 163.861 688.5 163.948C690.932 164.121 700.047 163.34 715.844 161.604C731.641 159.868 740.063 158.653 741.104 157.958C741.625 157.611 742.146 157.264 742.667 156.917C741.714 156.83 740.755 156.743 739.802 156.656C737.891 156.483 732.943 156.743 724.958 157.437Z" fill="black"/>
<path fillRule="evenodd" clipRule="evenodd" d="M730.427 166.813C716.714 168.202 706.729 169.59 700.479 170.979C697.354 171.673 694.229 172.368 691.104 173.063C691.797 173.149 692.495 173.236 693.188 173.323C694.578 173.496 698.396 173.063 704.646 172.021C710.896 170.979 720.359 169.938 733.031 168.896C745.703 167.854 753.083 167.16 755.167 166.813C757.25 166.465 758.38 166.031 758.552 165.51C758.641 165.25 758.724 164.99 758.813 164.729C757.51 164.729 756.208 164.729 754.906 164.729C752.302 164.729 744.141 165.423 730.427 166.813Z" fill="black"/>
<path fillRule="evenodd" clipRule="evenodd" d="M704.646 71.2396C699.438 71.8474 694.229 72.4547 689.021 73.0625C694.49 72.7151 699.958 72.3682 705.427 72.0208C716.365 71.3266 722.005 70.7188 722.354 70.1979C722.526 69.9375 722.703 69.6771 722.875 69.4167C722.443 69.4167 722.005 69.4167 721.573 69.4167C720.703 69.4167 715.063 70.0245 704.646 71.2396Z" fill="black"/>
<path fillRule="evenodd" clipRule="evenodd" d="M447.094 167.594C446.92 168.462 446.226 169.156 445.01 169.677C443.795 170.198 441.712 170.458 438.76 170.458C435.809 170.458 432.684 169.851 429.385 168.635C426.087 167.42 421.052 166.812 414.281 166.812C407.51 166.812 402.042 170.285 397.875 177.229C393.708 184.173 390.583 189.729 388.5 193.896C386.417 198.062 384.16 203.705 381.729 210.823C379.298 217.941 377.389 230.441 376 248.323C374.611 266.205 373.656 276.274 373.135 278.531C372.615 280.788 370.444 286.691 366.625 296.24C362.806 305.788 360.375 312.733 359.333 317.073C358.292 321.413 357.858 324.625 358.031 326.708C358.205 328.792 361.33 331.222 367.406 334C373.483 336.778 382.771 339.121 395.271 341.031C407.771 342.941 417.667 343.722 424.958 343.375C432.25 343.028 439.542 341.726 446.833 339.469C454.125 337.212 457.597 335.302 457.25 333.74C456.903 332.177 456.729 328.531 456.729 322.802C456.729 317.073 457.077 311.431 457.771 305.875C458.465 300.319 455.688 293.202 449.438 284.521C443.188 275.84 438.934 269.417 436.677 265.25C434.42 261.083 432.771 257.438 431.729 254.313C430.688 251.188 428.691 249.191 425.74 248.323C422.788 247.455 420.705 246.5 419.49 245.458C418.274 244.417 417.233 242.941 416.365 241.031C415.496 239.121 414.802 236.691 414.281 233.74C413.76 230.788 413.673 225.84 414.021 218.896C414.368 211.952 415.063 206.569 416.104 202.75C417.146 198.931 418.274 195.719 419.49 193.115C420.705 190.51 421.833 188.427 422.875 186.865C423.917 185.302 425.653 183.479 428.083 181.396C430.514 179.312 432.944 177.923 435.375 177.229C437.806 176.535 439.802 176.361 441.365 176.708C442.927 177.056 444.577 178.097 446.313 179.833C448.048 181.569 449.524 183.566 450.74 185.823C451.955 188.08 454.125 194.764 457.25 205.875C460.375 216.986 462.371 223.41 463.24 225.146C464.108 226.882 465.063 228.271 466.104 229.313C467.146 230.354 467.667 231.309 467.667 232.177C467.667 233.045 467.059 234 465.844 235.042C464.629 236.083 464.021 236.865 464.021 237.385C464.021 237.906 465.236 241.118 467.667 247.021C468.882 249.972 470.097 252.923 471.313 255.875C471.573 253.618 471.833 251.361 472.094 249.104C472.615 244.59 472.875 238.774 472.875 231.656C472.875 224.538 472.703 219.938 472.354 217.854C472.005 215.771 470.531 212.038 467.927 206.656C465.323 201.274 463.066 197.108 461.156 194.156C459.246 191.205 456.469 185.823 452.823 178.01C451 174.104 449.177 170.198 447.354 166.292C447.267 166.726 447.181 167.16 447.094 167.594Z" fill="white"/>
<path fillRule="evenodd" clipRule="evenodd" d="M810.635 195.979C800.047 201.535 789.021 207.871 777.563 214.99C766.104 222.108 757.422 227.142 751.521 230.094C748.568 231.569 745.62 233.045 742.667 234.521C743.359 234.781 744.057 235.042 744.75 235.302C746.141 235.823 748.135 235.389 750.74 234C753.344 232.611 755.516 231.222 757.25 229.833C758.984 228.444 762.807 226.188 768.708 223.063C774.609 219.938 781.12 216.118 788.24 211.604C795.359 207.09 803.776 202.403 813.5 197.542C823.224 192.681 828.083 189.816 828.083 188.948C828.083 188.514 828.083 188.08 828.083 187.646C827.823 187.646 827.563 187.646 827.302 187.646C826.781 187.646 821.224 190.423 810.635 195.979Z" fill="white"/>
<path fillRule="evenodd" clipRule="evenodd" d="M476 242.854C475.828 247.194 475.651 251.535 475.479 255.875C478.604 255.702 481.729 255.528 484.854 255.354C487.979 255.181 491.104 255.007 494.229 254.833C493.099 252.49 491.974 250.146 490.844 247.802C488.589 243.115 485.635 238.948 481.99 235.302C480.167 233.479 478.344 231.656 476.521 229.833C476.349 234.173 476.172 238.514 476 242.854Z" fill="white"/>
<path fillRule="evenodd" clipRule="evenodd" d="M584.194 238.964C581.91 241.244 578.038 243.963 572.588 247.12C567.139 250.278 563.794 252.47 562.565 253.698C561.336 254.925 560.191 255.452 559.136 255.276C558.081 255.101 555.618 255.452 551.751 256.329C547.884 257.206 539.971 259.486 528.012 263.169C516.052 266.853 505.591 270.711 496.623 274.746C487.655 278.78 482.733 281.06 481.852 281.586C480.971 282.113 480.444 282.727 480.27 283.428C480.095 284.13 479.568 284.48 478.687 284.48C477.806 284.48 476.577 285.27 474.994 286.848C474.203 287.638 473.412 288.427 472.62 289.216C472.62 288.778 472.62 288.339 472.62 287.901C472.62 287.024 473.322 286.059 474.73 285.007C476.139 283.954 476.93 283.077 477.104 282.376C477.278 281.674 476.487 279.569 474.73 276.061C472.974 272.553 470.51 265.449 467.345 254.75C465.762 249.4 464.18 244.051 462.597 238.701C461.63 239.578 460.663 240.455 459.696 241.332C457.761 243.086 455.563 244.665 453.101 246.068C450.639 247.471 448.442 248.436 446.507 248.962C444.573 249.488 441.671 249.839 437.803 250.014C435.868 250.102 433.934 250.19 432 250.278C434.198 254.049 436.396 257.82 438.594 261.591C442.99 269.133 449.584 278.78 458.377 290.532C467.169 302.283 472.182 309.3 473.412 311.58C474.641 313.86 475.432 315 475.786 315C476.139 315 482.116 311.492 493.722 304.476C505.328 297.46 518.078 290.181 531.968 282.639C545.858 275.097 553.159 271.326 553.861 271.326C554.562 271.326 555.707 270.799 557.29 269.747C558.872 268.695 561.072 267.642 563.884 266.59C566.696 265.537 568.458 264.66 569.159 263.959C569.861 263.257 572.235 262.468 576.281 261.591C580.327 260.714 583.841 260.187 586.832 260.012C589.823 259.837 595.098 258.872 602.658 257.118C606.44 256.241 610.218 255.364 614 254.487C613.826 253.786 613.647 253.084 613.472 252.382C613.119 250.979 611.89 249.488 609.78 247.91C607.67 246.331 605.032 244.752 601.867 243.174C598.701 241.595 596.328 240.105 594.745 238.701C593.162 237.298 591.58 236.421 589.997 236.07C588.414 235.719 586.478 236.684 584.194 238.964Z" fill="white"/>
<path fillRule="evenodd" clipRule="evenodd" d="M614.542 249.625C615.234 250.667 615.583 251.969 615.583 253.531C615.583 255.094 615.151 256.309 614.281 257.177C613.411 258.045 608.38 259.347 599.177 261.083C594.578 261.952 589.974 262.819 585.375 263.688C592.495 263.688 599.609 263.688 606.729 263.688C620.964 263.688 630.339 263.34 634.854 262.646C637.109 262.298 639.37 261.952 641.625 261.604C641.536 261.257 641.453 260.91 641.365 260.563C641.193 259.868 640.234 258.566 638.5 256.656C636.766 254.746 634.422 252.923 631.469 251.188C628.516 249.452 624.786 248.496 620.271 248.323C618.016 248.236 615.755 248.15 613.5 248.063C613.849 248.583 614.193 249.104 614.542 249.625Z" fill="white"/>
<path fillRule="evenodd" clipRule="evenodd" d="M519.49 257.177C505.427 258.045 494.49 258.306 486.677 257.958C482.771 257.785 478.865 257.611 474.958 257.438C474.87 259.087 474.786 260.736 474.698 262.385C474.526 265.684 475.391 269.417 477.302 273.583C478.255 275.667 479.214 277.75 480.167 279.833C481.297 279.052 482.422 278.271 483.552 277.49C485.807 275.927 489.542 273.931 494.75 271.5C499.958 269.069 506.469 266.552 514.281 263.948C522.094 261.344 528.953 259.434 534.854 258.219C537.807 257.611 540.755 257.004 543.708 256.396C543.188 256.309 542.667 256.222 542.146 256.135C541.104 255.962 533.552 256.309 519.49 257.177Z" fill="white"/>
<path fillRule="evenodd" clipRule="evenodd" d="M360.635 282.437C360.375 288.861 360.115 295.285 359.854 301.708C361.33 298.236 362.806 294.764 364.281 291.292C367.233 284.347 369.056 278.531 369.75 273.844C370.444 269.156 370.792 266.292 370.792 265.25C370.792 264.208 369.229 263.601 366.104 263.427C364.542 263.34 362.979 263.254 361.417 263.167C361.156 269.59 360.896 276.014 360.635 282.437Z" fill="white"/>
<path fillRule="evenodd" clipRule="evenodd" d="M749.438 318.375C724.089 319.417 690.411 320.024 648.396 320.198C606.38 320.371 584.333 320.285 582.25 319.937C581.208 319.764 580.167 319.59 579.125 319.417C579.125 319.59 579.125 319.764 579.125 319.937C579.125 320.285 582.599 320.806 589.542 321.5C596.484 322.194 618.62 322.629 655.948 322.802C693.276 322.976 721.922 322.629 741.885 321.76C761.849 320.892 783.292 320.285 806.208 319.937C817.667 319.764 829.125 319.59 840.583 319.417C840.411 319.069 840.234 318.722 840.063 318.375C839.714 317.681 830.859 317.246 813.5 317.073C796.141 316.899 774.786 317.333 749.438 318.375Z" fill="black"/>
<path fillRule="evenodd" clipRule="evenodd" d="M539.802 405.875C537.109 406.222 534.422 406.569 531.729 406.917C532.771 407.785 533.812 408.653 534.854 409.521C536.937 411.257 538.76 413.514 540.323 416.292C541.104 417.681 541.885 419.069 542.667 420.458C543.62 418.375 544.578 416.292 545.531 414.208C547.443 410.042 548.484 407.438 548.656 406.396C548.745 405.875 548.828 405.354 548.917 404.833C548.745 404.833 548.568 404.833 548.396 404.833C548.047 404.833 545.182 405.181 539.802 405.875Z" fill="white"/>
</svg>
