<svg id="yellow" xmlns="http://www.w3.org/2000/svg" width="1350" height="650" viewBox="0 0 1350 650">
  <defs>
    <style>
      .cls-1, .cls-6 {
        <!-- yellow -->
        fill: #EFC33C;
      }

      .cls-1, .cls-2, .cls-3, .cls-4, .cls-5, .cls-6, .cls-7, .cls-8, .cls-9 {
        fill-rule: evenodd;
      }

      .cls-2 {
        <!-- purple -->
        fill: #8B7ADD;
      }

      .cls-3 {
        <!-- light purple -->
        fill: #B0A5E8;
      }

      .cls-4 {
        fill: none;
      }

      .cls-4, .cls-6 {
        stroke: #fff;
        stroke-width: 3px;
      }

      .cls-5 {
        fill: #fff;
      }

      .cls-7 {
        <!-- yellow -->
        fill: #EFC33C;
      }

      .cls-7, .cls-8, .cls-9 {
        <!-- stroke: #cd0a5e; -->
        stroke-width: 0px;
      }

      .cls-8 {
        <!-- light purple -->
        fill: #B0A5E8;
      }

      .cls-9 {
        <!-- purple -->
        fill: #8B7ADD;
      }
    </style>
  </defs>
  <path class="cls-1" d="M931,161c-7.586,5.861-20.816,28.807-25,62-1.865,14.793-2.44,30.5-1,36,0.791,3.018,16,29.477,11,41-1.137,2.62-2.992,5.018-3,9a16.973,16.973,0,0,0,3,9c5.1,7.89,6.31,16.516,12,26,5.554,9.256,11.756,14.195,18,23,7.125,10.048,9.991,17.728,17,20,11.779,3.818,23.627-6.844,40-18a252.151,252.151,0,0,1,29-17,79.567,79.567,0,0,0-10,31c-1.75,17.2-.07,31.314,8,36,7.8,4.529,23.39-4.165,32-5,12.92-1.253,18.09,4.339,31,3,25.94-2.692,49.49-26.33,56-51,4.1-15.539-1.85-35.581-13-64-9.66-24.625-17.73-42.3-18-62-0.21-14.934,8.06-31.931,4-53-1.46-7.56-9.18-25.162-21-41-9.01-12.068-16.93-18.264-25-21-8.9-3.017-16.29-2.092-24-1-9.1,1.289-18.94,2.726-27,4a234.483,234.483,0,0,0-48,11c-8.673,2.985-23.271,9.708-36,16A54.5,54.5,0,0,0,931,161Z"/>
  <path class="cls-1" d="M1221,462c-1.89,19.282-23.08,34.412-49,46-26.82,11.992-48.32,9.6-82,12-18.89,1.347-50.55,3.37-76,5-6.62.424-32.413,5.379-50-8a34.183,34.183,0,0,1-9-10c-7.916-13.6-3.715-29.125-1-36,6.872-17.4,21.785-24.186,37-35,14.47-10.287,18.48-20.782,33-31,31.8-22.371,66.48-23.215,122-28,9.51-.819,26.32-2.29,40,8,12.66,9.522,12.3,23.867,21,43C1213.77,442.884,1222.12,450.575,1221,462Z"/>
  <path class="cls-2" d="M929,166c-1.887-1.595-10.963,4.722-18,13-9.535,11.217-11.648,22.4-16,41-2.691,11.5-5.624,21.1-6,31a104.876,104.876,0,0,0,5,36,90.816,90.816,0,0,1,7,23c1.162,7.129,1.516,14.717,1,18-1.414,9-10,20.889-7,25,2.309,3.161,10.078-.466,17,1,4.48,0.949,8.416,2.834,13,1a8.4,8.4,0,0,0,4-3c2.864-4.677-1.863-11.972-6-19-3.959-6.725-5.366-13.347-9-17-0.772-.776-3.757-3.666-3-6,0.627-1.935,3.41-1.952,4-4,0.5-1.721-1.165-2.95-1-5,0.135-1.678,1.13-2.358,2-4a20.23,20.23,0,0,0,1-7c-0.009-5.158-1.134-9.747-2-11-1.033-1.493-2.869-2.638-4-5-1.335-2.788.215-4.236-1-7-1.334-3.035-4.258-3.606-6-6-2.3-3.164-1.026-6.911-2-10-0.645-2.046-.619-8.146,0-14,1.277-12.074,6.315-25.383,8-29C920.453,185.56,931.611,168.207,929,166Z"/>
  <path class="cls-2" d="M945,434c6.7,4.322,15.258-5.183,32-9,8.9-2.029,21.044-4.09,33-11,4.99-2.883,10.03-6.677,12-13,3.3-10.607-3.82-24.31-14-28a15.917,15.917,0,0,0-7-1c-6.389.61-9.213,5.14-15,9-3.82,2.548-13.225,7.649-22,5-3.163-.955-10.459-7.639-17-17a67.849,67.849,0,0,0-8-9c-2.623-2.353-10.51-8.866-13-7-1.872,1.4.27,6.819,3,15,0.73,2.187,2.633,8.6,4,13a161.2,161.2,0,0,1,6,30C940.336,423.342,939.805,430.651,945,434Z"/>
  <path class="cls-2" d="M1010,379c-3.51-3.575-7.68-6.212-7-9,0.44-1.788,2.68-2.316,6-4,3.07-1.555,4.98-3.349,8-5,2.06-1.127,3.95-1.864,6-3,3.26-1.8,5.18-3.488,6-3,2.51,1.5-6.16,14.971-5,28a84.162,84.162,0,0,1,0,12c-0.42,4.33-.99,6.856-2,7C1019.65,402.335,1018.87,388.045,1010,379Z"/>
  <path class="cls-2" d="M940,267c2.37-1.029,8.414,16.729,23,20,10.962,2.458,22.359-5.384,24-3,1.057,1.536-2.358,6.061-6,9-7.245,5.845-18.806,7.9-28,3C938.8,288.425,937.57,268.055,940,267Z"/>
  <path class="cls-2" d="M934,356c0.073-.413,5.9.848,11-1a18.237,18.237,0,0,0,8-6,25.125,25.125,0,0,0-4,9c-0.99,4.526.106,10.643-1,11-0.894.288-2.771-2.443-5.72-7.264A11.638,11.638,0,0,0,941,360C938.209,356.941,933.937,356.352,934,356Z"/>
  <path class="cls-2" d="M1020,154c0.88-.042-0.83,17.1,10,33,9.37,13.76,26.06,19.909,25,23-0.9,2.624-12.98,3.135-22-3C1012.99,193.386,1018.65,154.065,1020,154Z"/>
  <path class="cls-2" d="M961,177c-0.261.233,3.436,5.54,9.457,11.224A76.884,76.884,0,0,0,997,205c12.73,4.592,21.55,3.667,31,12,4,3.526,8.04,8.567,7,10-1.8,2.486-18.65-6.227-31-14C977.827,196.525,961.51,176.544,961,177Z"/>
  <path class="cls-2" d="M1056,290c-2.39-.016-5.56,18.656-8,26-4.07,12.261-9.51,20.888-14,33-4.03,10.885-6.84,21.034-8,33-1.13,11.574-1.45,31.614,4,33,3.15,0.8,7.78-4.718,10-10,3.4-8.078.92-15.253,0-22s0.28-18.6,6-32c1.83-4.286,13.05-19.684,15-34C1062.87,303.309,1058.8,290.019,1056,290Z"/>
  <path class="cls-2" d="M1092,410c0.33,1.2,12.9.573,25-6,11.81-6.416,20.2-17.116,25-28a60.452,60.452,0,0,0,5-20c1.56-21.711-9.07-40.727-12-40-3.08.764,3.17,26.06-5,52-5.11,16.236-12.19,25.749-20,32C1101.6,406.717,1091.72,408.987,1092,410Z"/>
  <path class="cls-2" d="M1084,302c1.89,0.35,1.51,10.887,1,19a153.632,153.632,0,0,1-4,27c-3.44,13.753-9.66,32.519-12,32-1.56-.346-0.37-9.836,1-27a173.381,173.381,0,0,1,5-29C1077.24,315.665,1081.76,301.585,1084,302Z"/>
  <path class="cls-2" d="M960,512c-4.109-4.96-6.958-12.017-7-22-0.051-12.151,4.812-24.774,15-37,8.327-9.993,16.372-14.229,26-21,19-13.361,30.48-31.163,32-30,2.26,1.736-19.29,35.411-29,50-7.645,11.483-13,18.92-17,31-1.844,5.573-5.027,33.717-11,35C967.019,518.425,963.9,516.7,960,512Z"/>
  <path class="cls-2" d="M1062,155c1.78-.525,9.38,19.594,14,34a235.45,235.45,0,0,1,7,27c2.62,13.439,4.74,30.613,3,31-1.89.421-7.78-19.076-11-30-2.63-8.938-4.91-17.757-7-27C1064.64,175.14,1060.28,155.508,1062,155Z"/>
  <path class="cls-2" d="M911,246c-1.929-1.05-5.464.588-7,3-2.249,3.531-.055,8.473,2,13,1.385,3.05,2.6,6.044,4,9,4,8.442,6.013,15.206,6,21a30.079,30.079,0,0,1-.427,5.566c-0.225.97-2.384,5.548-1.573,6.434s3.328-.012,5-1c3-1.775,5-5.042,6-9,1.552-6.129-.221-11.517-1-14-3.991-12.724-9.115-27.993-12-33A2.782,2.782,0,0,0,911,246Z"/>
  <path class="cls-2" d="M917,319c2.131-1.216,4.29-1.767,6-1,1.549,0.695,2.977,5.307,3,13,0.006,2.032-.1,3.554-1,4-1.666.829-5.08-2.547-8-6"/>
  <path class="cls-2" d="M1043,259c0.59-.075,1.5,1.937,2.31,5.089,4.79,18.74,2.12,35.276-.31,40.911-10.3,23.906-36.59,33.978-39,31-1.37-1.7,4.38-8.72,15-21,6.78-7.833,12.05-12.514,16-21C1044.67,277.5,1041.29,259.216,1043,259Z"/>
  <path class="cls-3" d="M945,288c0.662-5,15.479-5.918,24-13a45.3,45.3,0,0,0,8-9c3.182-4.557,4.585-8.072,7-8,3.043,0.09,6.2,5.83,6,11-0.155,3.966-5.915,11.589-18,19-12.12,7.432-19.642,9.638-23,7a9.432,9.432,0,0,1-1-1C945.7,291.417,944.812,289.422,945,288Z"/>
  <path class="cls-3" d="M908,284a11.239,11.239,0,0,0,4-2,12.075,12.075,0,0,0,3-4c2.875-6.305,4.831-10.1,6-10,1.625,0.14,3.257,5.835,2,11-0.712,2.924-3.344,6.048-7,10a16.791,16.791,0,0,1-4,3,8.69,8.69,0,0,1-6,1c-3.1-1.1-5.072-5.14-4-7C902.694,284.8,905.036,284.93,908,284Z"/>
  <path class="cls-3" d="M928,267c1-.154,3.463,6.262,4,14,0.308,4.433-.835,9.856-2,16-1.428,7.529-1.886,12.256-6,16-3.231,2.94-5.861,3.735-8,3-3.158-1.085-5.048-5.356-4-8,0.98-2.47,4.069-2.369,7-4C931.221,297.2,925.889,267.326,928,267Z"/>
  <path class="cls-3" d="M936,164c-2.028-.81-7.366,9.149-17,26-4.773,8.348-9.158,16.382-12,28-1.611,6.586-.426,10.728-3,17-0.831,2.025-2.389,5.364-1,7,1.351,1.591,5.2,1.221,8.012-.342C917.6,238,917.18,227.239,922,221c1.477-1.912,6.938-5.928,13-9a73.5,73.5,0,0,1,19-6c9.435-1.762,15.685-1.28,16-3,0.387-2.11-8.132-4.57-21-11-6.849-3.423-13-7-13-7s-0.073-4.02,0-8C936.14,169.332,937.107,164.442,936,164Z"/>
  <path class="cls-3" d="M927,338c-0.032.909,1.542,2.1,3,2a3.312,3.312,0,0,0,2-1c4.372-4.188,26.894-2.372,27-3,0.1-.559-17.619-2.478-28,0C928.705,336.548,927.028,337.2,927,338Z"/>
  <path class="cls-3" d="M1071,419a22.872,22.872,0,0,0-8,4c-4.84,3.517-14.73,5.192-16,10-1.47,5.551,6.31,11.465,8,19a29.2,29.2,0,0,1-1,15c-2.25,7.233-6.92,12.63-16,20-9.91,8.042-16.81,11.854-17,18-0.18,5.815,5.27,11.633,11,14,11.2,4.629,20.15-5.379,37-11,29.81-9.947,47.94,9.764,79-4,12.93-5.729,15.31-13.753,28-20,15.45-7.609,27.39-8.226,33-19,1.76-3.388,2.79-14.688-1-28-4.91-17.245-13.12-29.342-22-38-16.5-16.08-28.22-20.713-37-18-5.87,1.812-10.33,9.915-18,19-4.98,5.9-9.33,10.339-16,14a47.844,47.844,0,0,1-21,6,65.412,65.412,0,0,1-14-1A23.208,23.208,0,0,0,1071,419Z"/>
  <path class="cls-3" d="M960,173c-1.8,2.5,9.143,16.157,24,25,14,8.336,24.12,7.454,38,16,10.67,6.572,16.75,14.248,17,14,0.37-.362-11.8-15.427-31-30C987.285,182.273,962.3,169.8,960,173Z"/>
  <path class="cls-3" d="M1022,153c-3.68,1.242-1.55,29.9,16,50,8.4,9.62,19.92,16.977,22,15,2.01-1.909-5.69-11.735-17-30C1035.64,176.109,1024.32,152.216,1022,153Z"/>
  <path class="cls-3" d="M1058,151c2.41-2.037,21.78,11.6,32,34a81.252,81.252,0,0,1,7,30c1.09,18.405-1.88,48.854-2,52a317.6,317.6,0,0,0,1,39c0.76,8.658,1.81,21.181-2,35-6.89,25.019-24.53,41.043-26,40-1.32-.936,11.71-17,16-41,1.26-7.071,1.67-19.146,1-31-0.39-6.919-2.68-18.435-2-29,0.78-12.273,4.8-19.761,6-32,0.79-8.039-.55-23.384-5-39C1075.09,177.746,1055.4,153.194,1058,151Z"/>
  <path class="cls-3" d="M1122,286c2.29-.35,7.55,14.161,9,30,0.79,8.616-.49,18.651-2,30-0.81,6.1-3.65,18.806-6,29-1.74,7.568-4.2,17.5-13,23-6.66,4.162-16.03,5.191-18,2-2.46-3.981,12.43-18.829,17-27,4.44-7.934,9.56-29.857,11-53C1120.33,314.748,1119.98,286.308,1122,286Z"/>
  <path class="cls-3" d="M1066,308c0.64,0.341-9.68,20.683-15.2,40.037-0.28,1-.55,1.976-0.8,2.963-4.48,17.421-4.18,32.923-2,38,2.69,6.267,6.63,9.805,5,13-1.67,3.282-8.36,4.5-12,2-4.99-3.426-4.09-13.695-1-27C1047.9,342.934,1065.13,307.533,1066,308Z"/>
  <path class="cls-4" d="M938,161v13.668c0,1.874.145,4.189,0,5.115-0.242,1.546-.662,2.846,0,4.217,0.986,2.043,3.58,2.607,5,3,1.748,0.483,4.9,2.575,8,4,2.59,1.191,6.581,3.309,10,5,5.306,2.624,12.545,6,19,9,13.248,6.153,29.89,15.679,46,26,5.43,3.482,12.79,8.537,18,18,3.02,5.492,4.82,12.056,5,12s-1.89-5.168-1-11c0.33-2.137,2.4-7.317,6-12,3.07-3.989,6.86-6.308,11-10,2.46-2.2,5.1-4.6,8-4,1.88,0.389,3.5,1.968,5,5,4.67,9.453,2.64,21.43,2,25-2.04,11.326-5.67,20.889-8,23-6.87,6.229-20.44,5.385-22,11-0.45,1.605.73,3.442,1,6a28.65,28.65,0,0,1,0,6,29.2,29.2,0,0,1-1,5,65.851,65.851,0,0,1-6,13c-2.38,3.672-5.93,15.046-9,25-4.92,15.943-9.08,32.655-10,43-1.45,16.265-.71,35.6,5,37,3,0.739,6.78-5.036,11-7,9.32-4.338,18.01.809,29,3,18.41,3.669,35.58-2.811,45-8,12.6-6.939,25.19-19.168,31-36,2.49-7.195,4.03-25.661-1-46-1.73-7-5.29-16.735-9-26-5.87-14.643-11.12-25.77-15-41-1.26-4.959-2.52-10.507-3-14-3.24-23.661,5.88-35.557,3-58-1.21-9.418-6.35-24.449-17-40-9.94-14.508-22.64-23.144-28-25-9.34-3.238-17.65-1.991-31,0-5.45.813-23.19,3.6-27,4a116.505,116.505,0,0,0-17,3c-4.3,1.143-7.811,2.471-12,4-8.3,3.029-15.758,4.82-24,8-5.022,1.937-10.241,4.125-14,6-7.438,3.709-16.793,9.848-26,17-6.792,5.275-13.164,11.139-16,15-6.9,9.4-9.113,18.071-11,26-1.57,6.595-3.363,14.579-5,22-1.949,8.831-3.711,16.044-4,24a89.954,89.954,0,0,0,2,23c3.014,13.415,9.208,19.368,11,33a66.233,66.233,0,0,1-3,29,68.591,68.591,0,0,1-7,15"/>
  <path class="cls-4" d="M1220,463a84.83,84.83,0,0,0-5-19c-3.1-7.922-9.19-17.447-11-21a98.133,98.133,0,0,1-9-27,44.721,44.721,0,0,0-16-15,43.417,43.417,0,0,0-32-4"/>
  <path class="cls-5" d="M937,239c8.3-.421,15.949-1.6,22-4a27.257,27.257,0,0,1,10-2,33.149,33.149,0,0,1,11,3c2.624,1.183,5.789,3.273,6,3,0.306-.4-3.185-4.154-8-7a31.851,31.851,0,0,0-11-4c-3.44-.568-9.088.191-15,1-4.055.555-8.488,2.325-11,3-1.65.443-4.8,1.313-5,3a2.534,2.534,0,0,0,1,2"/>
  <path class="cls-5" d="M910,241c1.331,0.9,2.528,2.719,2,4s-2.471,1.009-5,2c-2.111.828-4.625,3.611-6,3-1.307-.581-1.565-3.156-1-5C901.2,241.089,906.939,238.935,910,241Z"/>
  <path class="cls-4" d="M937,161a99.894,99.894,0,0,0-14,17,116.088,116.088,0,0,0-13,29,186,186,0,0,0-5,24,102.26,102.26,0,0,0-1,22,42.544,42.544,0,0,0,1,7c1.659,6.917,6.933,14.679,8,17,3.295,7.164,4.326,14.426,4,17a56.074,56.074,0,0,1-3,11,14.983,14.983,0,0,0-1,6c0.272,3.762,2.143,5.408,4,9,2.34,4.526.9,7.4,4,11,2.48,2.887,5.447,3.827,6,7,0.2,1.153-.112,1.834,0,3a11.434,11.434,0,0,0,2,5c0.593,1.021,1.92,4.926,4,7a35.975,35.975,0,0,0,4,3,22.275,22.275,0,0,1,5,6c3.346,5.21,6.916,6.63,10,12,1.526,2.656,3.17,6.132,7,9a16.807,16.807,0,0,0,6,3c7.3,1.7,13.937-3.456,19-7,1.315-.92,10.962-6.616,15-9,3.1-1.829,7.99-4.305,12-7,3.11-2.086,5.78-4.1,9-6a80.832,80.832,0,0,1,10-5"/>
  <path class="cls-5" d="M927,340c1.6-.551,2.522.478,4,0s2.155-2.288,3-3c2.478-2.089,6.314-1.283,8-1,6.829,1.148,15.9-.843,16,0,0.111,0.924-10.6-.164-19,6-2.4,1.764-5.354,4.552-9,4-2.519-.381-5.211-2.326-5-4A2.879,2.879,0,0,1,927,340Z"/>
  <path class="cls-4" d="M898,266a12.537,12.537,0,0,1,1-3c3.075-5.2,12.831-6.793,19-3,1.619,1,5.263,5.438,7,12,2.6,9.81,1.368,17.826,0,20-1.728,2.747-6.2,7.688-12,7a12.354,12.354,0,0,1-7-4c-2.483-2.575-3.5-5.448-5-10-0.443-1.345-.864-2.677-1.3-4.023A47.746,47.746,0,0,1,898,275,22.576,22.576,0,0,1,898,266Z"/>
  <path class="cls-3" d="M915,279c-1.737-.158-3.349,2.4-4,4-1.171,2.875-1.035,7.113,1,8,1.862,0.811,5-1.318,6-4C919.266,283.612,917.172,279.2,915,279Z"/>
  <path class="cls-4" d="M939,258c-1.295,2.146-2.266,9.78,0,19,1.541,6.273,4.147,11.655,6,14a27.815,27.815,0,0,0,10,8,26.391,26.391,0,0,0,17,2c4.831-1.1,11.128-4.021,15-10,1.622-2.5,3.189-10.158,3-19-0.112-5.235-.8-9.683-2-12-4-7.7-13.326-10.9-19-12-5.788-1.121-12.9-.721-21,3C943.258,253.178,939.86,256.575,939,258Z"/>
  <path class="cls-4" d="M923,266a12.423,12.423,0,0,1,15-1"/>
  <path class="cls-4" d="M942,314a31.3,31.3,0,0,0-11,2c-2.163.833-5.814,2.056-9,3a8.586,8.586,0,0,1-6,0c-3.8-1.658-4.783-6.347-5-8-0.4-3.055.31-5.156,1-6,1.962-2.4,5.692-1.614,8-3,2.617-1.572,4.914-7.255,5-17a77.239,77.239,0,0,0-2-18"/>
  <path class="cls-4" d="M1003,371a36.413,36.413,0,0,1,17,19c2.22,5.9,2.5,11.121,2,14-2.41,13.95-18.6,20.294-32,29-13.562,8.813-25.161,20.823-35,36"/>
  <path class="cls-4" d="M941,436a111.747,111.747,0,0,1,34-11c7.614-1.111,16.472-1.919,26-6a72.278,72.278,0,0,0,19-12"/>
  <path id="rectangle" class="cls-6" d="M729,357c6.993,34.3,21,102.988,21,103,0,0,27.387,25.879,68,45,22.445,10.567,43.6,16.9,64,20,20.821,3.165,45.214.7,58,1,8.088,0.191,24.343.53,26-5a4,4,0,0,0,0-2c-1.964-7.74-18.806-85.126-29-129-1.878-8.081-7-35-7-35h-1c-2.239,0-135.559,1.989-180,2H729Z"/>
  <path id="pink-2" data-name="pink" class="cls-3" d="M742.376,416.925c1.649-1.173,9.346,5.163,13.028,6.922a59.2,59.2,0,0,0,15.032,3.956,67.631,67.631,0,0,0,31.067-2.967c10.275-3.522,18.375-10.477,25.054-13.844,8.749-4.41,21.019-8,37.08-8.9,8.95-.5,21.466.585,35.076,3.955a152.228,152.228,0,0,1,44.1,18.788,33.61,33.61,0,0,0,1,5.933c0.7,2.642,1.6,4.283,1,4.944-1.607,1.787-10.147-3.805-20.043-8.9A160.357,160.357,0,0,0,906.73,418.9c-4.328-1.508-8.636-2.816-13.028-3.955a129.152,129.152,0,0,0-22.048-3.956c-8.332-.612-16.384-0.057-21.045.989-7.939,1.783-13.605,4.91-19.041,7.911a220.516,220.516,0,0,1-25.054,11.866,80.046,80.046,0,0,1-23.05,5.933,70.944,70.944,0,0,1-13.028,0c-10.7-1.008-25.052-6.922-25.054-6.922-0.729-2.033-1.417-3.961-2-5.933C742.024,420.287,741.6,417.477,742.376,416.925Z"/>
  <path id="blue-2" data-name="blue" class="cls-2" d="M740.376,408.925c1.649-1.173,9.346,5.163,13.028,6.922a59.2,59.2,0,0,0,15.032,3.956,67.631,67.631,0,0,0,31.067-2.967c10.275-3.522,18.375-10.477,25.054-13.844,8.749-4.41,21.019-8,37.08-8.9,8.95-.5,21.466.585,35.076,3.955a152.228,152.228,0,0,1,44.1,18.788,33.61,33.61,0,0,0,1,5.933c0.7,2.642,1.6,4.283,1,4.944-1.607,1.787-10.147-3.805-20.043-8.9A160.357,160.357,0,0,0,904.73,410.9c-4.328-1.508-8.636-2.816-13.028-3.955a129.152,129.152,0,0,0-22.048-3.956c-8.332-.612-16.384-0.057-21.045.989-7.939,1.783-13.605,4.91-19.041,7.911a220.516,220.516,0,0,1-25.054,11.866,80.046,80.046,0,0,1-23.05,5.933,70.944,70.944,0,0,1-13.028,0c-10.7-1.008-25.052-6.922-25.054-6.922-0.729-2.033-1.417-3.961-2-5.933C740.024,412.287,739.6,409.477,740.376,408.925Z"/>
  <path id="bottom" class="cls-7" d="M1364,410c-53.8,54.177-117.21,96.476-189,123-188.5,69.644-383.326,16.487-505-62C554.993,396.814,534.143,304.41,414,243c-124.012-63.388-276.857-56.545-448,3-5.071,4.346-7.93,8.165-7,11,7.546,23.011,250.17-85.615,442,6,114.793,54.824,136.554,144.587,234,214,205.491,146.376,434.44,114.412,540,82,116.5-35.772,170.98-89.171,190-136,1.48-3.647,2.8-7.275,4-11"/>
  <path id="middle" class="cls-8" d="M1368,375c-51.11,59.571-113.23,106.265-184.97,135.58-191,78.047-389.515,14.651-504.937-61.98C564.9,373.447,552.656,288.064,435,226,214.829,109.859-63.631,236.354-64,235c-0.122-.45,31.844-9.523,38.186-11.328C-43.739,233.325-64.891,245.79-63,251c6.5,17.914,267.621-112.414,472.129-10.333C519.123,295.571,535.693,379.2,643.1,454.6,736.4,520.089,852.542,564.7,974,568c62.88,1.711,133.86-8.116,211-35,61.79-21.535,108.72-50.9,136-76a330.521,330.521,0,0,0,56-67.381M-46,219"/>
  <path id="top" class="cls-9" d="M1385,337c-63.57,75.8-143.46,131.988-235,161C954.7,559.9,777.043,481.46,689.093,424.469,573.623,349.646,552.1,257.425,433.127,196.652c-124-63.338-276.82-56.5-447.94,3-5.129,4.335-7.867,8.089-7,10.992C-14.6,234.781,229.162,129.252,422,221c133.187,63.368,143.708,165.788,284,248,81.347,47.67,170.326,74.5,258,79,81.58,4.188,161.25-9.58,232-39.171,48.73-20.378,90.63-46.224,126-75.829a474.322,474.322,0,0,0,66-67.483"/>
</svg>
