<svg width="1408" height="1161" viewBox="0 0 1408 1161" fill="none" xmlns="http://www.w3.org/2000/svg">
<g id="About">
<g id="table">
<path id="path4633" d="M0.213623 836.892V871.3L705.692 1128.1L705.394 1093.47L0.213623 836.892Z" fill="#DCA37E"/>
<path id="path4635" d="M705.273 1093.68V1128.38L1407.78 844.461V810.707L705.273 1093.68Z" fill="#E0AD8C"/>
<path id="path245-4" d="M0 836.858L706.047 551.863L1408 810.728L706.047 1093.71L0 836.858Z" fill="#DBB69B"/>
</g>
<g id="mug">
<path id="path405-4" d="M1022.19 766.329C1052.25 766.329 1076.62 751.86 1076.62 734.014C1076.62 716.167 1052.25 701.698 1022.19 701.698C992.123 701.698 967.751 716.167 967.751 734.014C967.751 751.86 992.123 766.329 1022.19 766.329Z" fill="#FAF2F0"/>
<path id="path407-7" d="M1077.29 632.144H966.056V737.487H1077.29V632.144Z" fill="#FAF2F0"/>
<path id="path409-8" d="M1022.16 664.449C1052.23 664.449 1076.6 649.98 1076.6 632.132C1076.6 614.283 1052.23 599.816 1022.16 599.816C992.098 599.816 967.727 614.283 967.727 632.132C967.727 649.98 992.098 664.449 1022.16 664.449Z" fill="#CFCFCF"/>
<path id="path411-4" d="M1021.7 663.228C1049.23 663.228 1071.55 653.29 1071.55 641.031C1071.55 628.771 1049.23 618.832 1021.7 618.832C994.171 618.832 971.854 628.771 971.854 641.031C971.854 653.29 994.171 663.228 1021.7 663.228Z" fill="#1A2449"/>
<path id="path413-0" d="M1076.4 652.951C1111.28 639.14 1131.45 641.85 1131.45 667.287C1131.45 692.725 1076.05 726.159 1076.05 726.159V708.716C1076.05 708.716 1146.83 654.93 1100.67 660.745C1072.22 664.787 1077.17 670.374 1076.4 652.951Z" fill="#FAF2F0"/>
<path id="path415-0" d="M977.034 635.205C977.034 635.205 975.392 679.131 1058.3 650.1C1100.12 635.454 984.284 634.2 977.034 635.205Z" fill="#333187"/>
<path id="right-steam" d="M1035.79 533.403C1024.01 520.164 1007.69 492.12 1015.05 461.224C1022.4 430.326 1064.19 437.944 1064.19 437.944C1064.19 437.944 1024.46 464.614 1048.01 492.568C1071.56 520.521 1091.01 535.517 1046.85 575.24C997.674 638.258 1056.32 560.583 1035.79 533.403Z" fill="#908ED5" fill-opacity="0.194539"/>
<path id="left-steam" d="M1007.8 604.025C1007.8 604.025 979.512 567.928 988.16 551.593C996.45 535.936 999.669 542.478 1007.03 511.583C1028.66 564.479 1018.13 551.938 1007.89 562.441C994.682 575.564 1007.8 604.025 1007.8 604.025Z" fill="#908ED5" fill-opacity="0.194539"/>
</g>
<g id="plant">
<path id="path4267" d="M320.827 891.558C395.718 891.558 456.431 869.937 456.431 843.267C456.431 816.598 395.718 794.977 320.827 794.977C245.934 794.977 185.222 816.598 185.222 843.267C185.222 869.937 245.934 891.558 320.827 891.558Z" fill="#A36C3A"/>
<path id="path4269" d="M456.097 691.042H185.659V848.457H456.097V691.042Z" fill="#A36C3A"/>
<path id="path4271" d="M321.226 739.315C396.036 739.315 456.683 717.693 456.683 691.025C456.683 664.355 396.036 642.735 321.226 642.735C246.416 642.735 185.769 664.355 185.769 691.025C185.769 717.693 246.416 739.315 321.226 739.315Z" fill="#6D3427"/>
<path id="path4273" d="M322.085 737.496C389.023 737.496 443.287 722.643 443.287 704.324C443.287 686.003 389.023 671.152 322.085 671.152C255.148 671.152 200.886 686.003 200.886 704.324C200.886 722.643 255.148 737.496 322.085 737.496Z" fill="#1A2449"/>
<path id="path4275" d="M291.118 685.241C291.118 685.241 262.947 647.03 216.665 735.517C170.381 824.007 204.591 689.263 204.591 689.263C204.591 689.263 51.6576 757.642 110.015 677.194C168.369 596.751 291.118 685.241 291.118 685.241Z" fill="#2B3779"/>
<path id="path4277" d="M321.661 716.239C321.661 716.239 349.831 678.028 396.115 766.515C442.397 855.005 416.237 698.137 416.237 698.137C416.237 698.137 561.119 788.638 502.765 708.193C444.408 627.748 321.661 716.239 321.661 716.239Z" fill="#2B3779"/>
<path id="path4279" d="M317.278 713.395C317.278 713.395 349.476 701.33 309.23 594.74C268.983 488.15 150.26 474.072 150.26 474.072C150.26 474.072 240.812 536.417 275.018 626.918C309.23 717.418 317.278 713.395 317.278 713.395Z" fill="#4A6BBF"/>
<path id="path4281" d="M342.735 706.342C342.735 706.342 336.456 694.277 376.702 587.687C416.948 481.099 535.67 467.02 535.67 467.02C535.67 467.02 445.118 529.365 410.908 619.865C376.702 710.366 342.735 706.342 342.735 706.342Z" fill="#4A6BBF"/>
<path id="path4283" d="M322.247 714.388C322.247 714.388 420.851 674.165 380.605 567.577C340.359 460.987 384.628 422.775 384.628 422.775C384.628 422.775 271.941 509.254 306.151 599.755C340.359 690.254 322.247 714.388 322.247 714.388Z" fill="#37419B"/>
<path id="path4285" d="M309.088 707.191C309.088 707.191 200.729 457.931 127.106 507.619C53.4859 557.307 42.2756 606.813 42.2756 606.813C42.2756 606.813 117.221 543.7 158.193 577.557C199.165 611.415 309.088 707.191 309.088 707.191Z" fill="#37419B"/>
</g>
<g id="cactus">
<path id="path4267-4" d="M646.347 688.205C702.625 688.205 748.248 668.538 748.248 644.278C748.248 620.019 702.625 600.352 646.347 600.352C590.067 600.352 544.443 620.019 544.443 644.278C544.443 668.538 590.067 688.205 646.347 688.205Z" fill="#AEB5C9"/>
<path id="path4269-2" d="M748 463H545V649H748V463Z" fill="#AEB5C9"/>
<path id="path4271-1" d="M646.5 520C702.556 520 748 494.478 748 462.999C748 431.52 702.556 406 646.5 406C590.444 406 545 431.52 545 462.999C545 494.478 590.444 520 646.5 520Z" fill="#5D7BAA"/>
<path id="path4273-9" d="M646.999 518C697.257 518 738 500.538 738 479.001C738 457.461 697.257 440 646.999 440C596.741 440 556 457.461 556 479.001C556 500.538 596.741 518 646.999 518Z" fill="#1A2449"/>
<path id="path7203" d="M715.697 275.151C715.697 275.151 744.174 268.167 746.849 234.745C749.523 201.324 794.174 175.852 791.5 232C788.826 288.148 766.508 308.573 738.428 309.909L710.349 311.246L715.697 275.151Z" fill="#212D69"/>
<path id="path6825" d="M594.77 484.742C543.535 13.9773 734.099 13.8157 720.281 231.497L704.419 481.389C673.496 507.492 635.898 506.436 594.77 484.742Z" fill="#243E74"/>
<path id="Vector 13" d="M651.919 115C599.419 277.495 625.639 497.239 624.919 495.995" stroke="#1C3362" stroke-width="2"/>
<path id="Vector 17" d="M664 112C644.862 277.054 654.42 500.258 654.158 498.995" stroke="#1C3362" stroke-width="2"/>
<path id="Vector 15" d="M675 111C698.923 273.068 686.975 492.236 687.303 490.995" stroke="#1C3362" stroke-width="2"/>
<path id="Vector 16" d="M680 105C740.358 270.2 694.209 486.764 695.221 485.579" stroke="#1C3362" stroke-width="2"/>
<path id="Vector 14" d="M642 115C567.043 274.936 604.478 491.219 603.45 489.995" stroke="#1C3362" stroke-width="2"/>
<path id="path6882" d="M486.211 284.257C486.211 284.257 548.728 218.629 561.231 271.757C573.734 324.885 595.615 353.011 595.615 353.011C622.684 384.563 612.361 394.943 593.332 397.758C593.332 397.758 448.702 337.385 486.211 284.257Z" fill="#213569"/>
<path id="path7638" d="M659 104.726C643.385 76.9936 612.154 61.2786 621.821 87.1622C631.487 113.046 659 104.726 659 104.726Z" fill="#C17E67"/>
<path id="path7642" d="M655.045 104C655.045 104 635.194 47.4964 654.309 68.801C673.425 90.1057 655.045 104 655.045 104Z" fill="#C17E67"/>
<path id="path7644" d="M660.017 102.528C660.017 102.528 666.563 71.0955 672.382 72.02C678.2 72.9445 703.673 79.8403 680.306 96.105C658.645 111.182 660.017 102.528 660.017 102.528Z" fill="#C17E67"/>
<path id="path7646" d="M661 104.98C661 104.98 710.422 78.1116 697.996 98.8718C685.571 119.632 661 104.98 661 104.98Z" fill="#C17E67"/>
<path id="path7648" d="M656 108.387C656 108.387 602.832 92.1203 625.724 107.865C648.615 123.609 656 108.387 656 108.387Z" fill="#C17E67"/>
<path id="path7650" d="M661.017 102C661.017 102 715.77 113.673 684.185 119.146C652.6 124.619 661.017 102 661.017 102Z" fill="#C17E67"/>
<path id="path7652" d="M657.569 98C657.569 98 630.729 128.457 649.909 124.675C669.09 120.892 657.569 98 657.569 98Z" fill="#C17E67"/>
<path id="path7654" d="M654.51 105C654.51 105 649.79 67.8836 669.064 85.966C688.337 104.048 654.51 105 654.51 105Z" fill="#CBAC6C"/>
</g>
<g id="laptop">
<g id="screen">
<path id="path923" d="M492.554 640.166L913.431 470.55L913.582 769.152L492.539 939.15L492.554 640.166Z" fill="#1F202C"/>
<path id="path925" d="M492.905 640.461L479.915 635.754L902.575 466.275L913.904 470.407L492.905 640.461Z" fill="#1A2449"/>

<path id="path2686" d="M479.593 635.672L492.85 640.265L492.907 929.968L479.564 925.248L479.593 635.672Z" fill="#21275C"/>
</g>
<g id="laptop-base">
<path id="path367-5" d="M751.565 1037.88L751.617 1024.21L479.552 925.212V938.929L751.565 1037.88Z" fill="#1A2449"/>
<path id="path369-5" d="M1172.66 854.173L1172.68 866.637L751.573 1037.93L751.587 1024.24L1172.66 854.173Z" fill="#1A2449"/>
<path id="path371-8" d="M913.466 759.961L1172.84 854.104L751.742 1024.1L492.584 929.817L913.466 759.961Z" fill="#434B91"/>
</g>
<g id="keyboard">
<path id="path377-8" d="M978.323 808.32L621.528 952.803L653.963 964.3L1010.84 820.185L978.323 808.32Z" fill="#1A2449"/>
<path id="path377-8-2" d="M936.075 792.331L579.281 936.813L611.716 948.31L968.596 804.195L936.075 792.331Z" fill="#1A2449"/>
<path id="path377-8-8" d="M893.427 777.283L536.633 921.767L569.069 933.264L925.949 789.149L893.427 777.283Z" fill="#1A2449"/>
</g>
<g id="touchpad">
<path id="path381-0" d="M1010.27 895.241L869.623 952.661L804.853 928.58L945.909 870.006L1010.27 895.241Z" fill="#1A2449"/>
<path id="path381-0-7" d="M1010.57 894.298L869.927 949.014L805.162 926.068L946.207 870.252L1010.57 894.298Z" fill="#212E5B"/>
</g>
</g>
</g>
</svg>
